<mxfile host="65bd71144e">
    <diagram id="OtAcTSysA2TJcEK_XTX8" name="Page-1">
        <mxGraphModel dx="824" dy="639" grid="1" gridSize="10" guides="1" tooltips="1" connect="1" arrows="1" fold="1" page="1" pageScale="1" pageWidth="827" pageHeight="1169" math="0" shadow="0">
            <root>
                <mxCell id="0"/>
                <mxCell id="1" parent="0"/>
                <mxCell id="2" value="" style="whiteSpace=wrap;html=1;aspect=fixed;" vertex="1" parent="1">
                    <mxGeometry x="140" y="150" width="520" height="520" as="geometry"/>
                </mxCell>
                <mxCell id="18" value="" style="sketch=0;aspect=fixed;pointerEvents=1;shadow=0;dashed=0;html=1;strokeColor=none;labelPosition=center;verticalLabelPosition=bottom;verticalAlign=top;align=center;fillColor=#00188D;shape=mxgraph.mscae.general.graph" vertex="1" parent="1">
                    <mxGeometry x="180" y="210" width="430" height="430" as="geometry"/>
                </mxCell>
                <mxCell id="19" value="figure" style="text;strokeColor=none;align=center;fillColor=none;html=1;verticalAlign=middle;whiteSpace=wrap;rounded=0;" vertex="1" parent="1">
                    <mxGeometry x="340" y="110" width="60" height="30" as="geometry"/>
                </mxCell>
                <mxCell id="20" value="AXES" style="text;strokeColor=none;align=center;fillColor=none;html=1;verticalAlign=middle;whiteSpace=wrap;rounded=0;" vertex="1" parent="1">
                    <mxGeometry x="140" y="160" width="60" height="30" as="geometry"/>
                </mxCell>
                <mxCell id="21" value="y axis" style="text;strokeColor=none;align=center;fillColor=none;html=1;verticalAlign=middle;whiteSpace=wrap;rounded=0;" vertex="1" parent="1">
                    <mxGeometry x="70" y="330" width="60" height="30" as="geometry"/>
                </mxCell>
                <mxCell id="22" value="x axis" style="text;strokeColor=none;align=center;fillColor=none;html=1;verticalAlign=middle;whiteSpace=wrap;rounded=0;" vertex="1" parent="1">
                    <mxGeometry x="160" y="660" width="60" height="30" as="geometry"/>
                </mxCell>
                <mxCell id="23" value="x axis label" style="text;strokeColor=none;align=center;fillColor=none;html=1;verticalAlign=middle;whiteSpace=wrap;rounded=0;" vertex="1" parent="1">
                    <mxGeometry x="365" y="660" width="60" height="30" as="geometry"/>
                </mxCell>
                <mxCell id="24" value="y axis label" style="text;strokeColor=none;align=center;fillColor=none;html=1;verticalAlign=middle;whiteSpace=wrap;rounded=0;" vertex="1" parent="1">
                    <mxGeometry x="100" y="380" width="60" height="30" as="geometry"/>
                </mxCell>
                <mxCell id="25" value="amount" style="text;strokeColor=none;align=center;fillColor=none;html=1;verticalAlign=middle;whiteSpace=wrap;rounded=0;rotation=-90;" vertex="1" parent="1">
                    <mxGeometry x="130" y="360" width="60" height="30" as="geometry"/>
                </mxCell>
                <mxCell id="26" value="time" style="text;strokeColor=none;align=center;fillColor=none;html=1;verticalAlign=middle;whiteSpace=wrap;rounded=0;" vertex="1" parent="1">
                    <mxGeometry x="340" y="640" width="60" height="30" as="geometry"/>
                </mxCell>
                <mxCell id="27" value="title" style="text;strokeColor=none;align=center;fillColor=none;html=1;verticalAlign=middle;whiteSpace=wrap;rounded=0;" vertex="1" parent="1">
                    <mxGeometry x="340" y="160" width="60" height="30" as="geometry"/>
                </mxCell>
                <mxCell id="29" value="grid" style="text;strokeColor=none;align=center;fillColor=none;html=1;verticalAlign=middle;whiteSpace=wrap;rounded=0;" vertex="1" parent="1">
                    <mxGeometry x="220" y="220" width="60" height="30" as="geometry"/>
                </mxCell>
                <mxCell id="30" value="" style="shape=image;verticalLabelPosition=bottom;labelBackgroundColor=default;verticalAlign=top;aspect=fixed;imageAspect=0;image=data:image/png,iVBORw0KGgoAAAANSUhEUgAAAfQAAAH0CAIAAABEtEjdAAAAAXNSR0IArs4c6QAAAERlWElmTU0AKgAAAAgAAYdpAAQAAAABAAAAGgAAAAAAA6ABAAMAAAABAAEAAKACAAQAAAABAAAB9KADAAQAAAABAAAB9AAAAAB3bs6AAABAAElEQVR4AezdB5xtNbU/8IPl+Z4+y7OAnbko2J4iFkQQuHQEpSlIEbyi9KpIV7gUpUlHaSIgIEU6gkiTKtKLoDQBkaYCfwGxP/l/M+sSNqfNmZlzZvY5s/OZz5ns7GTtZCX5ZWVlJZnt2WefrVWu4kDFgYoDFQcGiwMvGqziVKWpOFBxoOJAxYHEgQrcq3ZQcaDiQMWBAeRABe4DWKlVkSoOVByoOFCBe9UGKg5UHKg4MIAcqMB9ACu1KlLFgYoDFQcqcK/aQMWBigMVBwaQAxW4D2ClVkWqOFBxoOJABe5VG6g4UHGg4sAAcqAC9wGs1KpIFQcqDlQcqMC9agMVByoOVBwYQA5U4D6AlVoVqeJAxYGKAxW4V22g4kDFgYoDA8iBCtwHsFKrIlUcqDhQcaAC96oNVByoOFBxYAA5UIH7AFZqVaSKAxUHKg5U4F61gYoDFQcqDgwgBypwH8BKrYpUcaDiQMWBCtyrNlBxoOJAxYEB5EAF7gNYqVWRKg5UHKg4UIF71QYqDlQcqDgwgByowH0AK7UqUsWBigMVBypwr9pAxYGKAxUHBpADFbgPYKVWRao4UHGg4kAF7lUbqDhQcaDiwAByoAL3AazUqkgVByoOVByowL1qAxUHKg5UHBhADlTgPoCVWhWp4kDFgYoDFbhXbaDiQMWBigMDyIEK3AewUqsiVRyoOFBx4CUVCyoOTC4Hnh12xTzMNttsHuO3GF75Kw5UHOicA7PpWZ3HrmJWHOgWB/7973+D7zYIHqDfPk63MlPRqTgweByowH3w6rTsJQp5IsP673//+3vuueepp56K8Je+9KVvfvOb55577v/4j/+IkhgGXvSiSn9Y9mqt8lc2DlRqmbLVyIDnJyP1H//4x6uvvvrss89+zWte89///d8wHZp7+/e///0f//jHY489BuI/85nPzDPPPF7VjQcDzqOqeBUHusGBSnLvBhcrGp1xAEYT2J955plTTjnluOOOW2mllRZZZJG3vOUtb3jDG4oE4PuDDz74m9/8RpxXvvKV66+//gc/+EER8sBQjFz5Kw5UHGjKgQrcm7KlCuwyB7Lo/atf/WqHHXZYcMEFZ8yYMfvss/uMV//85z+L36OEeclL0pxS+LXXXvuNb3xjrbXW+vznP/+yl72swvcioyp/xYE2HKjAvQ1zqldd40DI7JdeeumGG274gx/8YP7550ea+gVYNy6ZihzxX/ziF0N56viDDjro/vvv33///QnyE4zvkRm5bcznmLmjCJE2Fh6isOEfM80qYcWBOg5U4F7HkKn72AsUC24GeF155ZWQ/cc//vHQ0BCRPACuPaJJiAKB3e9hhx1GR+/3v/7rv4LgBFRV3YfqHrubgZ4S725WK2p9wYEK3PuimnqeyTpkqXscz+dD0L7vvvuWWmqpn/70p+94xzv+9re/jUoKRsGaKil+v/32k7GtttpKfrqYw/ale/zxx//85z//3//936te9arXv/714/luTstACBPQfO1rX2tqYvX4TW96kzEsR2ifpeptxYFOOFBZmHXCpQGPE5jy0EMPUZhY6vx//+//AV+B4y82IhTo5PQ999zz8MMPh+wWS4W0F9jrviv+v/71L4Ebb7zxL37xi6uuuoq/K9mr+1DxMejfdNNNYNdUQ87POeeccX43Sn3xxRe/8Y1vDJrmIj//+c+nTZuG+eMkXsx85a84gAOVKWTVDGZJwXDzC1/4AnZATwue0C1DcKhQgKxALljmsci74ivh0nIC/Z5//vkvf/nLF1988axkz2mLqYZTpL2p4eKVQI/8f/3rXylkvv71r2+99dann34668mcq7r4kaRNYLwqRsghOWNCjElHHXUUyZpCicxOchdYJB6pIhtNKeRAHtEQ/8Mf/rDkkktST2222WZEdSPH7373OysK7EHFyYVV3kibQ3jCX1dq0TKjIkJ+jFdBtvgqU47AeKx+B48D3RHQBo8vU6dEsEAn/8tf/sLiEH7RQrz73e/eaaedqEHiVWZF3aPwxpAcmSfgDOVNN90UIr/nPe/Jb6G8tB7pWzKeChEuMEDHKx4Iy5MT8sycOXPRRRddbLHFcmBdNvJj9ohZ9LdKGOFicnJlIffVr371scceu8466+RXnQCi5I3Rghs0MOw+L7jgAkqqnI0i8aZpixGapsoReBo/LRDZxldNA4NU9TsAHOgzyT2aY+Z703ac31aeTjgQaPLwww+fcMIJl1xyCdFy9dVX32STTcJOMSjcfPPNdDXw1FbSO++8kzBLsTDvvPPifyT369Vvf/tbWAwWX/e613kboHzHHXeID9kvu+wyuub//M//tFmJebu3wsmtv/71r2E6P9UHBwQDB3/5y19SVnz84x8Pm3cR5pprLnQ+9alPWVaVGVl94IEHPvKRj0QzuO2225Tiox/96P/8z/9EOxH+pz/9yXff//73SxtZzTyJR2MP3cvTTz8t8hxzzPGBD3xA/vnvuuuuyy+/XORbb731Jz/5Cf04yiLUEaEvElMOI8+YFhTqoqEjBBtvuOEGfpQ9KvXSSy+NJwIVx0ASRISL+cQTT3hUOgI+K6MPf/jDb33rW4XccsstRp0FFlgg6+jFvOaaawzJ06ZNQ/z222/H1SWWWMIvw1NzJkRi2oFjuIS+AmKIbcCRMY88lRs0Dmhk5XfatN7ltzGrwlu9aoxchTRyILh66KGHatlg4t577+U566yzxMTYiL/jjjsKPO200/xCCr/cqaeemuOcd955EbjQQguFh+wPMUVgpQ7LgL6ZwTvf+U4R1l13XfDku1dccQW4FB9uRirfpZTnxGf4KHDnnXf2G5uYeGTPW2MP5DKWCPHpyCS1ksdzzz03chXlioxRbeesRuR4azBYb731pAqY47Fma4+VOGeeeabHOeec03ACKAnaRjXhkTBTo0AXjaPICo9sy2ExZiQxDBiTXvGKV1AoGfkoqZZbbjnLqqR4CS04S8JZvLU+EaSMgr677777erQW7S0iX/va1zwatDxGBUFwIWonpX/22b333tvjEUcc4ZflqPyzIhUeY5VA46VfLmrQq1yolL5yg8KBJFCU2Wl2xZanNes5ugRHACm+Go7YBP3LXLpJz1sw8Mknn/zEJz6x7bbbyg/GLrvsshtttBH2eowI3/nOd2DB8ssvT5qGfY8++qjIQoBjFIG0aLeRcG+NED/72c+8ve6667y1/4hQT7yl3IDpUMnn1GNA8yc/+UlpJbEfdcstt5SKZCqVWra66/Fzn/sc2dm8AQWSaRjM0MxcdNFFom233XbiEH75weLKK69s0TWwVYgi2ARrt5ShwmNuLeEBlF/5ylckh3oyJg/mLh5POukkkbl7h8e5I488EkEa/5w83sYjxCc1U7b4Oo2W0xRQMAESp2l8pRDhRz/6kbcxiiiIEFOQIAtwIw/yI1fxVoj5hwjyDPqNCl55DHAPmnmQs04g/sILL0z8N75ijm9hr0C4b5KhCmTYSCNEnMasRk6q337nQKnBPXcPc+cbb7xRz/nqV7/66U9/epVVVtGN9dvdd99dRyK55GrISXJI5WnDgUAHuKyfh3grsuVKj+CAPyIceOCBQqwrZlIhBgY0RJx4hf8ejRCgHPDBIGgLza+//nraHm/hbIAvXTaakFHCGEjEF7LrrrtKDsWOOeYYj1QWOYJsUEcg8r3vfQ8+CqcwEQcKx9eZ+njMUrChyOMZZ5zhbbFhhD/esuGJtH7lzVKntc2Qix955BHJjTE5Qp2njqaCK8jaa69tjUH+RS5GCC6FVYyWnN9eeOGFvhLCteGBWP3lL38ZB/K3jj76aBEyuH/zm9+cPn06looQNAPcbSCIJEYj8ZHNFHj0FJSLIfyWLoTXBVaPA8OBkurc8VcDpQrUiJmgsd/QT7TOL37xi2a1wqMCHD5lak+yY8xArqTJpZkVUwQOhcq14QAe0i9jF80AyT2rPkK1AuupZYONUI+lCs01agDFWisDbX7wR8OAiAjqiGqYPA6n1AKR89vf/rYIsJLCF6gJlJaLyqVXQYGiJgJlg2BOdQOkCNQ08vBRBAp0r/h9hW1JADc7whgJQpUMi8XktBC/F1988Ze+9CUeRfD7sY99zK+P5iYRfvMJ4dQjfuXBrxxSbRNpYSsNeAT6eiT3mylEiEcZozDxoSg4rYtHsw3huCRanSvS5PfFYgSyPFKbb745fXrERCTrrIoxi/7gZw6JDH/oQx8Sggi+iSB7KNOVGX4iBGUDxtve9racsPIMGAde0LZKUrbcDzVHKlcLaOzGrBdplHU5BAc2suuK5DtK0hNPPJGG9+1vf7tomUhdkuqxjgOm/+wLGUHitp4f+GVST3A2Q4LpwUxctRbKHxGiLgKABJKOIZpU5FZHOYojgrccnBKB1gKQCec8ZgeJIjB+Ybo8xNvALBiUI6DprXA5oScRLQA0hgGPziDbZpttiK6yIYKhgmRq7deruu8KiVTWG+NtRIjcAtm6JHXJo3XJvJFA41xxxRXNI5nBRKlNNOvioxYuwou/z71J/6PIwdtMIXtyTCHFwKK/kYi3WCFLFqsJRjiWv2ImpAdlspVnwDhQOnDXYTRuvwcffDBJkI71f//3fzGdbKg3Ci9WQGrjs80GEQibJuymoqutthqFLK2x8OiBxfiVv8iB4A/FiECa7pBhIwIhndaCi0NgBILpAIU6Ch7NnyA7dYq9o4GVAknuKkvVUMJ4tLIX1YdIkY66ziE8ajkf4178UPaLr2YN53nU8UqIXzmEXBoAzTILnAikweCJRpWJhCekZqjnMfIgeeSWAF4XOeIEzfyKFgWya6L0MEoa4RphqLlytKKnWPZiePiDfjTyHDN7chwRinFww6u6vBVTGQs9qkojX/5oRKhLld9WngHgQL0sPLlF0uD0XigAoPUcC1yQnbCm+UZb9LboommKHxFgOlXst771rbDrqBpu+9rESYBo0UI0fLPIZkWUy0uLgfveYj5mNvIzKiXA5b3vfW9GdnqSAw44gPxLauanW3M4OzyCgADUd9EMhQDNvhCOyEyfw8bDRE20oFzMv68L9BUeypkwswmMi2iRPee/A3S6Hcp0hj20Rt7W5TweaYS8irXfyIOGZGmHeBtzlOLXG4kIiYGBRJyR3bqoIhStSEckUoxgUKFEMi4aYyJL3lqXznEEUklRp4QmyqNX1JJ+m5YxAjEc38xrQxUW1LziGvmcv1V5+p0DJQJ37Uxrw1CiEA/9ILAI4Ag4aMVrkQOndAmQAdmZowVmVW23FdMCFqnCcdv6JKRjnA4xOWpukvsuu+xC+ctMBQUcji2UmVrUVNQLSMJ2Ria02ACdCU0swDKpBpQUMkR7ySGyz6kjo7Wvg2DUjOKkbKksiob9BhUHoBchkCt/kUegZRWfNgKhLCSykX9FMEWgk6Fo+u53v7vFFlsUoxVJ8bMRpNynurFQzKpESY1wTEJxg8I9E2/MRqbjW/yU7IocRWDKwqOw7RteZDjohD84aSXD7Ie5C5NQ8I111g+sM4mZCb7vfe/zaH5gyBTBmlNYiwY1v3UZjoSmVl4xaY1Vbgvd6sLOYcmFZ+KZSOUZBA6o15K4mPiTpDREMpGOSlcIC0blJFEcOGIZitUXf5AtSRnLlo0wm6NGkLFQm2A7j0cG49o3cxT+7bffnj+mR8HPkBazbTUMis5AOcbDqIm+HshKS11DvYZsLHKyfdxggw2AixDIEguzkUrCop17jBCqMlqCX7DLSsfYALWBFOIoS+V4Fn4ROB4zgBC97777bo9NG0DEzHbu73rXu9DhDHXRhCTUfoQwA+Wvc5FcoAwPp5tl506qiOXo4FWOJmZkQ97ED2vL4LNJhhDFjE/Aa/YwQdNyMWrBh7CWQVDxZTIiWAgxRH3/+9/3GOZDiFjH9mjiy1/MgH0AoWQjxefNCmYJddEiG9XvAHCgLPMyrCTCxPZIE1uCpO7RXmCP9t34ixTRzxIf+w3qV0SCeGPMKR4CbmIRNXYwZi6Fh5bGMjUzJAYkNPLAguUcqTC/Zd0IE6c9tyIHbZlkACyCP1MNj0RLS6z2fx5yyCFGEfhFiQ9uIG/jDlWUVXpxhyqJHrzCfRgnqyKYGZgigGxSuUai+qAz+nJI/yNjnOomGZhMsJoHcznDjXUtsiYncuxQFQGR2F8qk+jAWcOGLwLQVsmFK5RsyKFJj4JjmoQK7tPFVPE5oxqYBq9RUl/BNCMl3ipmfBd80w6ZSViBAO4qgjWBmsKK4IMIvoKUR180gUBTJqMu7BugHbLlNVTtxVkChZvcGr1kzNqG+JGkmM/KPzAcKBe4s33W2WIHzZhZrBdZK9NPzGdt52PhF31mzASnQsKAnlzS4mPRHxGKIeEvhmQi4QElVh0pQEKfEIHgSRJ+2moAF4FChPMHHnnFY7QAYTzehikL3YJd+9CwWK3FDMBKqnZzDmswxTjxleJvMVUOj8Cmr3Kc8IjDU0TPugh1j0WajV+JkMYMk9PpamhRrFu0/2Ld2yCY81D3mMMrz6ByoBQ692h2BD0TzBVWWAGvo5mOjemBCKDBZpBYWc3wMTaCA5wKlHCN3T7ANN7yhyfzIb/NCXNIxBQeHr/MWqhoLG/CaNgN62MdRRKOcOoxnLcRGB/yKDyQPX+aSGvnVGgVRI4PRTb8ml44yoYen6o9zgMQJ6dt9GQKObfiRJL8CtnGhBEiDpfT8giPx6ZJRC5mWJzGEAwxKaGcNE0xYTJHgexWIwLZ0/eeIxIfQrBIM78N4sVs5Fc5wxIWI1T+AeNAiUwhaX7tqzY11qu1P4isOY6H3VYFYYrFt5izj5PaeHJS2rRthj3syhxrjFZ8G6WrC4m0AR8EbZplS9xOSrGCkslKWJeqyKjiK+2BksHAsNtuu9nKQOsSLSQoxFeMBBbhoaFA+mVaDuHFbxWJZ3/xKzkwPG1eFWPWMafusRiTv5FmDonceqQHtyyRE9K5r7nmmvmxFZEcIRPMIdnT5lWOU3kGhgOlUMtEs7byxg5smWWWIazRVxJhdGDNccy8plW0GkZnajbQST8f84eqhG04EChMs+z4LaoSR3RB4VGhDAqqEmhaQQHxbHiafk6zcY6KwQP0tzFGbJq2VIGU6WaxSi1XCk40wa6qAZeqjvoiM6WQ3APBdc6wt2MVZznOUhLhi8o1WvZouakzSKKfs8PjicfREqnij58Dqg9OOV7Rggp8p3CwlhgjN+JR9a2+ErUG0EVwo4VWYW2WH8HGhAQCuosg1dfVrdlzRZ5Eefu6UMXiDJ6/sTWWoYyTD+6aLNZQnhBYrPhbUCVum4oyGmN3AQW8LS67BdcilV+uKR8j3BHYcSBq+8lyUwpVYLc4EE3faM0EkHn7ySefHApxlWtE95W62hmu1dQqLIyDbBbfTAwN0hpGAH1d/MZ8xhcbw/s0ZMTy9mm5qmz3lAOTD+5RPJiuQxJYaN7tg+ePaSmPrs6KDvTr541QLgnobxTlhJAWbcwJizGqAFPdphR6yt/JJY57imz2M+nZUHFyAtNZxNth5NdB6hQO6k7erLLIZFQuIKOLEDnC7TBiHmOrkVRGAieRidDYDMZcQOMHsl0kOOaclDNhGJ5FZyxnDicxVwFTIIiGYBKz0erTkw/u+hUeyZ9mRJSDyI4ccKp1dG/hIjA3ZiNhw2qxkcEFChxnRbEaDgG/WEg99vOf/zwgkAQpwwOzd0YURQrF+IPnV3YrkEyw2Y+HgDy5ZcR5Z086HsCRZE4VdlSZ20Qpapz1yAH0nD2bPFn+MRcRU/3aNWptHPrbsgTc1Xu3sFjD85WhoSFtr1s0cyn63YMhWK3jmEDnMzL7vVBdzD/+sM1l0cRewHzUY+BYFz8xTlKTD+7BEcANoIERHjF4cKqJDdb6v7ecgwadulcsqmhs7IA+oY8NRiO4i6BpxsZ3CQ0YXJHCVPBDSTt0QGpJCgvfDTPq2rhrq6pZGiM/I65tOCorhEQgblFUxTlwmG2MkcnYrDYVgd161wti+w/+ZEmi6/T7naCtagY/e9n6vSA9yj9hxdYwxDVRSNWjr4yNbFnA3QxdD3ftgN2Guj2dO2FNl4MFWKbnFyW7YKVA+E7f4hFq1HE24MAWx5gxiUCSHRuP+jFVNDXc44JddfyZlEJFFUTV0JipaE7fUO8U6xGuohk4WXTNgBt1B/p7kWdjCfr5W734RJ/SDLbjT4dNKJpceQobzUl+sifnLfrCOHtE8CeXepzUct666OlJhxlt/oJBei95DY90bApW8kKmg4/ZHx5JgHsOzyzOb4PXRFdIUZd26jxafsy3g5an1FE16o6Hc7xMPlummEl1GtXa01E53xMQ3ypmYIr7VQ0OTJs2Lc5HG5EbER8bR4zZ6wgBC3nAjow1flRWjVvejqqB1RUzl7eE7acU4B58d42O/YcUWGrFAhqRIStbGqsn8zTSNkYgANqvaDmOoYU4jREaK3uQQqK8mJB3NpatdM9J8fKlMusQQfZnuV5nm04/PuF7vf5Wf9HHEPXiwBzZ5hmRPwwWHK45YrSeMkE+yXzEBb8+xJjC0aSWVShvtTdvOVN5GlpCD9GHQMmUw6wxRI0R8yY5OiadtO38I8af3AglAndH1rk3hzZWf6NsGdVw2pSJzkiisaXw8XZy21zT7PU0UMtTZGy0Akn4iseefrET4nUTMHqyYUSFqnAk+SceYB0oPzQ0lKW8TkoxReJEm3EGmQVVwnurJhThpsjUa1Tz3dWeIR7cjv7rkWuFDF6JbEXHr1Pn3BhuU4Uj6mA9gxbh5HRnuhmBnKBJjnT6rIVQM3tI3QZwhr+ZelM4FNhtS+Wx5C2hFOCOTThoRX7dddd1d7CDw1rVXytuSp55za+FkfqdEOvgMEkMy6Ml2OpD/RVOYLFdALhPerYDuxtXPR57rGaLkrPZo6dAfx5nyLOdEShV9G6BPepKDK4cnFuBe2MLiT7FbMn8b0TNDPlX/x0xWuNXuh5il7JL3KzizJgxw7EN9io3Vm4IPaDf8VMgfo011ujclpG8z+7Dmn/cBdb1/HeRYLnWGC2vGVQJU9pTKM46LGpG9oivOh1mQmZ3gquQurcd0hyAaAoe89PJLUsgu/vsHH5+zjkusHbBRc0x5iec4PZqN/wZfR0cX3N8OvRnlE9TcvLJKcsAXYg/nkD5rhdES+s6zcEgGL2GnNReMMqdKzyGhK4UP9MhpcWKLrL0J6y/KGy9jQhQIvtFYCzrshe2GMcdd5yDqpjYSguLoblfh/YQuoXABxIPUfKHP/yhY8bhuzFe8iDlF9lwAiVkvCcbOUJThmQ+iFYSVxZwxxrcNMw6+8mmFQw1VxLSIZuipkWWRELi6h577OGYWdUgZML4rmF3qW13WO6Ro2XOjBy1xzGg9k031c4/v7bkkowaa1deWXvoodrRR9fck3HzzbXllktw//vfu0rbHUmz2MgSSqe7+269ulf4Xh7+9Jj9oybfIWc6jDaqz6Opz4JdXdheh3322edoDWUY3I8//njo7C0nmg7OE8TJhW6VgdfA2pgE0M1cDd5EbOI2QKdnp5yRKks8tOfbbbedq2UdP8ViPWj6RTYcyvQw++67L1LxlYgT/uJvL/hQpD8GfynUMpHvqKTp06e7NNJ1ZQ7/UyVtdGFSSRKp/AZzJWFys9Zaa6FAdx/VPwa+jCEJWI9mFrqF55rcGCh1M0nnA2Q3v/pCWsEKx6XMnJmw27mN++7rtqYancwb3lA77bTabbelBG4Q4v/Od2rW8GxQ1Zv22ccFQ7W3vjU9Hnpo8mQmv/ALY38qA3/Gnvvep8Sf9rAVHbCYkTHLN7nL+CKy+r5lM8BK1IPXTC30bgu8hGi7E+IWF1udnVnCasCVWDa7ma/DazoTFOA79To1r2tPTOIBi7OJTOXhu2hGDtSo4+2ks9HhlFNO8QnDA+sp84MLLrjA1y0h0CWgkzXsGW2K5S2tvyySOwZlgDZcqxuHRFLkqQCvWrUwY3hMl0QwMpPZXQFsx5Nr3pxhEDQnhvUBOg8/XHv66efVCGNu5ePPc7RCDNFYx0+tKxRiGjZ8C5Ab+xLJv/89/b7mNbUNN0yeAw5wNWhC8Msuq7mdlLpmp51qW21VW2+9JNRfcEGK03Vne7OW03WyA0AwmpCtZFYj2xSnDvoB9Jj/6vqLeuHcOeUWKs34DW94g84uV9QyJ5xwAsSXKxhN12/V13TfDeDA2pW20EA0oCwtezm7oMl5sMLNXFK5y8VqnGs4jRwxD6B10QwEur4RpkvoTCq3wbhjlqAJguJbPldX2DZsKcOrEknu2KFKVAzmum/Bqoj1EPYzsbNUveKst8E1fs6Ey+xJCI/KUxmudXZfcGxlFCEaaK8ZHchun9qXvlRjVT9jRm2++WQpfXYSpXjFNycl6UwYH9rzOeSy+A04zf7YnxQYwu96ar/PPJPo/eIXNevB227rzqaa/VgSBrfbf6vzt2FM1Xn8qRNT39FyQKoid96Ezjyz5ppYjf+5njoyw/RgIhG93HvfW1+5VCIMmv3q3XBcZ5cTFIE13OexcZ2Ohd0EsV1Td9uPgwJZyESehYjmIgEHiYOIoWGzKPIfbTu9PFFdfGhDQW+btPPGyenoEC4p640oPsoEKIaKkYtRvhjlAnf8ifrzaxRlHOkaGgsjpk6G1kakng+IDl/cbIg+88wzzadMr2LXUufNsVuVAo/cU+/u4oUWqm28cW2NNWof+UgyBeE09OExqFuf6ogOdhFD7NFlDzrx3GiVxZDO6NC56P8WWl/2siSwu+cZDyncH300GcwM1617TdOi66231uaZJyF71znJrKK4G7ZVtqdgeLQZy1dhStiqCdX1yp//PCnT3v722vBJ2yOzzQD/pjfVfvOb1FnqwB2q6vX5zAnnTZH2IAMnM5AXdZCt47vL16W14n/605+2oCqCXNGSkwup1EnotOoW89h0Rimoa6Qlj1PgiAnf9RQhzjthio0CcKfGoeBFRJJOVt3r+DByyXsfo3TgrsjYhKE8tjUBawoyZ72aizlT0P1qxtiIIA7uX3HFFeZZ5AtjgBFbPcVIO5G81kDll+C52mq16dNrV1xRO+yw2sILJ7Xy6qvXGOwAL67rwJSItnDRiDVNcgpwbxFrEoIZp3zzm6kbc+S73XdPandn6h17bO3ss2tXX12be+7awQcnrJ9zztqNNyYt/LnnpjFyWIJMU/7uOreITJs2LcTA7lLud2rRhOyToJdoo5mJaLmwNGk77piqKUbxHN7GI7KuETPdogyEMlUJtKWetaC61157ac9MM5ktggJzdCHA3Q0wLkOH1ybuer3uv/LKK/sFBZdffjmNDaSWhIqSnwLAXb4bb7yxhBTryuUrDtfzK4fQ38XLRhGDAZndtTBOuENKI4kIbUohwkRiTpuc5FezYDQ/l8qT+WWMdTcmIZSp0913320iFgjuIBrVbGad76fPSSa+IJpHhh5iy+WXpxVCWoXtt08Q79SyaLjFaL3LZPBBi2cDYL1oEtnSxTL2gnWW5jShbD7Rxdz2O6loMw4Osw+AGVv7JkTMAqbAkQqHeDbOsse39HpLoACdkG5tk60LlI9TTgnaRLoPfvCDIlhxZVFj1k5ClxAaGK3hgwGbzTu7an4h1Oi33367XzcCARMyu31Mzrw0SNjxRIEj84pgMHP2CXOMGAyEi89Q0vTO2yiXAcZsxvDgkc7A1lwrfL5ixjDOgnc3eRkl91zCLKHjIw0Mt/zyy4eVqzhYid15tAy4z4+ZyIR5AtmHJYAkZn7mM7UFF0wrhFtvXdtjjwT0q6yS1MdZqMkjQU9zqLn3lP4YiEeOiuzKPEEt+7MnfyKS5MeueErIn66Ua/xEAmFH5E9Ey58bT3PL9RsdX68H3wXKzzJ0iWmoyQSdrVdkF6oYHrI5zUxENh6gYEggs9POC5RJgUxleOjuwbr41lE33HBDMWlvRAYsMEQSsE5UpySI1T7JqX2CyCTCSxRtVL/lGmoas46boWLDdxXDT/+F+xxpy1vhnIRelYH1GmigklZOmbjOOrXrrnNFXM1WWbrj446zvp8i+JPr8fSERl41DcG0puGTGBjFjwxkf3j8co2BOaTr2Y7G03WyA0NQ+xltE8pVOVpPkWn6su8Od+5ZPzlEtMgSOLbL1NKoEOhMnOeI5EFHfEqYCAy45xdCFWNgGBoaYmAD7hER7jejB0Mae52CZnwoGkmOEPTL/zv54A58ivhT95jrCXbr9c/tR8Pz5LwVPvyqOauL1FqBaavw5hQ7C41mHeWyuLTZZrVf/aq2/voJ69daq3bRRRZzkpZGtIjTGdVRxIqGSMCxJCVZ37XLURR1fFHjZOnx0RjM1NFmSMpsDZWwVRNqFT5+pqAcvTt+Iw/Fzg7QacY18vhWRCvmJ1OIwEhruu8QdmoA6qZAbeERISCFzE5Z71VeiSl+tFW5it9tFWeCwycf3AMHFTtgLj/WMcJbr4ZrgXSHk8nVxWl8DGpBOcC0MU6r8MaYow3xdZ8enlckI5BvfCOttRLnl1qq9vWv126/PdGLOJHD0dJvH19LNbmhrIwm2z7ylH1rKb6TrjsF+aN/aTmUy9CzTRNq86rXTIO/tiyFKYtstMqJ8ADxyI/HEOezjJ/zGRQof2jeI0krmjlJ9nQeMyfptWfywd1GRGIsu6bAakc4sEqKWz9BXvzBR29tQ585s/a73yW/+PktHmU/T3ZSmaIhGJSPPz7thamLiU6cdhIQXEye6YzH49NpyjFsKsNmxp1ITEFOOSVZhlhiPfzwtOFeHH+RgfF8qy6tzhlLUtFL695Wj8EBi2kEwIobjRyAVlqOBUkLhm2akFeNabsVEojpNzyNZPOqmxGIvzGaEOFZug8KhvNwjQSFBJH4Fa1pnL4InPysO27dIZ3OkOIefzxpMOxOZGrCBer5DQ6zorM6EkvWTJ7z22LMaGkBlIaNNddMMBoOWfPLnCrHpBC38yI+EYGzEnT1H/pGDhmTh1VXTZqZb30r7cxkGq+wRqCI0K3RJZomDaOV/a6WY9CIMRUtinWDVrxxlCeaEIMTIkIbMhGtTYSxvQqyMXL4DQ9SwtVXrjL7m6jLhTu33XanjO85GnSmurHuGgQjrV+PXPEx59O3KGSQQpw5TQ7vO8/kW8tYYOS+8IXaCiukM0YIsxxZCt7ttlsS6gm8dpwtvXQKfPLJ9JYD2VddlZDaxjZvLVqyS2EizfRwo41qYdh90km10093YH/tmmtqX/5yOkXWwSbcPfekE0scFWAlZu21UypGLLLhbCJbZj73uWRVDWS7DvQI+gv4ZsS9zTa16dPTWuuii6YZCQ4MDaXsGQBipEkP43OaaSf7L8b3kf5ObWW+vwvQ49xrPxMvvYJdTRdY20FKrwidHQZAFR7hGehBMPy1WIoHTiuxs5TJJoHGI2jOGnP+MFtUkNwdYkjwKvgX1jKRJExlfMWs5ZxzzrHuyh+f7jGzu0x+8sEde23/WWCBBLjU0CBv773TXkQ4CHPhnUNFllkmgS+5nlnhpz6VzoZdccUEi8ZsyPjLX6YNjbZOWLF0jbZzwMMFxNN+OIaQAa74Nj1+6EMpzuteV9tyy6S0QUEGwD1rxRtuqB1zTK+QPdebcnEQXBk//vGao1+o4J1bYChScP4YWsSJmDnh2Dwa5dgSTpFUFX9aVXRg6Ij8iWjPE9HextbkNPfnWnwgKeB2hsxVV11FfP7Qhz5kDsEUHfLefPPNFpPsTmCBLvyxxx6bNm0ag/QM3DCauQsLdLjPoIDlu8lHjASOmgHxtDTCEUEKvhtF2M8wgmQsT4lvX6TjaKJEw5b7zxeuja+eD22iTtSryVfL2H3uAFiWgqDZLmSbPDnNg8wOzaksaKU5fqeLcAZmQjpMp8BZd90UcuedSbHD7bBD7ZOfTNJ3qGVsaGafygCR1M/w/LWvTbui2TgZQvbcs7byymlvEXHenxMHnVpFcp9rrpT2uTaWaPbIZS2NUUcpbK8nxZu77LprYkK08yjFODMwYuccJ/1+T54n+P1ekK7nP1qO3/C0ol//Vsse259G/8JRARzPOeecYNqxjuxbYDHt/+GHH850ndztaF9ZAvEXgoNazcGQxbUTZ4TZwSc5Qd7q6A9+8ANvTzrpJFufzNVgt0CX8DnXBKAj61RhI4HhwVqrjayGDTQVrUizFQcivJ4P7WNPyNvJl9y1BChmswJcdv7fm9+cyg1wHfxNTrf1PCRxcQLsCNo07w4OpEwONYvN6/FquEaeR2eCOSnYqMBpNj5ETg+7qTjLgpLHqEDbQxXjtCNG6IYHnxZ5AvA9EDy+RUHkRA4HWRrbHLFCN2VAsgMuWvsYMhNyhNnoFL+uJNV9W8ckLibjbWNNxZfRhBzHGJqrVpJpfbieSRyLXtQh2/RMopxNSWSrQt9DOQRwoGzXqHNHnN9rhyosZujiUCAbVlmygnswvcoqq5D08wfJ8jDaL9HennbQT3h3WcdBBx3Ev8MOO0S23cTkJBnba40QYJ2cbmeT+6Ri19LE66Ny/rvimXxwd4bUqafWDMMu37HmyRiGg8tsBzl6EoEc+A7J3S8J11vHj3DkfQd1aVHc8MrK87hs6dJy5aabpnt/HPbi7W9/m9rP976XVO3+WJ0fckgKpLoB6/POm04idNoJNWyhjSXKvXMhr/icMcxCq1mFLFEcsZu0TmCqwY0tM0QJU04yCE99D+xdefqNcufz7n4r2Xjzq81oOXGqTJsmVP9KTz7iiLF8mwD+QnA3qTK0rLbaauRrx8isbqI9fB6kw2GA+/Tp043KtDHw/dJLL7VPlWo+9iLJkqs6HTZAY24p1dkAde1fNHE4swE0Y4tTjPEOnHFUmfA4UKGv8X3ywZ2yG55SQAeI058Qq+nEQTPdOrNIqAfpZp89GYlz1DJUGVZT42RB8UWA75a1JeFCzg1ApMs2EnB0Ms5r9EptWrokF1uGIRqT+oGpr7sggsCBZkwCUpqJcnIVEO+DthzRvFM6aclWg11qQftnsiJXEa3DTGm4GjTRhr5SZ4jHDtNOqWjm6dSveWFtSpW9fWGjzRCQbQUwBHbahHRmh4cRxvXADp2WrX0Xe+9wQioROnECNVt7ahn6dwju/F6obcihagf6IjoqcrPNNnPIoHyKDI5lFawPDQ05IJakb5AwAzCLFd8BZG752HvvvddZZx0Qf+/w7Xo+ZAKHpmMJKNzJ9c77NV+RxIDRYSFKGO3FM2fOnNxsZQvFaAzAF3bHoqKFVqAMu+lbfv3rZCS+3XYJrMWBy6L5i/mfR3G0qOwCLsngEQ0++hBSvgLKNSSUhYgW4RICeoMK4jEwZFIT45ETfxq5PJtJOIiGpohiChMINJHVUWUMuJuK3nPPPSanilAnvExMocr/FeA+NHzMd/mzOsE5zOBOTUEl4utNm1AEEiOgajJKecUrZtNktddR/UnyQn0osgg6CcA+Uh66FCG2yzrvhb7lmWeeIbM7BUyuLIFC5/POO4+E7hGUi0+TzghYth347hgZa6o09ZQtXhnIKXCc3o6yw8gMAJJ4hPXrrbeeKYJvSR5HhvFLW1d22nwlDamf7t40opxdbPIl95CU4TJo4+BXQFggXQpKrSoZLDpqEf5qPyJw8euVv0hVBPdIFeHZX4ycSKTTC54XiiMnESfeTvyv/MizPDgo+MAD07nB1iGsKhOGrA8Ll8m6YrbJpP4QTbBNnCn+KptYTHE+tCq+9gMQW70VXi/RRy9qk6DVq0LH026RJUovZEo+/AkIywkE6IHpQUYID+GdHaTjeWnePYJpJ6FGBH4exjBokt/BOg/QR82xCiwsCUAxPBDYJSfCw/o4r0bCzrV29XyIz0/qb7tqm5iMaTnFxqOKPfrl4lU8wvTXv34WskcziLcRM1I1ZjjCg0L8ipMDhcRXgkiRYCOpCQuJzOgj5iLU7hRQViA++tHaD36QlgRkMo9YnWQpWn8nMadmnIo/reodCHo1In8i2vNEir0relSHv9HunyOErE/DWQHZnz3CI2NC+I1ATu496qij4DvBnKUjyOZoaQj1HOHaL6QG6Nxuu+1GJI8IZHAe17c5dWCDDTbIn0Ofiww8l6k++z/5knuHDBseoVPcF7aBDlP3XzQ9IoR05waz0bQgbKnAJi93PA0NpeKEgD9iwTTQEeNM5Qh93Xt7WnFaToBp+yYU0XqRE1/ngnL2Z0/+oomFSiR9H3PMMS5us0jgIN+wI7BSGtkThwhPdz99+nQJ+bmkRKpRft4fx0O6qw9xpIozlZyB/Ln23MjRyuCZfMm9Qy6o5eGKTmNpI3+FNA3vkHg5o8F3yAzimYcy5jnjjGQu+dnPzjINwo1hsaZ53qNREkaYgonR2EabJ5t6oSbs1Wpq02qPNmM1HiaO2IRyl5yUlhZwbEHVzU12tK666qoXX3wxDYxFUVK8XxE4mQy4V+OEffYw7N+trLp9adtttw1rGdGaciMHKmAubA4sp6dvMoqh3IisFwejJ6WF9a6CQ4RH314nu5zcPMcWnt1krA8Pl7d3H68oT10O6E3RlbKnkRfxyhqjfZ4U2SAy+mBjzF6H+C4c9xUXLbnz2lL5GmusQUHvEiW7T4UrC4Gd/Zg73dyjffLJJ4vwmc98xtqpcHqbGADa5FMEY4blVsuw/Ajmm5jasKgNwZ6+6g9wz3MlA69FcFuQHbhsnRprvFKjzp0gojpZghMYzWuQID6UK6R1xzCw/d9223R8wle+0tIQPpoaowLWMvPOO28JW15Pm3XnxG+66SarZ5Xw3sixaDNxBR3hfcQmBNwB32SBu84uh0pBsW69lN+RcK5XBRc07zoCoPBWRTP+kUl3PFHRUOYIZO8oQqbQyIoIyRGkMicOUMrgnjGqVfKJDy+7zj0qzCCJ+0xc7VaAVksttZQNxNkayWoJa9YjjjgC3Ltqy9u4UrWE7B5zBQ+rpJIexuDl3m3HKtjodO21yRDesTyhommcUBJGbN0e80enQkKQFG1sKhR2VGXEFnBmO2ioZUZMC/LEDAwdMXJPI2j24JulYyyQwm5X65HNfZQgyCYSNEcGlFHkWGXtMEsodxhz0qOVGtyjeeGRzQX2HdjIYJcaOdTwC+6FW+ZWN2GE63pV+xro2nbaaSdj8owZM9i3ZgqTzuiuZECh4Tubfeem3XhjOivN0WO2BFLEM8/P2pv8LZ2zkkkzN5p6KlPRpmzJgbBMK8qPbTzR10qCfTKTs2rI4fIjT347tg7SL6gywupBkSMT7A8OGm+PPPJIyx2cUz1tatB6ADpYlx+g7/Z6HjMv8enOWLyyiBLBrmU3o6u8XJETnP8efQ6+a7f+nHDpHAU3OjmznvxuE0B+Vfz0gBW/WLSu+MsgaXalID0iov102IQ6HAN6lM86sjKTnfyr5ew85ld1qfKj/kVUKgwQ+U3ySP6C57I+lFRyjwqA7HvssQfgPu200+xocMCbGgpOBn8BfZZMATrnrZibb765YcBSyYknnkijKlVI+mWthdHlK6toWNFsv31tnnnSITm33JI2OsWBPK0a5eg+MzVi90tHnfjaCM74Dc/EZ6DNF7VwfzpCJzA7hiJ0SLmYwxJyqYySeyA7xh144IFYZscBvAbxMDrqqZGPOZyHCt66q7MmTjnllLXXXtuJ+5A9jwrF+uhrf6hoKA+dgHbxxelCEifdX3llKpOmSTrhoZhi6jcc0h+yRsr9xDonjWT5YGK/XPavRS+jBY1Vx8ZON1kFCFjX/ofb+axckPriLyQbvzmEJwJzSNM4QSgi2zboPMHHHhtFEaHWKGJPSNQygnsU3PFsTnTbZpttQDNk99th8xINo0G8A6EOPvjgr371q3HwRQm5P84qDj0MIg7V+MlP0ulpjitwVaymGdCPaWEcNs4PDXBydtAdtqsBZkKbojmeoSRq9MgkCIXpbtdxOIdDvwPfBWrw8RchfnMITwTmkKZxEAk63rq+bWgonVbLCexTVzq1TIjtVrftJ7bFII7PB1Kj4m/gOzUO45mf//znDFrtUxgVhX6JHM1UbtnP0Ly/7W1JkHea5oYbPvua18z25z8/c9dddzISDa72S6EmMp/XX389q7hKeG/kebQZd5MyEie8l6QJgVptnljNFNjhqa52CEQW4uJMh485V9XOUwpad/hYmHNEoEM7HJ3naDIRHngg2SPQZHpkSk02F5lBGSM0N19y6MQNEI6bHd7B2siYvgkpHbiHGHX88cfTm9t9QADvBNkbWx46oYpx0hu32GKLDQ0NNUbrm4pqnVFtnTOd1Bytr2q4M2Yk0WbnnYX8+6mnnm6dtHrjVt4ntYqKEY0ciM7CBDmMCBsjTGLI8F6lZCHGEfxYjn34w7Uttkg3ZTrNWy+gqHQ3J6MyJ4Hb+qc7sDhw76Yr6R22CutJQjffnG5gZmkWErodJKa8BHZ7A13TJn70rEks5jg/PTqJeJwfGzF5dDOmx+5MmT59+ojxc4SmM2uBxgZWUCzfHdOcIw+kRxOH72QNR9C4nOSoo2qbb04F/2zcPFXBV6tKr2T2VpyJPtW5OrQVnV6ER3setp+ouafzyCOTzA4wXH7ArABqX3JJbZFF0o0ItvtxhoFYjnICvGiu1XSQu8PAuW9+M0E/5zdAAvo7WpwbFbg3haBEZfJcGcHdTqVlllmGXaN10Q450174Wm655djbxGmf7WN2+LlyRoPv0egJLzfc4KYO123/5x13zC23Af3lzPbk5iosrCY3D+X8evQU098SdpmA3RBcwLpHLZwehtwN3Mn1kMNEVqBDwjnDQFzTJo6TCJzUFHG8itt+ePQdkjvnIPrA/VGBewm5VC61TGhgnC7gSH5c1rA60cmI2WbYRMRZQg4VssUptjulChxQpzkGvjsuzEWse+31H1/84pttqVtttdm0ZqK95l65IgeqTUxFbhT90afMbDrsg8W0vfYP73Kpfec76R4bTdohAnFlG6DXzt2u4Yjs/fdPupebbkp50QVcU8yZ2vrTR/xKwgH9wH2PtgRytDqB8pT1fe1KBO6GPu3JoTz33nuvA32wtRVk50Eye9rUAY2h3cZWVp0iMmRkH3QX+A7HlXW33dIyESt4+kQ3DjogvsL3uvqvTCHrGJIfo/cxhQxwb9UZc/yJ8WjenFZNFcNvegq4WUvQsF9/fWrnbrmxWEqZ7nw9jt0LZwBgEkwzA+vZ2NgASDZHhPYSyhsSDj44rc2ySqCsd48xj/guCOLii8nXb6504O4ic9doOf2n1XxZU+MC1rPYFQNDI/O1yFhWJbwzrGyMMJAhmqM/4snrX//sZpv9a/bZXwrZ3Ty+zTbp9GD4HhEGsuyjLVRJMGu02Z6w+GXjTzRsVgP+io4I/9zlSymYGQysF7jXXul8PboXjq3w8M1Oyc9BcH/hNt00/ddlWBUP39Y3K7yv/5UI3IOPsLiNabamRnXuMCxo7uAwR3fapyPhiE2QrW4JF/1713RitHv66b/ce+8d6677Yfcbr7LKbFaK3L4dvUI71k8q51S/D3/4w9WyamNLiCbkNmonbZXHFFI+A9814OyiJecQcjrBnGZGyHnnpfsp6WribTEOv79QVGaJhyd/AtnO+8iIEJRzO2Ge0oG7khPMm5ZfayOqOzGG/TtNCxP4K6+8kjm8yNEQm6aKQKwvIffbZLhLr/79xBN/RoppF0sAhjQMv5wYTCMfPaTzttul/JSODFM/jad02SpBhqJPOcSphFJRU9jNjVl9OihMm89OSLzNcbwqEsmQkz3FmJlOG8+IENQmbY9elQ7cQXAcCtZYYK+0M2utM2fOxEp7C6dPnx4WNSMCdyslT+NXBizkpS+ddUKpSevZZ9e+9rVkEXzBBQxpUuOuVPCl2n5ZqrYXfQp/Ruxcpcq2zGjY0DwP2UUQL1tWe5qf5jJyTz/Zini0IcoWlunwvan8DtMJ7OkEz9e+1oEzcVNiK4IRHmQpc4qXprdPMjBvsStGNSCurb/vfcmExhZWtpI/+tEsZI956MAUebQFKaFYOtoi9Ci+xoOy9hOeHn2lR2QBOhk8/vinpisRuEcFuErJmTAuwWolL2hqOmT0yfiVsFX7E06d6mgaqtWPfexjU62ODZDmN0odwgscf/vbk32YnR2rrZbsDZh/6QBTGd/jluSp1jA6KW90QAtg1eSmE3aVME6JwF1jCssWNuku92rDrIz7jZ7GVJomsf3qq6+OexQbIwxkSHDGarPVQgWMx8BxlgNu+QDxtmLvt1/t6aenNL47GrpaTW3aBaLN0IKaJecm1DRmFVhO/pQI3DODFl10UVdwMHingWklkte1p/bRXLjqbHc6nLpUA/+ILTFe5pIGvtuDt/HG6ZZtKL/HHsluTHjWUebIU8HTvuVMBQ60L2PFn/b8yW9LyKgygvtcc81FOWPPURbMMwdbeZrGxG7WNY6XOf3006dPny4tpGsasxXZ/g2Ppuas45sdtPFCtVXgOG0N45mzzkrg7iQNh+FR3cD3qQbx9HVTdrG9ffOOJkRB6g7SuibUPmH1tiQcKBe4Y0pIms5x3GeffQjvVH7jGRIpnX/84x87XfIDNq61NrIsSWV0PRtY19T0KHAcyq+wQrKcsU9vq61qd92V8J2bUviOP+NpYF2vsvIQDLZYr6oGv/JUyqhyUjpwB8da1bvf/e6VV175u9/9rsJQmo/Y/RojGCQMDPfcc8/uu+++0UYbodMYZ1Sc6tPIrVbDAt8Vik3k1VenW/rWXTcdnTrV8L0Vf/q0uruebfyZIpPdrrNu0gmWDtwzR9ZZZx3LqmeccYb1rhHxvdj+gDjHSsRG1g033NBdfW984xunjkImM5AHH9qIXRnfF1ggHWnt+CSLrz//ecL3/KpIbSD92eBqIEs3/kL1qSnk+As+WgpFCBpt2h7FLyO4YxNUInfvv//+bu2gMYfvoZ8RXmSEmJyQCPcLxMn+Ij/66KPrr7/+pptuusgiiwgXWEw4RfxKHccztCpvgDimzjtv2rm66qrp8A1nYXNTBN8dFBpNqBWLpmx4sIWpaDW56aQN1EFTJ0l6HaekkKdhYZbTvo444ojzzz9/xx13/OMf/wiyOeHhsMZFetZLeSJEKySwW0T92c9+tuyyy6677rorrbRSrzlYTvrRMyG7O+TksA1+AfHA8Xe/O9lHfvnL6caDc85JxZoK+F4dLNOqAUebed/73leZQrZiUcnDX2wrfzmzGPjuDBkw/cgjj+y6665sGV897AjycR6kXwOAcB6BxHbnHBkPLrzwwkMOOcRprooG99tAWznL3q1cKTu1A86MSBCO28rEWNRJp//8Z7qg0vnX4D5Ma7wdVOf4ikqt3KZyyU/mf1ybOFPzVQALaCJfTps2rYQ4kwTkMtdNZplD3o877jj3eMw999xufH7/+99Pig/Y0v4oYa655ho6ejdrr7rqqi5yChv5qQzrym73ltHO1tzMxvZ1Dd/14j/9qXbAATUHslHUOFffadcR3j5tn751f7p9TCEr9GkRepTtaDMskp3bYV9hh02oR5kpIdnQADOldQ3v4osvHo+lyufIMt3kZjfkd3lg/L7zzjs//PDDWtv999/vYMiHHnoIgkN2khchnbEjWM+z7BLyeuI5qUMyZev8u5A95Pett06XxLtoW2rm8IziBxXfR8Wfzjk5ADEDzc1sdKUBKE6vi1BCObLs4K5KgmuaGv+bhx3PWmutBdYj0JwxTgCO+suB8dgXv/LMxeS3u8PSaFfDAt8dks/y3TXwjij4859rG2yQ/AOJ76PlT180py5mstJZdchM/bds+N4H4B7MzRAfINh4G2pCx2F8LBuLR2wcsi3POdsgPkJGTDhiBHTamEK2Sh747vox19P4DXynhX/1qwcQ3ytTyFbNIMIrU8j2/Cnz29KBOwHdnxW8pot4AYIwq5Gn8aoxPOaUsrNKCAAAQABJREFUAKvOtQqvi9brx8Bx0jrl3UUXXTTHHHMsvfTStJxdwXdiV+Mo2EmJAt9pZtzP5xYbd1QySnIWvCOkBkx+f+UrX5mH1U44M3XiBFvMiTtZkJ86bOmjkjZg3mTkPWN1wDpkgew5sDFHgeN1v43RIgS1RmT3qlV4Kzo9Co8uZAnhm9/85hJLLMEaCLjHicfj0XXmnjmiKWSrcuEPHIfvdO6nnJKOoNlpp9of/5j4FuNiq4T9FW6RptLMNK2yaELO365MIZvyp/yBpZDcs5DO4x5nmyQXW6w2++wvAJEAaIgfoC9mDAB5DIgQHBfCHx4wdNFFyd4DwZzWK9SuuSbZ/H3848nvVdBPySbQhXjuJthzzjnn6KOPdi34/PPPT5Y8+eSTXR84fv0M+hbExnxkeXAGM21uOvPMmj0D//hHbbfdanPMMTjyO/7EkfcTWO399CkrWyT3Sngfsc5iLBwx2kRGmGjJPbAYRuy5Z23FFdPFntwjj9S22SbdEHT33QmX/YJdDrjkv/Q8vK0mQgK+/eYI/AHfPMcfn24953nxixNxR9oW00rCffvbtc99btZIECEpdGId8PXBu+++2ynHkD3042RJO7acnTCevATlpqdCjopscFUSlXX++el+D4Y0Dz2U2D4Y8jttWKV2b9okYuJoEhlNMVpU05hVIA6UkD+TI7nDNHvcL7zQJV5pvztRfZ99Uguxaker+853pnU8R9X6e9ObavfdV3vXu2oLL5xUBDfdVPvFLxKsOAXFFqXHH097Kcn4v/pVbfnla+95TwJrIrlxIrTDq6/OhnLWUCGyLz76aKJJCJ02LVmAOFDF/eiAlHD68pfPwvoJa6wx2rsP4dvf/vYqq6wSFwFefPHFc845J6yXjXGKAxocyWucxQl897vMMqnWFl+89swztf33T5c6qYjJGhfHWaicnOSe/ZWnyIFoe9rPeNSDRYKVf4I5MNGSey7e616XINt+GehMfrdkx7GnfuCBtHEGEN9xRwqkVIHmAAX+/uY3tQ99KP2SHKlTXNakY4rj7Ei4HygDg/i9dcSvlUBYP3NmigDEd989UYZHZPm//CXFd071D36QZFI5mXhkV179B/7aIbLBBht89rOfPe+88xyEyX3OnKJLskCYVybmjsNl+Z126/LLa6efnoZhgy4eDs89xkF6spNWCvdWNRCiqPYzTgmjFf0qvNccmBzJHVgA6E9/uvaRjyQhepNNEkYffXRCCvpxDkAT3jmLeEDk2GPTUh4Pt8MO6ZX1veuuS5p07itfScehcAE0hHo0b7ut9tWvpkDiuSHBYeV2XRLSP/nJFMjJw9lnp78bbkgRJlcIXWGFFRzicemll77tbW8788wzHaiga42/UyEyBlPI4E/db+C7X1Moc6MFF0z270ZN06xgu1f96CqdTPtaI7YHyrePVr0tIQcmDdwJfS57Gz79JWEx1QpXlAQDMl760qS64TxCfI7QHSHEfPE5dLhA50hFb0AbQVqncxdHfFI894c/pF+7LpESDpjuuSfdVvG+980S8yceoUJ49+tGES7lb1hmHz+yo0MsZX4zTLILPxnfnT9jOrX00mlzE3w378F2fxPPvfGXyjjaFVaPPydloxBsYUpbnc3QSdWUsBVNjloGEFx2We3WW2tzzpn0MEsumQCXg8ihIgbHQJzjiRB21vPNV/vf/60tskjS0nCf+MQsNGncYE+rftJJSY1OYJfcHRRg87DD0n56ae3Neeqp2oMP1t74xqTE33772te/nuTQAK9EemKdZkE4ChGJhxt/QwkKjJTjCqrxEwyWBItUnykX/TvTJqdIWvAIWBfed26++earTEGa1lq0mfe85z1dWf5p+olBCtRty1acyTk4jJQNEUjlhL5wlO+MZOaZJz2RpoXDX8px54w//XTt3nvT+qc1UqK3wQAb3/rWtC5KQqeaHxqq0eALDIhBAbX770/7buaeO5nK+JwDDgnyd96ZQNzeeo9own0yu+tDH344hVjCLBKJjPX1rwHD2SkgvruliGaM27/8ZW211ZKWjN7MKZI5vLuf6yk1BkVMRbs1+PU0q5NC3DWEceTqpHy9zB/VuSxIlPngsMkB92KddY4IdchbfGzlzx8qRsiBPMXwor8Ypx/9If4//fTTt95660ILLdSV2UCRD3jFwffbb6+ts07yf//7aSTm+ouNl19++cc//vFK85Bq7oUuwOv6669/+9vf7sL6rjehF36t/57KD+6To5ZRk6RpfxyA8AcRPPqt84iQQ3K0iJkfReDPLodHNL/+ioEeuRwenjoimVq/e7q1oFrHB/wMlpr6nHBCWgYnwlN/hcPMfnE94k+/FH/EfIKwEiocRsx2FQEHJg3crWfGcmhUA6TwGJBR9HibX2V/RMiPItS5SBLR/PrLkfNjnaeRSB3NPn3siilkq7JjGhyn0XLyuyVxBpzXXz+rEvsF33vKn1Z864vwUFVVppAdVlYJNXuTBu4dsqyKNh4OkLl6beoH3019rJGwZLU8vsoqtWuvTVkO3B9P5icmba/5MzGl6MVXQmCvNjF1yNsSzm9KAe740t614q85dTWtbsUc4exA4tSnNnHG/8ocCL6zKz388ITyNrIylOT6At9f97rXlVDmGn+ljJlC7olB4S1veUssyNeFj5l+lXDCODDJC6rRYkacGlP86YHFTiihx1/+8pdPPfVULxYMJ6wCBuZD8B3K2z+82WZJeLc7zEYnblAXMwam4nJBxtwZM4Up5Sn/gurkbGLSCHJLgtHM0f70pz+x6+DcNivEWzdfOyJxaGiImW2gf3AzGlCAu8hMtYJaEfqnVCNrU1jTGqaQr2D72XsX8rv9BLY1wXdHBjlVIvYilBnfn3nmGZLpFG88xc7osB2d8Y477rjxxhtZW0XDcVKpi4vf/e532/PlbkuBjfJW75tY9YXRcWBywD2gWY9y/OFVV1112mmngemlllrKFnyaBOGaDtQ+//zzL7jggiWXXHLxxRd3y7NXEipf7opAP84GySGjK/3gxg4OGzVdObvIIovEY6+LG/hu28HBBycp3kEFDqLxG/oZvyV07lVfeOGFp7IpZO6MrlN3XbgDju68885ll13Wfmls4UJE0JD22GMP+P7JT35ywQUXjEtgJqZdlbDZNGaphBA0CeAeArhmEYeYQ+2vf/3rVHsEzDoGLb/88ptssoltAieccMJJJ5202WabzTO8zUnaYC5P+P3WpW3k/tQMmWC2ZHw/6KB09oPtxLYi+y0tvo+oEhzsZpNnw2D9O9/5DpP2tddee+6559YZQ2zKEUD8F7/4xbvuuoso5m4ZHdP+AK0rRxhsRo1YuhJC0ESDOxboTn/4wx/23HNPhgoHHXSQo7IwThPxWFwd1W7iaBT3E5HcbTZZbbXVtt9+eycmRpMqsnuCIaz46ZL7J54zge8sZ5zUxr/oorVLL02/5cT3iedPeRpMdEZT5MMOO8yhdbvvvvv77TMeVpnqjHGNybXXXusk6je96U36JuXMR4adta4dd9xRr3Saqf29JcS18jB5EnMyodYyEFxfevjhh8E0gX3//feH7NoQnUxYXMH97MTUnuItj+ssqGhAvPFAY6rTxgiZRCaW9tPYMimmfoHvDnzfb7/aZz9bmz494TsX+F4qdo3/vPtSFafzzERnpIr52te+pn+deOKJkB03dEadLt7qg/xakV4pJHdVMc2kNS1pLVqIVnXAzjk/YTEnDtyjiTz22GMzZsygh4kjyy33KarGEa6u2M8FJ5TX5uyBNh48+uijTjyPmGiKU5eq7x6VgutFtq1SWJfuBeURaRbx3eZVhzOXE981qgFoQiNWR10E7Q1eg3ICuJu/YDQBXGfMmB5dTzSmoi972ct4cmcUR0zxpbLKigI63vaoDdflvHrsnAMTBO7ROPzutddeX/rSl6yRahBGfi2sk7xGw9KkrNQbGC655BLXFUkoHO53QqGccTCEi9LpM13MJJqosQNxzVN8oovEOyQV+E7rFjcawvef/SwlLZX87tRMQ2CHJRqwaMcdd5yxf91119WJSOU6YzSbKCa/QCuozNUCvnO4mF5JpS/bSIHOgHFmDMUpsm4MyXuRpCNsHf+H4QsirF+efPJJ98lpFiEjjIqyJgXfARZ9/Te+8Q0W7lSBr3rVqxApIWdHLFqGdXdUYojSBZdGTNh5BGRZs00ic4r47spD5y2XDd+1oq6zvfMKmpSY0fVuu+22WBeVhyJ25yxhizapwwbu5/DwaFRS8W+66abAHTUh3RVQ6r5Y8scStqKJAPdoJU888cThhx9uEse4isw+NsQJkcFq/kYbbXTssccC9/e+973oj43aJDaXyPPvf//7gw8+GE84x+8pRbeaSNChD2VrpJjdIjsGjgW+O6LZNbmuOYTvDoLnSiK/WzCclGWJMXCyK0m0BJ0ILtNtfutb3yJ3U3gKaUpcV7399tv13GyFXIwmlbQoWIlFDU0hk9jSinmr/DjQvFJ7wRoo88EPftDVzwSB8WBxtB7GtieffLJmx96279qTDOOAjkFrqf/suuuuK6+88lprrdV18cdXyqBzyPi+114J392JWB58LwN/etHdWtGMznLPPfdY/WL5Ym7XKmaEs1xo31tR+OhHP4oampL0XWdsX/y+fttzcA8gIxyZu63qbqS21S+ymV24Nmw1PNAVfv7zn7/I/dn9qZORbaOdfSIbbrihsrAdOuKIIxj+48BAij9ZPxPye3nwvT1ytWmEffoqynvGGWd8+ctftoI15jl0FB81FNChfEdT4FTjZ5mbQc/BPQpvJypduZ1KbXgB14hR//mcaxVT64H+3roAzHEFraKVPxxPhuzmHLbx90vF9Pjjj4ces1uZx9LuEhxPxgLfNYFSye8EhfEUqu/S6j6axP333z/XXHPJvBbSqgjxCna3iZMpEFPQRBn99vFbfa7fw0s4qk0QuN9yyy2OFnAwRau+pEGQWK1u/epXvwLZGkqRWd4WXbSDadOmaXkWfPq0Pdngx2b/17/+tYLbSHLAAQcstthihCBDV7Hs42n0dD5vdFFsaVyW3/feu7bmmkk/M2z0NJn69ze/+c3d4nZp2NwyIzqRd7/5zW/e8IY3kLRoVNqU3StNUUziViRsSlc0dLBRzHvdXTlVXRsWTRZLem4Epsyq/6GHHhrxMApi+4MPPminkmZ34YUX2vxGJxiyQKPiT7OzcQ6yo/zqV786vjJZTBztd6NHsbA+8MADv/KVryyzzDIGv3nnnZeFKFLxdrQ06+IHEcbI5jelYk5R/y7PSgzfrbLG+qrfCXZkjgn+4iR+LlrC7373O6br2kb71S9NSO9jCgm7oxs2zbloIpiXo/nAAw+8613vKlV7a5rnrgR2pZ92JSetiPQc3OPD6ltj4m9V8dGSmMFoTORNAuzNN99soSaS20dXbIhBzWZoEK/ZiVN+RkdB8m/wwZFVp5xyipKuuOKKMU3ublnMbEyG2DPk75bBA99JkOxnyO9MzMnvlk78Tjyy4wZVWD52tAzM6WkeoptoFbpY/lBd39EyvYpAQpWVUpK7zts4oSzGlARNlHPaTH9QPcGiOu6VqrATBO7KTPnQvuTaivbhRLrTTz8d3u23336BgFqVtRqWgg4z4keHwM5aZqWVVhJB+9OkrrzySr/g3nY7HqeVsoiPVxFobLCA6TcCKYjmm28+cZAld6ApFRAUyHzQSYFCVJuRg3xtnwuIZDNnbiEQEZNQEh9ccFReBDJ9oUB3rpkNtKzHfEVMgYYr6iOykhOXcqABzAlNv/3tbwUSefQc8w/jmbnIfffdZ9aMJl7JmJjmMUJMeEVQXhxg/UnZIi0KOdCOcPNiSp6Qy0RDxOkOrC0VlporJtfCHaRsFiXn8o/hQmR1gQUWEAE38FZCn/ZKoFf4hifBN1k14sqGQKqkCERttGy/7rrr/vWvfzuVZNllX/bkkx/8whdecfDBz7z+9dfSE5jpkRS7zna1RqgMtt99991RayrdYRiOysIfgYo8TrZHBWlFBgzaRczPFTS5bLeVVCVqmZbuo21Hl9SwwwZXRUdrl3lGaCpI5RLGeeTcwaKPPPKIXhl8i9auC2hsiqmytArxFR9ZgZjpEc1GtovgQyaUXWztk8J2XUBZ/DIC5Cmh6/nqB+zQmI488ki4wL5Fs1DlTRmhhvQup9Ta1HPZZZdpAV/4whd0P5G1NuHoiCM5mvYuMTJZf/317aEAvshGk9X4xIlU8RXxexQoG0Awl0UGNOimgaIJr4sZgXIb4dJydTGFIKs4whWEEzkCm8bMgcgqtR1Mznj6xCc+oY9FWsmjf6KZPz3aQPHrOCxLjYEjsh1LXvay2oMPvmS77WY74YRnzz33X8sumy518mdsbZW8KYebBmZuyBsXFVQMxBOnFZk/+Zb2llnUCYeDZpuY4+GwnDQm98Vxsl0ZDTb2EgJ0O721ijadxSvjvdMimS8bFElCdW0Y0zCTk1syCmt3Yzypqy7njWxvWhcC2zDTV4pfj5h1H2oaKJNNmdk0UB58qK5f1LHdI5p+g5kEQaOmM9SkQlN4edwESe6EbqqVNsXGGnUD1sUhbzrR4sc//vE666wTScikdYzTYhA0YFC4i0PEyMTFDBEsh/D0IlAeuOJX+JsGKhpXF7PDQJzRmKI9FSl0kjx/VJcupuVvJDiqwEYOS94YOCLbQz+z556pgpZf/qX2r06fjtIs15g8enjOvAiiYtGY2R6k0GlkUSccjow2jZkz+Vxp0v9xBjZyGM3GwEa+iZYDCUaAKUL81hU8QEpgNDyeyDMO12U+2K7sUQtoRmfMIYhn15RF4wysy098qxeBjRz2reCbX+DuMfiWy1sGT8/BPSqeJoERN/ka6423EVgsf7QkpjKiMQqkhbDSmFlWFFgE6uFgnV5CMyVT5GhFggPgj+aCV4wmCeB0PmayHRY20mIU6azDJJPCMeBMTlcs+M7j/JnQvw/nGR6lTClL5A0rGkdTr4QX40TkDn8JpBEzONZhqr6OpiHRfNIfUu7pkk3LghsxjooQsrlomcnFJN4S8FGDcRRfxVeD7ccfrTG4VM6S9hzco9hUz7/4xS9oVwC3Eb4R3LEJDDGPocjThjQXLrequvjxSFsK4qNj10UoJ69HlauMNWeffbZjG1jUuEvh05/+tNkMXuW3rWgGQ4gVMfi1ilaGcJMfsB7279Cc/UxeXx1G9ednu2EcRUGXUUYBTfKMeVFe4dyoGsPQ0FAMGKNKVQa+jSEPUUb6TBfpWQ8A7m3YJTLksrxE5aIntv8camiqC9GmAifbc6Mkb3sO7lHT1DJLL720NUlmIW3qnlwfMzttrqmAj2temSURuOhtNt5445LwsevZiF5nKdUBIKeeeir8su7nKhyDXyxptmFjZAYFA+Q73/nOINX1HHaRYOA7+d3+Jg6+/+QntaWWoqnzlBb6rASa0gF3ujhtCTyZ0VtRcOsL6NEe6M05S8cShEiVCHXg4m6vDiIOSJRoDI67cK4q61tsxK6mbUkgzhPLIHubzogC1qCGJk/5G9uAVGQHxeg5uMtDdDbgbg3Heouu2FR4j5aRNTBNG1zE0Z70dl2dtidCWkX2tk9dlMj9ODvvvDNk18EYYOywww5OXADuIWy2L1p0TrOlOeaYo33MMrzN8jv9jDvPr7vu30ssYYG6duONN+21155Ewk996lMGNusxdWXXDDSGq6++erfddttqq61ADHG+c4ihT2DsUUezDAzpaR7YzDha1XFG2kYbzQxhy/zYaMrpxU2zpDsT29mzcU0jTJHAEkJQ/XpgL2oiis2qz9ni5557bvuOJHK4pjnRaXVdChy3dmy55ZZGAkZsCApvGr/fA+GOAipFyEeMzAKpRyxvRGCtyDhS8hHjl4FR8D3WVw899N9bb80U9W8HHXTwzjvv+pWvfHX//Q9YbrnlmG0Y5EgGGkA4fqau7msG6/TIlmFMbizYaEKtwKiupAaGEXUOdUn6+hFnNAZTn/XWW8+Rv8rSqvuIptWZOzKX5GlsQkKiL6PDbg1NIej3NX/GnPlG/oyZVLcSThC4R61rAc62hVaMWzrse8VyBhHtycYfunvSh26s8RXjDJifqsF9ZsrLJt3eXafYmwApY4ctSU9rajzQXS7JTIf5GfG7kIHNG0n6n/98csaM9d3AeOqpxy2wwMde8pIXU8SRMTWb4rf44btXfs1v8EcbI+Ozzm6FWXV5iFGzLnAqPH72s5+94oorWDoSvZuWN2Aaf9rgtbQo2GXymc98pimRKnASOTAR4K542od+aD+O48sJWTSn1MFCuA4LLyYixHb9FpGwpbG2Fi2vczodfm7SowXHKJEdW29n00477XTVVVeF8l1hQ2Ka9EzKALSVVa4OdseWN0Vj2f/MM3/ZcMPNll12aUciP/74f1999d9ofYUPt6N6wdCnccPXA+LdtXvaaaetueaadtxErtrnRJz2EQbvbbDFWsU+++yz2WabmQ4StnCeayxsU/5EZKmktdFk7733Ri1aQiOFKmSyODBB4J6Lt8QSS7iJyTm3dMEaR7Szpq0qJ/FWuyEjQHZbBjbZZJPjjz+e5bsITVteTtjvHqVTduYc22677e67777LLruM9mYSyakvussHNLlME7CGqoQnMpxfjdaDbFTonnvuscgiC9vy9te//uuAA/624IIvuuii9MZf4csvIO91QDzp3u7Hs846y/ozfbHAYm5fkGb4oZXGuTHmIIUEW1guOq7ObfVmwDojIb04QgfftB+BuewCPYopvlRuQnY+Upwng2aOVnnKwIEXz5w5c2LyET3frw2lWgz5ncf6GL1BtJim2fAKpkN2nRCmu4LVLwsQgKIx2RItfNq0adKm3j9wLjON0afC6VcddqHMDdwLG5IcMmYmRW9Hh5MTv0JMpL7//e9b5pUxZpd+BXo1hq9Ewp/97Gd2je600zfSZ2ZjreGs0No229Tmn78299yz8L0V+fiutkFrxxHhl1pqqQhslR8Zxp8OudqKSD+GB1ssYxgLbQXXiRjG6GjC8yJExLGbRCtS4yooZCzlpSR0Ijxkt//ZY3sm9yN/RsxzNNcyQ9DEgXu0gOCIlVWHXWy//fa2pDK2ZQei0UB5fSw70kEE0r3YwmMQ0rwIGnQ7gSzaU+ZskB2xPvoxgmIqXeQcczovglRYCrm6wpwgIjOsU2QjVPkO79x666232GILtcn6QhxH3MjhGLq6tMiylaY0//a3v20leVimfpEZ2nzz1exc3nbbmnPk5pknMQA/2uO7DLBxBO7MPMBWNJimrNP2RsXVpkT6NBDP5dyQzIbtkEMOMU5bt9BgSOXRGb114FLMsKMzMmFw4xJzBnNo2y9UdxAZQ433KdNythVcqcsMQRNhCpnZwYMd0RrY2P7oRz+yQ8fRvo4lYuVGkAf0uZWQ7jUjxgx2P1mvpxx0gBEKkuuNumtQi/g5VfFbA+MfW+mkwkO7Ww2H0RDHzJBIDtZVmRPH9HYLaGqQgYqJFIkPZTdJmY2RlGnMxvw5MjtbRrgs54G5NpDOOWdt110ZddRWWKF21lm15ZZLfvXfBt+tr1rUMU5YsbAoDZhaZckp02R8ksSYmdO/CaNd4Qz53elPpl+GaoKXk7CgNtDHFpxUQLK843zJWGpfl6QapV81ALTiav/yZJByPtHgjnfRpKAzIzaWtg531KXhuDX3OExOo7E4RuaiYoYU7sLmia5e15i0uWh8deGDVENjK0swBBuxFLiPjUikyry1/gYxLe2ya3bv6/Tp0/X/TFxNwQhm42MA9/gEqZCsbRHVdzWPqHE4Dt+dMUF9yL/iirUzz6wtv/zI+K5tQChZ1bRoHnIp6ljhFFLWpVMT3IMV+iNu63TLLrusA7DI724X+OEPf8iIVo0YyE2hvMVDoyBLJGs/tDTFOqpjafVYEg5MArhHyXVd/Y0fiJsV8jChMSvXniICHGE5q1XFY3TOGBiEhMfwEJ4cHpGr3+AAtmQGjpMnjv0xf6IcQxAa2lp1wgknkOVtTXQoAuKMedhOxOkiraojarzxbVQuwdBQYT+ENlCMU8R3EvZKK9VOP732qU+1w3fJA5jWXXddAilgKhIssmIqw3rmQ+6MUHuhYUcsYPJg/hRxhNPP6JLxGPUYo28mUnnKxoFJA3eMiP6moXD8jgXn6hhEpohodZ0zHgFBxK97W0ekehw/B3T1vPqN28Zdfdu1yMzgiHhG2e9973tHH300FIjabPxiFsa9ahqHlB1nCRAV6yo08N35BF//uv1ctVVWqZ16atLS8Dv1pKl+xid8yDgUOyfrCObstQrPEaaIJ/gQTPMLx50qU1f2Vp2xLtrUfCxhQxrFAl0ndUYTWrCb6iRFgngw4VeTcoHD8LnNWlFyQp575W0TagJ9rs2rJmkKQW2SF2L1sRcDs/A1zmK4w8FZCNY/1BSh+KijjnJ1lIPemMr4HRoaIsJbNfGVpq08qtLbONU5qjtnKZJ4xQ4qB9Z5Mr7vuGPNkUKf/WzSz6hB4U0bQCS3PMjQyE5dj/JQR9Njt/jTSLkfQ1QEp9PhVfTB+NUxdcfojCIo2hh6ej8ypPM8N21dnSfvRcyOJPfcKVRr0V+XIa/0tHD8TeWpuiQec0yNxsH6xZAcOZPNIeHxifhKJhLh8dj0VabQSZwcue880QMpTGO1czz5R0rDpT3bY489tttuu+nTp1O/ON9t1VVXRdZki6I26IsW3637XIRT7Jx88smubaOpZx89NDQU4fFLRc5umtq3Lm3xUTNwQq0VhB12cDB6bbXVaieemKT4pvK7nAAkMwzgbiVg2rC9bJFa+OmRYFZj+JQK0RfqHO5xAqObBIfCHzGnPM/qGFbGx47APVAy13Quh8rOzUIcf/fcU/v975PJmhWXLMLHq/woebGtBHF06Peuvz6ZRph958hikrruvLP2xjemP+FBLdrZE0/UnLxC2nvVq55PEvT/8IfaQw/VnC/98penV/mLOcNCHnkkxXH4mDhBMBdtADxAE7jTpQR6jqdE0c8J5mEtQ/2aj2wrko1oxRB+CAs9GaXY784s2mU9lOAMq+0zCjPNiC8aIVqG65IXH4cLYn11NgoDlpEwfY01ascfn1C+Kb6Lb4WAyws5RWrhN9I0Bk6pkKYtv9gB//IXl8m5Qqc2NDSrA1KFObLI1ovWE60pxcKSFradzBI46AKl/fdPuk7ADVh/97vaHnukqxXAokcQGX/83F131U47LcE0V3yFVH7k4QKm//jH2vbbzyJFKDv22NrDD78grQcIztL5iitmhceH0kOtdscdtQ9/OOE7V0f/2mtrH/pQGhjild9oxDmakMsvT+PQ44+nOFHY5BsUB2opr1mw8YC58RcLEfK7TSsZ2VEuuqafCLnYnhenNjKUNDDYEklyd7BJMb5oYZhRDMz+yD+Fvjhq8G9/e/ZNb0o7m7beuvb5z9dOOilp3uF7XSnljTEVZIfvmVSdxz20Jg11gVPnMTqF8l55ZW2XXWoslTbZJJ2nX+wmjCFPOKF2332JK8J1QOykgdt336nDp74sactGn0sDqb/61fSkRmfOTAdtmxRzn/tc7emna+ef75avmlV0IGu/ibkvMzXil0Zz3XW1Rx9NfgD62tc6u7VGBPAI0BddlJFMGgOYPRgnnML9sY/V3ve+2lprJSKcIeS222qur7InZvgCgPTrc65hI9fD+nDDFllJggDQkJrjn3femp4vVy7gA/FGEcIZOhql8emXv0woAPfRGd71mdrr4DloCNqAO11Ht4RTBIuDhMfO+WaxlAG1+JCUgcrQ0JDdH5E8yEYgs0WifR1ZH4XOojHrBNas4P/jP17897//a445Zttqq1TRbmNkY0WK10R5okKlMmA4cI3C3bJqHc38iKaVwyluM3POOWl1GqybAz32WOqYeu7NN9de//o0EWe1sPrqqb9wd9+dptHCP/5xi9WZi5UHvIyiO0wMv0YGNnkGhXYG0pkY3mH0sOVbgmmQSvzSDpgyEsA5WO+mBTK4MQBen3dejRKV1P/kk7Vzz60tvHBtv/2SuD28MSL1wwcfTKng+K9+leJMn57AV6+H/oSyCy5IHw2m/fa3aScLM2cjgZCQ0eJXZzaN+MUvUkN0N58/gG68QZAMcuSRScq4994aCnbbaLIC0TEjaXEcXsrSYDgNro3QOoYyIphdh8npW8RccsklqewtmYJRKhq20tNVdpowpSlF/BLqgbvHogtkh9Es6+1PZpNjo41DY+xoJr8TBbbcsrbTTrV11036GS0Kvg9/cBYNxrXAnRGOZzkvUg5/d/nTSL/MIXiPJUSuQw+tLbRQbZ99khym2+rvl12WOvUXvpD6i07q+kNyki4DB0h1ljquvnowpaIx11e04TEn70XCkSV31Q/Qv/nN2itfmdBZRyKbG+rNZYUssECqY0LTUUcl7c3//E8S0snm5HFw/61vpVmzVBtuWKMnNdR/5zspglalB+pxX/pSbffdU0yKb+oXDoVrrklzQH9Dwzo+g8dHPpJ67yKL1GjS9edolJkdSCGuRcqqVqilfve7s4B7u+1S9mxrNH7EQGI5Tv9XIgMVT+V6zYGAVPK4S7icRuLUxp/+9KdOfn7HO97h00XAJV+7XInm3QBAwM+vPNpo6tfwAItPPPHE/fbbjwmmw2jJmKTIzTdPazzrrZfAnRRP7CA9RHLzg5gx6HuZYK+L3F/0Hd1DF+qEGBPZ730vsVEHJ6Jx1KS6HpmJMw82F+d0JZ3ooIMStytXZg50JLkrgOo0tnPLLDNLT6JfOeufIgXKE9Whsx4FZwOj68oMdsWxcTyQ3aM/Lm4nLuo8I9yr8MSvYcAx5hQvoZHPxOMtAdwlMGaO9DbDgmBKW0we8eMVLfwHP5gmEJZnw0XMTHOQPBAtdvBOYqFAqmzQkMyYMcOCql2jxxxzzAq0AMMCewBu/HrFrIWeBIKHHOTXyQGMcyiXnCTqBCv212ussYZw93JQwaOtXREINtooyRN+v//91NJY27/oRS82TjgdwaQhvtWUCZPOn6a5mshAo6POS+oik335y46RSFNeqksu+kixewqM/kJNWslGE1lNY/jWyOAemGjRkmh8yy21BResGeo5VU5E4jQFwjW9CmSPNjH77DUis3VXAjuxXZdjA0MrQuXCFcFUwzLRo4Q5+eRZi5+OiDIxpLvX/ddfP00AYTdYN0M87LCEy9QvKESuDDCcQSXaGR29BsrJiR7O7bZbIsJR6NvTyNHmP/BA0hvSIZqQcnVtNwX1vwu4BIU9uiOUsgXChhuRW4HvojmXarHFFnM+Ab+0kUn+iADTHVlzPtVeWrh7/qhe4T4HhUUTboEUasdxMcMxk46Ysk5js8S32Wa1ww9nTW9UeIlt9L4VtvP5W5IUnc2r5gTFkKnjj36k71ia5vSR6C/WqEIqD9lLb+L0ekobzpqIRTgq2bBESEGVKyUHXrBEVpdDAKr6VfCll6YlSguV4cD0rbcmBQgXJg/kcfo4StRjjkmDP7hnm0i7YkJnAIgFVdpzndDYUOfM8tjY6O8045KYrPsDwUYC4EummGuulAEeY4bPaYsGjEBz2nk6wVANAX0aGFtc//SnlBMtD4IT+eUBweHDCtNy0O23J+iHBeahNPW+LjL9UhS2Lm+D8ViE0V6UqHP6YkYGGqE2iFCRL7/88na6GpPsgA+IZyHjAEKXb7iDl7R+2GGHUdo44qZo4IiwJqHBkNy33JJc/5K55/73jBkbrb32Go64MjYg1YuyDwDNaPk6NflMD9Vh3/OeVCwdUEejjTEh1u9YPZLD9CBGkCR6/d2rhsXvAeBHp0WIRnXDDTc4hGPxxRcvYRtrB+5KWYS85zrmC0TvIicuuaS2xBLJoIoOnbhddEU6xfCm/lFFbkqhaWAbsm1eNSU1KYG59WTPiNlgLUPpPPTcdqER43cegarksssuA7t06I7n7Txhm5iB76zg6VIcUkhgJ6GLT7J27pANUDfeeKNRgbKembzV16JeXjSVqNURLO6++9n553/ZWWedefnlV+69916Stxl+7rvvPtZEU1Z4j+po0/6Lr4r+NvU4RV6VH9xHWFIkuXMxL8uijzrO1cyTHV2KJXX7hvSxiBOvEPFXRySninCP4gTZ8ATlnJaHi8ARcyJCMQMSCimSjZCIE59I1EvswFOWPcPTBrCUI94Cd+A1NDTUrZIFWSbq7qG2pOmofQfq2tlkf1P7/HSeASpy13I61cBZ0DAXgnP2wXo0UJHWbcsSwlMn/qvHf/zjWVM3yO5Y2l122e38888bRm1qhZZiuzt4KYumOLjXdQ2PnN7Bk18V/bk2c0/MIZWnPBwYAdwjo3VVGNUcr/izA+7+uNws8iueOiL5VTE8Uyt+opg2R4jkxWhtXuVvFeMLrHvM0UroAWTMBG0FoqywFcjaYx20Nc2zOHTTTV+NITDgG6BTjJx55plhhQIZaVH23XffUKF0kqtWn5Y2PuGCXIMH+0VX5ZHfDVEJ4P/v/5jTiOMRhcYPSeu6l5e85KV33HGnvF133bWzzz7HJZf8+z3veRGlIhmi2NJyHtDP/qnsaewLuUMVXxX9U5ldfVH2lhLNGHIP03WhQPYxJK+SNOWA2Z9wwuzSSy9NI/HRj36UQeG5dg0Mi+dNk/QoEHqizJrFeTXQMx4XsOJRY2b6YFc+CrKV1xmT1DJGMifIM46k/AnJGqxzPpSRXR7Ej5wMR3sJZdGKK65w9dXXfOQjH73rrmeXWOJFe+2VFvwh+zAju5LNikjFgT7gQDfB3aiuC+UBvw9KX/osgi0ScZj0uchimWWWoQY55ZRT4ix1GBe41qoc3hZXHVtF6zA8IHVoaIgZol378ei8X4DrCq0OiYwYTXnhtdvvLKI67YD9zNVXX+1bsNsRYMPmj6nU4cjdLIK8Em6A+cY3vmFUOO+88xZYwKVdz1qKtyHjwAPTNjpL9E3x3YRgxCxN5QjB56nMgf4t+4TeodpFNmlzOvwdd9xx//332z4ej12kXx5SivnQQw9df/317LthmZI6b+vWW29V6thVHyBbl+EI9Eu5QRD2tmm0ulTtH1HwdWDKbbrpps5ThOys12fOnAnxIXIsBrQn0slbH0INXpumMFW0vnrqqadSuwuRHOLjQzj2ke4R1AYOPfRQA9706dO33XZb5o+SUwTa5cTAw0Z5pxQQ3tny5m0WORsGBubz42dOJjgwnuhTzzzzDOZM8TWJpnUa/LEORLiZNm1aPDaNOVmB/apwDFaas8f54CXkbBdrlF5bAZ2lzjRFT7vtttvo39scfZ4/DQ1djdZ15rBWZGHidmwob7tp5KRbyB6ZR022+R0W70pPRf7JT37i4mzqIB0pLyQ4ssY45/xhJ5G5Zfd1w+cQ5WEmNIS23dlM78wM1rEHHJDs/IYJz5pi5msCM9MqT3AgBjxjasWQPuXACPP60pYqOjDbOEam9sV0Hb/KU/AoGghzfjpDb3Ir4ZQxCf3MiKW2+kqyKKdY0SGHM1KLT0SyhRXQG9SVnfBO+8+RvvlFEBkkBSoF/cB3flsoHIpCcrel3qaHjO+sZUw7Ksk02FX8jdbF5tVM0eRvxMZWTDsV/NEyy2zn3q+Se7QeDY7j91vs0oPUtpRL6dgaMkC0WshY5ZJLLmEOqIxtihwMoaynsgDuXWdIxtzs6fongmCI8IrDA8Tdwc01fksEgY2zh9mes6+17dnNTbZWEuF/9KNZmy0lcptHGzY2fmjqhEQTspJhnhSavalT9sEoaX+D+2DUwYilCHy3VyguPxoxfo4gYdZg5MCueDKMZk9XyDYlohRcwLcI2cMvPJJkTyOFwHfhzq5wqBx8n3/+dKCF7ZdeUek0JqlCMgdMiSagivPnKk8XOdBNa5kuZmu0pNr07dGSKmf8QDe4xhGWO8+k+J1HLlVMGVfQnH0cCAdrsnsurLDbolkZYghAyg67Qw5Jh5g6YfTCCyNq/3KoWVGrsIoDz3FgQCR3HVQ/f65Qg/k/FzB7OinnqEaCTghOTBxArD4zKPM4ysoJcU4+qavnHCdnrC5ChOdodFTOpqZ8d87oKae4gpUpSBpFGEpWrpED2k81+jWypS9CBqRFjwrv+qJixpnJYAgl9bvdo9NvLpDdlUBOs3BWTOCy8/edVcfixWPxT+HySBDhHls5EeC4ewWcgEQ/4+Kh445LY0ZTE/hWRKZIeDShueaai6noFCnygBWzktwHrEKfLw6BiykkW/i+m9YEWDtf2knsN92UdOUci3XbkRjmOY+QFM/k3RmQLPhDlndMv3AY7Wx3v0HheV4UfIHjbCZ33jmdRfrFL6YbCDbYIN37WMnvBT4ZQdM6R+P5zMU4lb/MHBgQyb3MLJ6svOmcTCFZxEcvnaxsjPm7UJvLR+M4wHnGjHSes0N9IfgWWyRodjMc5+Rnl+25OtExzi6QseeUhN5Gfg98J49KRQVvi5OLPkwRIjxRrNxzFmisrZ566qk+bUJTvBoHRHLX+KZ4RdYVP6R1ppDslDvZ7lSXvAyPgc6k6XDuFXD7rsA46WvTTdM5/i4PcBmLg3bcH+TQf/fAkcQtljp4oI3wjmDguIt23SpnqHChmFPL3TDjGIX2CcvAmYnJQzQh+yRsVas0MxPD8+5+ZUDAve80D92txVbUjHndMoXEYV+ZyEE0xmv4G84Nn8MZSHdsrblmujom7vakjfHHWR2ltGHGTgaPmOlfawfflYl6BzX47g5IMwC3/rraZbisSfyvnPbDNqniQz9yYEDAfSJBp7+qOUB5nHnOO5UmEuKHL+pwHGbSiVPRuACII8hTtQes07NzgHh4R1e63detIa6I6/zukNDe+P3kJ5PgP316GhicIhmXjqFc4XtX2k+qp8pNOAf6EtwbG5yQCt+bNp5GXjWN1iYQhZDdaPDN0MWcGG7TiTNIdyzMD3+Y1CzuvP3a15JOJu+3tShK6GbI6HZcahnX7cJiluyjOg0l47uLfC3euojVIOFGX4/5VRvmDPwrdc0NfDEHsoDPb/zrx+LddNNNDg5bvJQXGJaBnw5NdPaOHfZjzoyObdR0AMtZZ51Ffb/QQgs5dnj8J41kobjRM+asjiph/m6kCviC5q7z3WGH2mmnpbOC40b1KWtCE1X/xBNPOFjUoB6Po2LyYEeO6WyZz5bpP20anjpAihSp6fgNgb0S2xs7kt5IYQrZeRrfdhKC1YHsK620kgN+N998c4d27bLLLnHF3ZjJFoEVnobLnk4yVhcHwRGLKAKYztHqPheP3obBZRxB44gxqqFYeq374lR4VPWq2F21FbL3aXX3k1pGU9PgnI940kknaXB26LifaDsmDhOlKOijOg5e/fWvf33ggQfgcjyOKv+ShDaGzL7nnns65lfymTNnbrHFFrfccsuHx3rvPQCFpBZFw+gFetKnC+Rh9Sgw46/PZcyNQI8REgUR6K8YAr7RQaSOTpCKmOLwyIDvFtPmt295S22nnZKdJctLG6m+9KXaa14zFU3go82YtJEPnMAzhiYU1VT9ThYH+k9ydyjgOuuss9pqqznCe8011+ziTUOTVQe9+y61jIs+xkPfJIk25r3vfS8iwer555+f7fPYaAYWS+1QdYui995be/nLaw88kK5J4qES4YBs/vMYSYjP/oR7zM5jBEZ84X/8Y9r3dMklKUomEh7bUG+4IdnDSILI1lsn3Uuj8xb6O0yMCTw9Pi3/rrvWHn54Vqri1xvTDlgINFciJ+YTEQasaFOkOP0E7jFPdAEbrOFsjHZ1Q3VNWpuWimNxe1GbOK1eBbdNj+jZjz32WF3dAYGGCrdjf8z5ueNwZ59d+8AHam9+c7J74fyyLndMoxACNdsYIY4ZeOaZ9BY0w2USNOAmlXvMCCtcZHaQfm1u4uDyVVfVAotERsRffOU3v3HvRzrsF1lEmMesuuosG8pMMJEomMAzoj/jjHQQzcYb12yhikGiLnIkGeBf7acyhezT+u0ncMfiQBxAE5hOruxTvk9YtkP+Gs/nrKD++c9/3nLLLd1jt/rqq2+11VZuhhoDQbAIH6EwWRiwck4R4KhH3IFn55Ff0MwGZvPNHbOe9CEME62t7LtvbYkl0h8j9IDmuPeUQP3/2bsT+F2nanHgz6E06DbcZOqmc4Q0GopIw8mUBm6IEhJlzpgrisxEhoyZkiGzShIZI8TFRSFU19glXfq7KUnl/L/Pu35ne87zDr93/r3v7/c+n995z372s/faa6+999prr7322hJvtln+y1Cd4M9o3eMXZz/qqByIv623zv7wh+ycc/JPNktnzsz+3/8b8+fOw0HNJ6R72H7iExmfNg5PMZ+/8cY8rUhTyNR5Ou8/U4dWg1bTIWPuyIe/xxPhIKiYQaPsgODTyeBEVdnZxtC5U4XZ5zj77LNtrqqa+FZpHjJvSOXhiio1WnB5v6GI58+LBSR7ROI2O/fdd8/22y/ny7x9uVApPViwBzq/+10e+OEP81+P40533JErXvBlEjeHBD/5SfbZz+afiOE//enYTapeTQ+emsI43CJ+pZVy+Z2F5Xvfm1lz4OyhuslzToFHQ3umQEUnYRWHaUO1Afn1v1Z5TQNok+BTUONlL3uZK5xUp23iyIi2FDJ2UNMmaifUDkaR2HoFt1wc9iSm6TKNOHTql17FwzCRk15Mn9DtifQBivreFuhaa+VifizkWL6HZobpi33RNdbIJ4mVV84z0v8UreAbc63E3xVxwgnZoYfm7mv4orHROhW8jEWf4VWUaq5C85H8lHehIXomCXNvm3kNUVO1imowZRdgdsKLFRr8PZXu1ZNemw9EpvAiEPr0ENjJwsFkBajRPeKDTdOuxJElUrOLT2+7Lavs7M4ha195ZT4TkKn5D6hwoVyTs9BCOZxLL801NsT2bbfNxXnPddflxo7E8FCtYP2Nn8BZYvsBvEhSR/FpY1eW4sg52OqJqjG04fqqlfWc8CrTYRcaropPGmyHTy1Tk/Q6X834KRsZo9GFq3fffXeM0k5IkbPz2U/bcEIQJoBzwUjr4mGU4q47HNm5VwH8l9HhJpvkyhkx66yT/9oFxbhx8G9+M1e2FF2LR5tT4rs8b9dd8/Rkf5p6ud7+9uySS3J5/+STc6Gbvh6X53zG9PDd7+ZFh2XOMsvk4XGnqlhSwHa77XIbmwMOyJn7XXflGaNSOZRJ90QX+vWvf+2coMYfDbGha+FhbbPBPx42sV0hRiZnrU7QfehDH4rXiUVJ6URgjJKXGAI4VQmnAu09AYdJJbmeUn7FFVsDY1agWqFM51Gy+UeumAbs+n7qU7n8ftVV2cyZOYDAp3lQQ5EyhtiNN944Y8aMBRdccEC60OCQbvBZ0CSR3EkWg9Pqg4MJsnTLK2RXKoWze6iwadIpypt5sNSQ0IuJo7WZxjvBxk7GU0pWfE3hIhw7q5wDR8b8vyaeJKSbFdy/uvHG+c1QZ56Z6/dDtG8CxjAliTE18go5TG02J66TROc+EivmbNYX3lDmhZeBCVHOeKA27qRcM0HwWVrvgw6qDaeYK4WLgeYRKNIsyhVjfmKgudhi2UYbZXvumSviJ58KPsbUYPafYqOMwvUoMEmY+0hyr9fAgzk4Y8ZJ3LYe8g3iI2/bcNrOGOXSw1DiO7/Kw7BNAgaXPBa87W05vs3MWA3qNWif9J/B7EKDRqgBxGeSqGVG/a/Ut2K2489v2WWX9WnQJj8sshPOnirbNpyaGSt8rKmFTuhh7Nwyn2dNbxfB3izjHEwfZL+T4Ik+87a3vY3vsAHsQpOAwr2uwiRh7r0m05DCn3vuuV/xileMZr5xmy/YOnbmsVHWDMXw9xD/qeC///1cfmeLyW6HuX18iq/jFj2wCZACHeadd15q92YIMrAVmbKITRLmriNO2SasWfEYjUwheXCMUVozWURKHE+DNJP10x133BEejFGJlwVOsrhSabI76XQ4uD/K90MOyY48Mle+O0nLEChWBkPN33UJdLjnnnu4dB+3C03W7jHU9ZokOvfoiEPdEr1AHttipNwYclh0RZopSMb//d//xblcDPCDH/yAB2lncVdZZRXudEJcHZfLh1BBD8NoB2dffPHsk5/MLrss9yg5c+aYFQ1Bfhif6Awuewm1zDBWYYrjPJz9rqrRxh2EVTmmRASy4FaNq0pQfe6557h9x+WnIBkxccorbi+vv/76XXfdddtttz355JO5sEc03K0x6dJX7Bt/98vZ5M03Z9wnODaFv//pT0OsoonOgDhTsFeklh3qwDgjf1jqNgVFziabpgGHCqIRV7/73e/GbTubbropXzRTiphc2j7wwANugDnooIPiqP0xxxyz//77r7baai3dUIGzx1zAZob/GfydN0oHYnfaKbeb9AT3b7LVBiFZdAO/nkHAZ4RDqxSYJJJ7q9UepQ85/be//e3GG2+8+eabY23//u//vt566/3hD38gqXU4njvM3s/WIZmG5oHzyyjXhQHEefr3VtEIPTsmzrqEowI+bVzU5ywuRwh85gT3Hzo+qTN4WiXFKP0gUGDuvffeexDwaBUH7EOfe+yxx7h0dzxa9ineBYOfJiJEAJNaaKGFaGZSfKJzxLiwEHN/3/veJ8306dN5GXv00UddhNI2PaHhoerx2zaQhGQfAq973euQ6IILLkCQJTgVy7IzzjjDzPfxyvXY1XQbFyWcEH/nmdIuKy8FHpc6MZp805tyxzi+IsxQcMuoO/owmGl+k3lc+kyaBHo4EiUWFK8DVbuRWmagmqMdZKJXxVAMeTyxJGMy/LWW4KaOaCORLbyvESPcyZ1qRUwCh1RQCYHBeaWWgSptu4cfHtVnHOIS8ESTNlBNKhqThTO0Thq4UYQfeXIUNzi+4v74+1Cw+LZv8mqDbqMs3aXAJFHLJHbWXeoMPrTEPV2AR72QJCzxkP/LX/5yG71v1d4gcpkGxNMs/8d//MdDDz0k5q677nLb+Ac/+MHq9GLGfQITe7PXXXfdfvvtd9ZZZ4UhSmAybvaJSoChu2nW4s/GAyMZF/Med9xxnfvJCt6NxtzHc2LjjhHC+/vel++yMl/C3yUYcBVNNJxe8WTFp/6At+NE9Z9BLrdPknvNntEeRy6CSmGB9qANctuMi1vU+ve///1JJ52Ek2Ksq666KtU5bUzkdRnh008/XROOaUD8O97xjj333HP33XdffPHF6d+/853vvOENbxAfX2tmrBkZmJgwDj/8cPuTW221FftxGnw3873+9a8X3yrAmqX0ItKMGGAtcdLdsO11J7mAKvbDEOHxcfurnA/zMmaXlbvjnXfO7/kTP8gifBCBfDC6g74XHa8PMPvE3Is9PtWqjSGUsgTAmjqHBH9yB4IU2Pdee+21/PLL77zzzkzav/jFL7J7oS+Or6hkw7AeHSLNxz72MTp3wvtiiy0WKpp66ceNd+DlV7/6lZlGuyyzzDJW9D/60Y8w+oHl7GqUTEVRI1WwZndNX6sDido+lWayJKEvsECufOee3v1/eP1JJ+UO6NvzX1aNQO9itF2r1OgdMiPILVGgH8zdspceUy+J8aOvGAD4SLJPaBLjGEIssp26BA0Xu+WWW1Zy+nsKP3feeedrX/vaz7uiInP327yHHnooSz7HcFywF1RB6nrk0RDRImz+4ja+oHC99OPG4+wf/ehHcXYtbvWgab75zW9S64ed5WDyiLhpXdXaRi8RzeTK0ib6eREa/u7RDgR594C77uOss7LNN8+18Nh9iPAxs0TKcenczwRq5+lniaOyukWB3jL3kGJoDLbffnvb7sa8kU+WpAHYeuut11xzzZKY00ytmMcASOAC6oknniiOomayT7I0qJH4uKqhCW6VGJaYJJnWrHhQLwawcLzWTNlMJCdlO+ywwxprrMHqRnpiO/l9kDk7JJMKqxnxa6AAAEAASURBVJkKVqdBOkR78MEHzz33XGLHfPPNR2vP3Cjii+lDRSPGXX1f+lIuvNu19XvssbkI73JXT0wAxVwTGI7OYLSariYQjVHR7VMgBnZPf/Eamjt2CAJUwB4sSbiNQk0GxVy33377VVddJaY9aEVQQxcOUpCLP/nJT1588cUoQH3sgKWdTHWJr34p4vtQtdQudDKUQpdffvkBBxywzjrr2ItTOqVtH3Borwj0Sci3CiEyEtg/8IEPYO5EDRV/y1ve8sgjjwBVr0+mjv8//zPrsMMIxbNWW23WtdfOSg01Zx9vFakupyeQ1atIl0saNnBBlltvvXVgWVCnx1Wan1W0HVHOIe9ddtmFcSiuZP9KZHvSonFFoGDqgKOtvPLK8do8Mv1PqaYKba+y9bAN6tnAPPjggykEcNKll17aKVOyfHzyizIN1O71ILcRn0qkeb/22mvf/OY3h+GNKldrKtqA36MsJh70aa9dosp69e9+9zsr0cDwe9/7nj65GePH+k9SwhDVGdIcfXR29tm5oeRnPpN7p/GIp6IZBC0NFhYtWL82U/TL4LOg3qplotmDCswn7r//flYZzkAaTvSzyThhcvcOLEAFg30ghUCEO681OIDPmDGD9d69995Ldc40BdgoUYBXSKz23e9+d7ChzktsACGQ8UspEXqJK6+88tJLL6WOo397+9vf3gccGqBX7xP54F3veldj5VW9vBH/+OOPT58+XRgf1LGZG7lUOj7Vq3Jw7VDCsHxfcsls9dVzi0n8/Zxz8nDcHTixWppA3gXrOpV9nXp1iZqOfgeQAv3TpjnPjZtTy9pKDT1sF8nRLXbZRZQCVAwJ6LXqTrZJTIKlEo3xU4NQcVFiZDeXUIg1CarzZIEMBIBiE+nYJ3n2ve9977rrrmv16it8Oi+luxDQJxBuA2xkdP+4Q0+Ed5ydiubAAw9kkApaTOQNwIYWHkmwchd2/+pX2e67Z5/+dG4u6QKQ557LN2ArcBrA6OGnqB1t6sgUsodU7iXofkjuRrUqLLrooscffzwx541vfCO1zGfdYdO9R0eMUroHsguQAivD48ILL2zDnWyTGARLjcTVRMBxmoTTrWRw+O///m9mPN/61rcoiKzV+FzE6G2uQmZiWyoYVpFWndAnqP2mN73pK1/5yhZbbGEnmT7qE5/4hKWAIqrboprCRoY/s6Ff/sX22iszLxx1VPb+92d77JEzem7I0k5sZRhVw+htDLmhmYr0FokR9LYo0CfmblCRK2333XzzzbTtBoDruyDcrX7TLTht0XCcTE4G0UF9+ctfto1svyG2QMfJ0+LnetVHdrqCFoF1IbkdRdp/nJ30ijuwoP9T5bEx0AXo7YKoOa90Qh9kD5hrrbXWiiuu6DCnPeR/Yw0z251Dk5gGf8fiX/KSbOWVs3e+M7efcbXT/vvnVztxclMBOXaitc8sXguqY5MVGSUbKAr0Ty2j2gz1dBTdJSzcu9hpugiqW80DJYOfVwCbDZbqVLF4HCN0mmgbbsEXulVWPTgYKw1Yva+9i8fZf/KTn1D3Q0ApxHY2JDh70KR35TaAHEWbXy2huGu38ROJO6RPakdbC/QzbXD2QAPLDgkdI51vvvxqVtc5HXporqJZbbVcEQ9fadI00KCm3fqkakCF7XK3YI7g9JMC/WDuoXwkzW2zzTZGF6/ZjrzzQJIGRj8r3Oey8HGbUem4FgbHsLoNd7Ktoh0j07Gm5lUErRZRM320KTv3r371qxtuuKFViwO0N9xww/rrr18zfb1IvDg99dI0Hw8UxKgEv/CFL7BWpBmnQtEDQVhuueU62U0FIUhdxDZimkcvpUzsW8yii+a+4G+/PZfcN9ggW2+97KKLcr80KU2v5emohZ3w0QXZqYGGK9AntQyi8CXL2Yh1q/Aiiyzyn//5n++nWezS0/Zw6lL5dcEsueSSWMkll1zilL9EXOzOP//8YdPSB5xxHDNrXeR68yHqpXEJ7zfeeCObSBNMLNqarHLw4oRd6TXFtxo477zzHJrlDkFGe/s77bQT43QXiLcKp2b6JqtWM28psiIxjx1oWnrpXBf/iU9kp5+e/fu/5yze1ut735tVTon1Q1GD+CX0Rq/DQoF++HN3DoKsSoZl7c93tg1G91XienaikKm9URED3saspcCMGTO6Nf672GzqBSt6CbsL3/jGN5gqYnaO5n7pS1/CUHqNcMBnCmJjM6xo2qNzJwSxbtDK9FFE45bqC1WY257Rbag7gpJt4x9Fm2Kxcrs+jLVMeKZY55y1jiN1JNNOtlU7IVGDvFg8vuqPF7hFFsl18Uwkf/nLbLfdst/+NuOn+bWvzX8jWcCJWaEBzJY+Bd1sJFhrIlpLLdhSQUOaOAgyyCyot5J71J9jGdzNEBJwQSUdBeNZxtddbNS2R34XcagGFVzJ3MOdLM076ZUXxn5ajNgtNJVWI9afGK2fCmqygaLDuPSOo8qZM2dS5VHicUrc0o13qdBiABwPMx4eAvB0ZOGhiAdNPjWLyQYqjFknFj/vvBlnzMssk2+0uuBpzTUzS8EttsgdGITrAphbpEWWrtQi2sL+fyd7zl3BZASkPQr0lrnHkCZ8MQQWNv+zmXXg2+iKT/HbHurFXNERizEDElZBuGHr6cRWH1BVRFTfbuEEyqStNm5QhszOrfzXvva1FVZYQW/5+te/fv7559OVt92g0CCqowM/DZ/5zGc4SLB85NFsqaWWYp5r/mgGzyBpMynbxrNexsTiJXCXE1vJ97wnQ4/zzssVNSuskG25ZTZzZsZVc1i9zm78nNF3/qDbhNS6c8xHEHrL3IO++kdoNrmCoZ0wep966iln0+1l9YHTTXgbGxuJ20Km10MlkdSxGvscvS6uPfImglSjp5MwO8HZpaHPcb8ryYBOrxPhnTABmsXi97//fd4C+GmwBRJHjegMG1chUA08TRJANU7fo6/BqYNxu+2VFM+d5EYbZT/8YX601XPIIbldzZvfnM32B9odQZ7YnhqrR1Ubge0RBfrB3GNIsPU+/fTTF6g8DAQNsC5WqZpHdBF456D6hp5xqCxzJ5tLOmWY82bFBBPV41PndekQQqBRJEgJMeo70jSZPYxY2Cxa8BU9X7aHgBIVxPbDFgiGnm6PoyQsIlMCnnCjsqfVmcBlUCBWZPEU7lwXOC/FI81VV+X3+e26a7bNNrl1jYv95p9/7ICrjO2pa4IsKD/htY66m9j8xTqm1Eyj15oU6Adzj4Jxc4ti+5+G0+qrr3711VfXRKi9yDQI28s+yXIxQCRgUmjYCmOfc8ghhxx22GENWFjfqp+aycRjp87hVYbhwXYTevwoYKOQJ7Pj7FzV27DBizuXmhURQAKaVw9LnnrMK7BlQMnMhs0+rCh2+uOop3GLJBaP2c0zT37oyd8nP5ndeGPugOyjH805u8OuRHtXnVPWx2IjpP6AHBDGKyVX62iOWKygVeP0Pfqa0B6x9VYp3A9rmRgkmLvrflgp8HJlx4w1JBkqjfZW8Y6Maata9onqfK1i3rv0iRnxdkBtTRVmWDo9xEjJpu6E+35KbX3RRRc56GCO547CxqZ7QuAZX+MXw+UbnXGLjXd3S3Gom7PhbjAXQBShCZQYAO0AWSJUAw9MyCIQmD59OjMbq5+NN96YykjAJFGdpXctWxNyMLvgfcKvelXuqwBn97fQQrnLeJc98WBGbDcBOMrmN7L4DftYgXEfqxy08oybsrsJ1CtVLdD+xz+y3/0uczhBRViC+toM/t3FqggtekhiQfFaTDDh4Z5L7uocPYPLMFKALT6GEM6isxtR+W51mgGk7EQ1bdgd4lmBgMEp3OGVFF2pS7QRexXndZ1ZJbPjlRwUm+PT7kswX+p1O6j07HQCSX/SFRwAKTFlF4grvR59+IxksBum8cxsTjzxRCp7COu3A9LlEoPDr3FgO65Oj1DXOON6882Z5bEDUJ4ddsjtaqhr7LsmWV58MNBglAlUnmG2BwXaVC3FJqLX9S1hEgwdGs8+m9EvOszlb++9c8TsJE+fngdGT2MK9Ja5R4fAyh1ZCssNulQB7IYUz1ahuseICYxLg7BxNUZfUSA4IwndPGoT0tFQnJHtqZE5vTIaJpakUfo111wDMfzCTp3zulxu8ceAvSZ2GbVQHSzeb+famMZ9g6lfgwTUR0G6QIOZjQVoUWXfIG+fPyXdiwH0ohfl7mj8keI5MLj77uzcc7Mjj8wxYmDjHCEnw2zn2VDioZ74ldFfhEXG2DRU1T1P1O1n9kDP4QoH/ql0Z3Effjh78MHskkuyE0/M09hdEHCqy9ldT0qZv4yeWhToLXOPEi29ecujJYjFrNFrhLhsE3OvRikxoGq+X504xaRcKWYqBzaoSGv77rsvwySaYoweNVqiZ++oRy/nUjrwQ9Nt75SWI4pLjRiBmOY7XNsFEPAT8Cgr/dZTuEcC7sA4KmDGSrulGzOgZGbTlQ2AhEB3A1iev8SmaWPoavwxij/ggOy22/I/lvKeNdbI2SVlPXbpnm4HdSWek2PmjN8V6zbpBYIXz5kgh9PMk/h4AhJ4prxeaV3+9Kfs6aeze+7J7rgj/zMheZzIxdOXWipbYolc9dQeAqmgKRXoLXM3oowuo3d/Du6qnmp2I8YQItMxkCiNujRKq8DkEdWgaiab9JFBcNSzD0mt4YSOeZQI3Gv5t3nCckvg6JDlhVu8KT0o3zl7kb0aw3rsuPmyir2iGn7AsZSsCTBKNxUdeeSRHBV8+MMfduiJaXwYUHaOW81CW4qMEVETk8Q6g8sTiqliSOv+1l47++IXc6H42muzm27KOb7H9OrCborS170uc90Lkb+ioJ/Fxn2eeZ576UtzyT2tDFpCMhInjjw7kOPOxtItT48/Pu3hh2e5C/k3v8kuvTS/NNzzvvfltvwXX4yhz4LSq19dWV9UYFlFpNoF8NFvPQr0lrkrNTqfxszbs/IaYRJZsV/G2HPi/IwzziDRszxzLpHUKXEkKyZOlREZYP2C4NXja0QWkxUjA2ZKGa/FyAAVWSogc5jVkbJErmLKnkYCrqxAqUFB8QlPpwFLTsrgL68nZOGUXSDVsdeR4PMpduqpp5599tm0MVgnQxQqGvGwqqYwbKsjE5K+Cjeghk+ys/dfcMEFk+4+ssvrq99kClmzIAnMRrBlfe8+KUalYiKl3wACTmOUfJWyi2QHLQFMaIhJ1IhwvIqOkSGS+143ME6fPm369FkrrTTt2WdzlvrQQ8/ffz/tx7T994fntAUWmFZRfTxPUhZ47LEF/v73l9LhUPXwmsEpsTT+tfSYQP/851nPPJM5Lv23v2Hlcynxrrv+ft99ppl5nntu2r33ZjNmPL/JJtO++MVpCy00a/HF9ZNpnFYgm4LiUtloL41Woae3F8geFM6jCpEyiu8i2QN4pZAXmEwU3RI1+pZ4jDn2ujwkQJQgdwRqhvF0Ck06YiweF+Amu5ixiGQ0m/t96EzfZ6Lv5ZNwKBYyLJHJYHxc5IsJehdOdHMFoBVGg4JSymKa5iPlYpTFKlR/00k22mgjd0JVZxcjZeqTqazqlOlTKVAzJZ4bbKWYuGbKYoKWwha4Sqm3FdwSKIlxXrsPjzxCbzPrscf49skeeCDX4SAPG5X55ssngxkzcoc2Dkn5o8PB6P1xfeNkbByONd/5s5fv729/C1ae/9oR5eXh8cezO+80l+TZ//rXpz/96X9xYexzz/3mxht/ftJJGyyyyDzmjwpDf2HyUDqDpZe+NJ9SSk9NYjYfWYLW9ivfTQx2LUNrtnjbYLuSseeSOyyD4rQEDtSwPSAEsR9yQpVjqdQYRpdwuszB0UpazqghqjFRYGhMDpUmIgXIYrbyuQ6nzbftI4ZxBUsG7Ey8GIqd0PCw0jFniPQbkbKAr98wtgNf6VISdUO1iinEyBQJJX4Nyb/sskNTBL7phxDnrJADtyJlV9zCCy88ffp0W3AMQlIki0+SKfUIRXPKLpmtOXVk8JciZ8yYQcAkZlJDx/kdpYuk1JLMsa+IhK2VDQQAREZjW8U98HH8R9HsslEmIhmSW/385je/QfmUEolQHj21iNKlhD+Fg1zqSE2v7iJ9EukTEtGViVQ0PwpxGypi4pjSQLIZskf2IDtosqsOSqIbCneX7BDTZEokHFglOOyqsp/61KccT4U8SqIwzHUkCGgdrs0akx01VFPXjQ2DemRHYfSReIkllkATN6kie2qLLpJdQdw03XTTTSZIbEVnSA1kvmypt//lL3/V21/84rnwaLV81ates+mmb/7rX/98ww13LbbY3G9727SHHnpOD1T3O+545pxznrr/fvPxy7JsHhNijMTxfo0Lqx+M+6lZsx5daSUX9Vgu/GrNNV++4YZrO2o7a9Yb99//+Lvvnvsf/3jbfPMtNP/8Cz700MOaw2BXqdtvv03vZX6KpMag3uhB4Zq9nZc6vR3ZqSJ72ttRWH8wLvQxqkWjbDwiTMz3/jF3fNAUZ3izJ9P1Ucc6t2alef/QtCwofNWWfjUtLW0Y+UUWDSyNsaRn45XYtHgjVnrJjNhg2ZJ51QYa2xhOkV6l9Iv5ShM9xjgERCSAUa5PEakgkeBIAIiiBdQC842UIkMOVcFipFcprf2LkV5F6ojVkdYrgbAESo+U2B80onSRARMrh0aKjNKZ62HcIiUDB1ZM/fRFWYKdpRoZsSAE8sqKr6Yc/E6kZIB4fOJUMkVKliK1YKRsQHY4VJNdXZAdblF618kOMfP0xRdfvN9++82cOVMV3PB39NFHUwRh7iicauET+piVUXhcskdbNCC7noMrOWSAtuYVU7UmDnJ1i+xQRS5qIpfT3nLLLToAv/lGCjN806TqRC1qkr1mb3/JS1686KLTswqnpv14yUvyIfCiF73kne+cwW7y5S9/yU03Xb/YYvPTwj/zzIv32Yf9Eo7xor//fRpJP9QsVC7+4r4v/cVfSPSGiG4+zzyGZC7XE73++c8FSQimkIMOOmHFFbfwVb960YvmWWmlNa+55tqVVvqwrqv0V70K2d5iytF2P/7xj1lefO9732M7e+ihhxqGqqnblHq7XCjsqwCG0IDsksneYW/XpoBgMtqCLKUnK3cQH7Xt9WOwKcKNDWxm7J7x90t6YqInEl1KpVPC4v4RWf21lFgPALMU2fXXmmgMRSR/tkwPqwlSE/nqZBMbUxPJ5iP5usAUVCGy6CdHHHFEdY3Qh2RQHd98QSkl8eUjH/kINoS/G/kk6xLYlLIU39Ir7rbrrrvyHR25CEyOWVlEtgSkQeISkrfeevsf/vBEg/RtfLr88it33/2rkRHxXadsNV+C44DbpZdeGpG6Menkpz/9aTFNCc/41HxkEVQnYdvsDgmCEFyuE1Bdz9tzyR3GMafRn1BZmF2tbS0nLbXEa4yYBiNgBLqyxy1obrcgKRM5I28CkqZH6U2/egZNS8AJMTB+S+n7GVkqGm5K70OkUooFKRFh/YaQgly+BvUqCcsoxdcSngMbWewG1dWJvkHuW3nlla35SOsOVWCIVoTFrpKapl41S9RI6VPpERPZjW1Hr1kBRMemxzjggANIMKTRIH41npHdb6mgBvj4RClEXxH3vcgbgqoKOuibWjkABhxpPPVg+lSvdPG60D//yc49NygihlV6UJPamLzQqgfIHOZ737vCxRdfhFbMTO2uaSNHGu+//36j3og2QVI80qSFYRK+z6QKMc8888zLLrvMXcTWXuCokd9iEWKaj5SxOntLkaitLrFgKqIxOOFeMfcgXJDbLzWoJZjFsni7pohCAyAcrCdRmZKX1tg4QTIr5UQmEFI4AhET8MWkQPFrzSy9jqxGNdArldufSIRFzCirhFjpNdBrO1JBnpQ9BbpYzQRfDwldE029jiS+VEp0KuqgU0455aCDDqKfpbfFIGoeig76lCC0RI1AzGJUufZs5RVjRsGzoIrnFoEXKROlFL+mmJqRkZdGixjr4he3zEtmQaxo6uaURbJIWU2ZiC+WknJVR0b2+K0kG5shSilrvhZyFUdujphPJryDDz6YNYTdSMsO7noccmQge9ppp1F18kBljbXaaqtxi7TjjjvuUXkcONBSWtPCKPl/bqk61Xh2mD0A1gRSXdaExPSEuWu/VGfbDlYuth20HymDUlgjETSI8NyHGZ/LL788Pi69mdCc7GmDEMUS28g+WbNgNybUXtcuiJ9aXHFdb44A6Pfb3/42pQfTF9zBwm7nnXem96xXHCtGbmpoMN74xjcGHapT6m9FzNumFQ07CcZGMf0+gHq4GUW5AHYFfiAW+ONuW265pXrhkhYHLIKCCFGWcURBpL4h3VdXuck6BtomEsr6JrMUkawORwywULJbwMgt7NyIfapgurK4l0b7ktNNxu63UfpRRx2Fs8uiM3fF/3OgMRV+u8/cY7WCdsQr2nNtaYBtscUWWksX1JDaicBFnYLp08NYl7nZ0qFKw8ynyC4go6fJNmg+ZZMAhz1ZEMS+U0ly7Hq9oqU0q/0P8zfpmCBm6EZ8t4oLaJbqVHautdJV1l577e22206JOHi9ssQnCghDprqf4MV6Yyd4gqnT6tumHG4jjz32WIXSObhvJJaq1YW2XRxQKkJrgQM6FGI6ofBN8pCvDzzwgGnPri9DHbyS6x6ycD36NEYj0CZ+RSB+G2fxNZXFnkf1YxVVygVUNIdfxLfyQDEFRfbp06ebKenZ7RWrgo1x4mDAscEgpRqVAI5ea1MAfbv4aAbQ2NhZQH3605++/vrrmdYFfOaATNAirOelMDs/mycsun7+85/HV0MlAg1+oyAru4HdzWiAfN8+oVKify8KjZYyT++///6f+9zntMUuu+yy/fbbs1pTXDPt2CRWAepb3/rWFVdcIQutnV/LQS4WAkK9ssQjQr2v8qJPg68BvPlf0jrmzsGyqa4xYs3DrE5ZQthrxOD1Zhfc0KsxyITmrLPOkj2+VsNpJsb2mPZtJmUqiJGuBdYOO+zgUgEEER+jtRpIIOYr9Uva+aeroZmJLiQL70OsnnAPJGUXFMnqAawuoncxgcMgs6B8pu3WE7XFtdk46uLRPCLt//jVzLwA/uxnPyNtCeD7mlZ3jNJZWNPS6BPxOm53LFF23PTdquOwwAmCcNmGznBukj6SxdNkNSWWEpPF2ZPNCa+fNr6aL7SZsqIgplaEhpSeSt0mW4cFWTvGVJHADkVgrJ0q/yUKsM9Js51IYhONNhE4JWipakFzBpes/caFIHEMSSmZmZsSvOoSxn4UWkxQRCNKsYi3RREGTvZIcAlpYpXPEMhO+DbbbONmeZw90hchTFS4xIJS9ScKn+pyu6aWQXQrLJyd7GAEMlRQGN5tCSZeM2szwz4MYOyAW3D56lP8OuLBCNJWuFcNGQu3JleCsZprPnHtJcwkjdXnmqyZ9ko0FJYrvTaGELM1vQQRj36WvROP7TbEZC/CbAykma+2K03/LNZJDzYS7b+5XrWZjA3SNE+fBkDSpxgFXlMgfepuoGbT2MfCTFNBBh1tRig0UmTzgWi7YKYNcqWuAiUdICR9+wEEC+b2FCys/gWcEgicS10iOgnl4XXXXWeild01PjbDlQhziel2euf/uUG9JsGn7jB3bYBNkxHo1t2hwxpMM6f+7atuh+8blnSFmpMuno9sFgWSyYiOeLpWtJ61ltQh1uGWdPR0gwJB3mYgaRdDq/H2Y0049OxU4abz2HkzOI3VGLR+a2ZpNTKg2T+00mcwxzsj+xDKd1v0JWbRKuTm6dMM5AQtBZrJ1a00GoLmyvxHI8omjYoMW6ShTiOxjYJQ3lMvY4Js7FOrYtAe9jzM3pwk8tViy94AiwlnkeyLajXQNBmACWzEsJBeb731SgWlxJiDT6m4UrLRa00KjBG65rfmI2OAHX744XbSyN2xzk2Np0nEU6XhHbynAmutp/PRwxAuSsko1+yVWW7bNWrQlvGJQoBuMVYJCU7zaHc9ZanXdh1+8wCjRUhPtrVZfMdr4+yGpc0PZ6kd4N5www35tm2c3tcAa2K25MJ5yezU7gbzCSecENvj3W2UVAsl6lEJgXHxbJAAwm56atUgpAHAifoUxDF8KDFsPBKbLJ4clFW1RLeWcIshRtUzo+IDoxpIJKA84dfBY2nOnNGwJcmxcomysAK7GiGPO4Vkp5dUJ6WvJYBeI4tA9dQYX7vbnVqiRnXiEguK1+pkExmDah0+oWwypInbsT1l7OHaxUeMUqS0leoUhp10TFnDF9MIRzKbZiSOmCGQrCZ6Uejg7GbAM1AKbOuhXbMuvYgMBDQHbSb4DfAJtOlnnbsxAUtsQ4x9aoSLlaqJZ0C2v0LPznG848em7cYl1oTTZKTiosRuFWHywwebLH2ikkWt0289NBJleEHo/MxqQGPcSYdeTe34ap23ySabuH1FIGFlgmGiboK3hogN1fikN7J3JN5xnxA0H7d3JZgDGAjkB4cFVZOoU8kdRNOpX5vafF4TEvHo0gTrK/UZbk4tw+zdes1WGF9gH//4x3Hz4iwdKfUb6h0b6PTywsUEaRqM+EGT3NURm+vQvjjVsT+BaEEqDkZmpud4taOFtvyYN4NDZJGyOtBM9jbSpILayDt0WaorWx2TKlX8JCy+NBhTynEDsntqjj7xwOoh1moUQZbgoOHXRqUArkeAs/5j1Eh7nlZFAqBh/W48t/BiG+03QI2LzAAmKLGgepxqAjHvVOcebeMknhmeYa92ra6MNHZUJLBko4zjAoxyzTQuZanneQXBso71hekdc6/Zt2oWUQJVnaZHMUEBPZve2RpfD6YIdtrCzsGEd1zENH1SmIxbdzS3dpYsyCgsZtxckUAWNY28KdBk3vaSdbGt9UOzWhcBtlejermiC2EcbPyNIBcoWmAFwWviHJGdt0KUCxpZzRhMDBqewcWseEhg9j844NT59TSJPRJIbKTDExDx0kftJBMwLrgA8zCvYHkx1Pw96jWwvx0d31CraE7+9rBjWzcUcBFTXWHNzJsSZRydjAY2gUsTvbA6sa0ho87phgZpqnNNSExUgVLCaSzHLvRXrvssVKO716tgr1GNcvFo4lUzNOSBmTUxUzOTAVsm29ohjqWR2RjhfFjPto0RaJx4oL4y9dFpBwqlhIxGREz6yUMOOcTRJD2K8Xh43Atqp5SlgK+eUmRLr7IbgJQqdKQhh0WPCs7OOIILZR0eZ8f9IzKVKGVoXP0W+0+OU8UTCUxs9mIFDqYKi2wJt1HiJinQHeZuGp/Bk38dZq3xtLcFml/WrLTzjhQ7x+i1ul3F6BOke/KvlV09mKXqVcMpJejRqyqQa9ifkdmZ+pi9iMmf//znbRzRWfeo0JbAjksZCdSCrQKzQosP8pQdOePWrlfUrvnixi2reVB9S9nk0rBv+BQLQn+vph/nTjUKGxjaM21EihcfX4vpuxi2u271SXUeUz7I0U+QS7nkbr2dWTPOHp9KRUscTyneKwihueXKjd9HkoTIntalGocpEtORWkaTaEITO5k9bJW8VhNOJH7Nz8b0ip90J7O1Lm4ismb6aGnmU/TX1dBqxgQmNT/1IZJIRfor6jEQJPp91KVmNfuAmCKaKVoaeLJfNGLtxVlXMVpvMm/Xa9FnijVDn67XsRmA6BATj+UUCxO9i1qDDZIDwHZEMNZeYJ4Ec34LWC0zVrYid16UjsVi2lebZxaptKyMqWLF0wYa6mWByPKdItdKlyShdurbBqhmKDll03QquSOcNZp24uURj6tJR81GDedX7/RIjLMLNG5LNnmhuokuXhNyimwMKiXrekC56mWB6XyNhTPTQwPADQMO3NowUBzkpSkuTruOQwOAcGtS5xAVgS0jZZx9ohBWLkwCGcg3qFq3PumH3QLVXThBBDAxVi60BELxzTxDTHfLStAUKuwwEUUQzq4JLLi58aJ3FY+z605cGvDAHuFIn7I3H5ARKMt3C0SrBBn709zNYzgJUnYkuUf9TcJ2Rcy99fiIfkB7TlNBZSGxZBpyXJbNqCZOTkcvb9yNAGycoNdNxf9qHBuhUBJwkisEeasTY1JlJwRDEhY3nE3WPegcicdtnSZhtpQs9YroUfL2gWjkjIntOeOSiLk6AwQzLv96bMzYthLex83VSQJdt7S7boAHQFs4elRcZtkk3TSivKXEXsmC+ifv7ewjHXvEJfrQ3J2QZejydoG5YwQErmjC6vr7pF86CuFx1MVYijTiGwvv0falPlENf8JjYKju9DBOb5nDWEPaZdJTcSiKeAc3sHvH5UMO6lt1oiB2IC2V2zf0qlstBjazKzpla0GMjGWtRV7EV6fvVkx4zewWtO7Cia5l84mqHVt3Lpe1jDO6hKSeksXuOl+bNpBcP2tP1bDlRT2qZkkqElMOvXnj+kJSAsKNseyplhhEchl74IEHuk849uQmsAc2rsswfu0CczeTU44TV8nmBNUSFbSoSIeP6dD1ThM1YxI9g/YQo9e69ZqT8jdmgmb6cT0gJWR69BqDEHAW7mHkLsz+18kO1vo67rrrruvMrUWoKa26i/cIK2CRlwiGRfauiK5ADrLg7BZAFj2OKPMbQxoQxkea6QBto0GThj4T238aIB9dC591aWofFjRRnHFnd91hFJaON954o2Ebd0DrS6whnGhpgHD6pNWwdQDdv4bCpJ9q5iANyY/8QSTC3FPeUaArFOhI5x5DArPG3B1biJ5RjZYmJGvEyou2jsNIG+V6SYzb6vQRc//995sPhGUvpvEaT/GTmGKa/ofVPaqPTykdn7J8ZlRgVJCDsCqyTwgvCdUU6AW2Adxed5OmkL3AoUmYUI0Jj8yOm9upY3m19957W9ihYZNA2k6mH9ZTJ7YNs7sZo1+BGSbhyCWmu0UUoUVxsbvOYJG1jOVCJDC7MGBrRlaApNFNrDExOKzkMiWeZ0A2OqJnAujViJAMZ2ARFDFFTEbhDinQEXNPZet2YQybYlJAW5rA9QmWVewgDVf7MxxAuj7RTF4txkpPp6HV9aTQFxe7sq9ePdIoIvTaAmJSiRMYqKCWY0KxYEOVtBK83q4RCdETuKlFVMSrQO8Qho/B0zv4XYRsMYdo4TQ0uC0XCBwhdLGImqCGgj7RvaPP9KGrK0JZxiYRHitPniaNSmsIFIteXZOeIuWVhphPhjP2nfmwFCPvs+DEKIBNfT4Chjnlj4x9qFo9nCdlfKfMPZqHwyC7IsKxK1KilObUroyruHEnwmt4TR7cuZTSKyASaGxDnfVVMYFPmp93ae5eCQKM6wUkjlzFlBMedr8Pgqh1zF7EdhfNWIgEudTCY/aCp0BE9hNnJfa/0HoVDAqYp+nZLXEgpk3tXvBiFm7m6mXsSrzSuwKnD0D6iWrqlvh49OGooPFbfE21rnSoF8QUo9vwdE6VNokdnev07EhtttlmBqxur32L3U+48WyRShkFWqJAd8Q6TgW4hKQlpzgL++6EhF5CQrfW1qICqVHr9dToOix5aefp46QvpeR6zAUUPmEHVnOlCSCVO1GBGBWs/p0GYuTghgHiJxUTFQ2UVEcFVYE20/ENW6/2Wqnpi9Ucl0TNVw2okqlfAA+SlsZt82B7lNIOKj27XQoyO86OdOTEHpWVwFYrgtOnUQAFrKKKnBdrLr5KED0qZKyiiQRVu6MtuLz0LCn5EXNzCCvh4447jtEwXW7qmaXZIvV/wEtjf9QiLVGgU+YevMzuqJUX+ZSrqZrtoYFje73m14SxdsWyqe/dycKJaIqPQORlhmXxLqU+QbKzFeNrY7AlOD19hVggQ9VuivJQRtlKVS9EgDP9lV5OSnWUnCDDua7Nq/BLHhVJdUmg2kbYCsmJpJQ9AUQ0KiMTZPo0sQFVhhsNAJ07xZ3pkGeh4OwJ5x5hiMskgveoiCEFG2TRM5MdJE5tPY3dJ3asdUTi7HyKCJBpsGz9XDyjGh4s9HOXdeDmhD8iIMUOQwMd3hSOLFEEWwzTgFe5UmQQrdetH6VM1t9OmXuiC82M49GuQrUVY3pPzZ8SjDuEoqP4PeKII9x9TN9Xr2kTqBSolzKV3p9AQsOGqmFAAmX+EUWnTxRK1PEqKH769OkkR+47HAL0GtWJvNKYMttGGygl4uDUQVF0/GLrhpZFg08WDVyZJxq2XVZXMgbC2ATbOE/ATETrShE1gZAVasaPIqNFwvd6yCUEFKtMynR2ceijdTB0woqLtxjVCLtZAUMnNOjVtDG8wDqDaqtJT7PCxhZ84nnUbjm5nokwXm+qcIgpLucBMPgGF2lmC7pNWqBRQ7RNgU517grWCbQ9hbJbkrkW0JamejEt4RTD2Nh2uNlMznawQXaJPRLEb+DQIH1/PkEGKSxQTE5IgYHq0w77FfEUxrsJ8gKxbUicERN59f7I60SimTJO7rWNPGQUYZDEKPULFG+rzv0aco6VaywLC5GtNlbbKDXOGHgiRTwSB86Nc3X4lbPyAal+hxXpenatgP78wuvSeK5XrNZtSjp2KgtDt01CXmFXQ6serrytFyXGuDkAp41hSeFUrQOJsZuqtzufaJWG7MBK5mvMFl4JH0xrKOXMFvwJuxRbWaClEkeBFiiAcF15NBU4p5566kYbbYS/C9tkx630jHEfKa3mZMHOSKw204S1ut96T3wdKE/5gZK7520ikW5gTgAhfaT7hSMBj/Yc2ZvAJEAfXR+HjWo2yFuPDvXiozkMFaeopElFWzEEqUUaOTvvvLPWEY70AlPtsWyKraCpVvF69dUTojNEn8FkSQMSExT8GqFsYCTQbSSwmWSblBge0DBu1+y4B0pifdsTQDgz4B/YASjUthQwGUgfY4Qpqs2V6IQi+UdjfBldVNHOxzCzFh8oRSkD8htVGygWVKJMFyT34kziWhZeVhjG0JubqEniqVWKyYQTHsKREmuTkdKAGlSuWKCVcg3sq+pAGJvATG08hBEklQhmqo8G2iGHiqTCMgVSKxsJLArCJkT/bpC3vYorUROkvKR4O95iYCuS4su06kkJpmCgSJ8pWP1SlY07fcYjPjoJ2Txe49eik76RZTMFixjSA+0KMTxU7ZbvxHaKmhi8EhgRPnF8xj4C4zYWmEEDorcH5RmVEfBBi65I4CDuRBeltbdxVVwolLAdvTamQNeYu4aM3kBudVLJkoo/T30F406Gj17jCVaoCWnxtCtRnRmsnXTczcQeXxvjXfoaPa8U2f9XNdXXnd1QdPRve4O2pAKTIJFfPJ3TY9VnUUMOQgEJ/DbI25W6WEZwMcgiBQ5kK4PN+RSbYAg+IATsSjVbAjJlK15NpTTuLCt9xdb9JvoISGA4M53AoIWJrsy9JDbSfcXExevtfM8JR0ajwJAn69h8oqvU23VCMbIbLJa2DN5WXXVVsv+WW25JvANfOMrVRU0kobGpxnYUMy4F5ra5MW6iJhNE8/vV5LZWKOMo0DWk7XKcS1tiZ+kBU+dwQJ8A6xibfRhqO1uI0gdbbFyozqEg6wMiwIwZM+K1cZaefoVMYE54IZUvt9xyuimbH5IIsUWtlS6NJ1CVzFaekRAxItW6cd5W8QcZcQwP9Im8WsG+lhODZlPjEFakJHgGbq3CnxzpCaHoE4xsctSovVpEt8Rt+a7BZKlQLKB1SIoXo5JsHgl0KtZfLtnAcy06ddoll1ySJYwjHZdffjm1DEUflbqhLWVgImBoiNH9hPF98aQ6Qr1dH0tb8pxOiOm7c1VBhDwxUoYA5FaQBKe9qvUoVxBkcFhQdTXHxO3qD23HqLO82kbglltuYeJKrcYgD7tnHBKfqNvoquiabamHiygqAp+a5OwppYMSFoaOLwehxU/sE2ioGqtQGw80MFYw5rYSel6LeKKV1+q8zOTRrZS3mHHcMKWnwweGShGIVbOlrsEZx0GLn8YFOPkSYO486E5Z5q71talxhwK6ChnryCOPZK1k2BK58GtD1doOL5ZMYg+Gfu+995LEKdBp+cjXNCoMWKXhJQYHFxNdutRb5A0gsZRn8G43m6hRgZqDxRDwClpKjiiUa1lpCAzsyjKYFfceWBDm1jzvKpGld6/dZ+6BqwZLDUxNYa+cDIunaHif8DuqeaJBKOyiyf2mLONWOEhpTWdVyJPBoFGWnIK5E3yias3XS/pi3qBDkZhFyogvJiiVknKlgMTFcLwGhFLeiBz9Tm4KlDoDwZmQngzVMF/m57Y0qfKwbwM2bHNjrNGgumeDAYVRbFCbG3QhUrmv9fqS4jzmAAksaknoSqSxSTMr/fsDDzxAr0uoVyK2jv6y1AM4sa0TdBhk5v7Cblt3KaU9Kk2ZT8iaH3C6GvNwdSnRG1ptv0hvQR1eGFvNXo1GF2PUSH/F2VEA2JZwS3llNG9RqpC7ee6tRq/Y6aOIYkyUa5AAUlw6SJnapYhbKW91cZM1himIVaNeOlkrWK9e0eL6G42KvmqQ6ipx3pt4oQNTv3zve9+jNXVyhaaFiE0bEx6S5bVcxsptk4okYouhAwyY8RvlCqdAqGRZv9jssaZnJemWG1ognMF5CxohN/dS5EpP/PdE3paGT73KTs34XjF31NQq0TA6UPE1CK3lPBK0N65klD2UOQFncNpPjaAUVW4Vq6CG7PwT8BJsgHGzQ2vPv3YRVFSZgoVVGUWnsUEFFDQJmkcCahlDF3Mv5hVWSoO8pcST+5VlquVje50QZaKhBYLsw0Kr6B7EZGdHKegojh0/pI2hPSewiyFVuIn73HPPxW3patQLW/f1xBNPDLYLgng+v1wKb4vVE4YDJgafDPkoAmE9iOPXJ3LuPvvsQ4mBv8cBJVpZUrzebm6Im3sTVYeLpAPY9OMw99nzrr6bIx+vs3dKxq9OpNeu1Um1XDSeNDUBjluW7DqQZDpPNfyJjYmqtYGDUYFcOM6+++5rz9O62NYW/aZVMP1mfI1hw0ENNwbOQNm8dZ0C80pGOEGTVLpA7OUmTJrPm7JM7kDSCbRRzWiOyBiEbQNI/7MEqpgp2xVn2SheaE0J5nqLLSLWzJgvDSp53KoxSRXUMqxi7rvvvpDuoQ2ONGyXaVf0Pa6B2L3oseCYAKJeSETAJ2QwgqTHN2coSI/1NahnH1Ufpu63vZRypQ7cf+JMphIbMfci241wTS5cjxzV2UspizCLiSUrvhbDJQg6QUsolbIP4GtMhDayOBozTowfm1TEKyddGeEUa0vYIfUwNlALhsO+Wik3ebtmdV7jmfHDABKk1ygVSdp8WdpFYo1F8UWxww1OTQmmeYD9T+kUtAODPPopmtaF4QrBnDtuTJw8gcVTBnJ/hO3GTR2OJj300ENYcKAadMOgqVYkMyvotHQsrGtMCZg+jTlR3eIAWzeDKouPAWzdbioICBgUiwDrSZHFyTJKGf12QoG6zD1YqgMuTz+d2dio7JZnTz1luy/jWKKapSYWXOn2OUrSOL5z+unZwQfrPXPwa18j/T33ZCedlO2wQ8ZxUIJAi0PWdzD+qquyXXbJ3CMUnwJyFB1pfv3r7Mwzs89/PtM3UvZOyDEgeVmGsRao0DBflAjbdwrcDAbjiijEUii8L5GM7HRxQCYGcw++kxLjPhH22yCv9fLUZO4E2ESfZgJB3mBt/L5RnWkskc7fUVwEhZuBM+FpbGzSxuhasaPDcCW6HPadOLjNVSdLcXx1dMrUCpLupVhHDDpemb2ZD6SnuKdVZ+JsNYCnO4gkUvYE006pPmlKiDUTSoIQ1Bi6CXLCG3EcBFC25lNRms169FF0n7XzznmSX/86D3/zmzWT55EVbdscXx94YNYPf+ic8RyR8RKJHbwH8xe/qJHg5JPzTxVHBjW+RtQNN+Rp7rwzfwuE6yYdkg+hsqRnx2oxayOBQobmPfkwSPXgXc/VmvGK15PcCVzpa8AR7xSVSDJR+iRQL28pWTHLRIWhlJ5e4EDSDAuuZoDDJJJhYZTRVk7aCJHrtVEzMCcqjVrzJcB1TCBgP9MjrOcEwSPerG+dRyFjdyc6VSJCEXOR8bUYWQpHAsek0Tx2X0sJhus1qjPI7gfqSu4EZBPqQgtltq8//GEL/+znP8+F6I03Hpst/vGP7KijshtuyJhyvPWtGRee5Hpf9903s3TbZJPsyCMzZ3cksB/z299mRxyRuYmIxL3nntmSS+bAPaGae8UrMoc6CeCx8/fZz2Yrr5yD9ZDrQbCbuPXWbtrNfvjD7Pzz87wbbph9/ONj2Ssn6fLEk+AJUcjC1uaSTaewL6bWtHWs64fAGAFeyUjrhCAqS4YHjNbDwSGJiZ49JH3ZQ7cTGdGnZl4Z7ccOIPVSlQO30mtXEJ4x+4TXuNCidDxRc2B2GghPpzKWcebMmdxdMdP+5Cc/WQ1HRpGpCaoTTEgMwdkdGooO9KIDCJfEZwqWEno1KyLSI7unkl44X7tX2Ejebz0BmWWOpwRz9NoLCtRl7qmwVVfNvv71rOKSNrvlllwnEyoRCVyUtPzy2WOPZeuvny2+eKZjc+a40koZL6q481JLZT/+cXbIIdnXvpYz5eOOy7U0jhZXTkSOgY+e4JfWYYst8rnk1FOzVVbJp4Hg+/PNlxcNMmh0O+usk51zTq4aWnPN7M4781yT7zEMVIrqkyY96XONmYj3ScArG1BcxkES9sK4vPSkIbZrvAsYt4wfmKmRp4j8NMIpe3VeIr9jIzGppCIGgaqBs0rRDpul7OOpV6pItzC0xccKMFQEjWFG0Ti4E2qMRqiPg1tFPOWGZVY1BE2Q2GXXka8urqUYuGnxaHS4yRvhIhBpYpBWOPULlhGVTlpMmIcrwMbYenyTt2TvUK+gMqzRe8cUaMTctV/w8bXXznbbLf+riCn5bOxxitgNl9h92MKQzT0k9/33z+6+O3PTRlGgJryTx887j7OqnE2XHszalRuWCBj6ww/nH80BAXaDDXKB/c1vzq6/Pl8feK6+ekzq/+MfM6x/sj4GFeOB2GiqZgpGkUgKUI7g01fyO8NHljMYIudlIODvNDyl+4yKeRP1EpAUM7GBwOeBBx5g0UGXjW9SJbGio7rtLqpOqII5LnNXKB5te4PJh0tBWU8yI2Ei4iylWZZCbLfddrta15y9NkrUk4vVabhsC8r7TV8nNpBmHWjUxKrCml9g6EVsfQqmX8mb84SI8WvgG872w+zQv/a1uShmLAczqUAYK6oEoQStWNYo3B4FGjF3EKMfUpvYUyWzB8PVDOJdaUvWpplxROmEE8ZY+U9/mitYPD/6UfalL+VqGY/W1cY775zrbWbOzPN++ct5vCda1J7fRRflQDg/Nytcemn+KYo2ebiy4r77cs4OiAcEK4YPfjCfJypuKvLIyfcYeBhK1KvmwBMZCeIrqwZngLlrZ/kgF2tlruEpDdJObJFExbxF8a2YZgLDwb4hxkyIrV5YdLC3o6cKi70u4jYuWy+WpVGsIcydIpl/uDfKxMnQ28YGV+ZsVcUXOaaKWFpZTmkFor3JwFZK1K4IdjDDIdhZH7NZoLuiaLXmZuZwySW5fEbqihEayAdPSDFENGv6a67Jx2kIeRIE96iZXmTKKxzQIuXot20KjMPcA65mNhVTshebkIEKPfj222df+UqeijkNdr/WWjl3ZvriLp33vndMtUL0pq93OvWjH80nc3qe0iPBhz6Uxx199JgwriBTgueUU7JvfzvPSFcjGX39HntkSyyRGV/ghyWIxJPyqcnTizWNBJgghsLbgbMn/C5FAmpNNmfsFkp27il75MVoiswofR2EAAcmasEKO5BxewnpmMszknIX+eO4RI7SJUNnM4HFkOMFtrLDrQrj7rXWWsvagkFIkWjRKM5h0sWzqJHY2XqODy+88EKHd7qIf7HQXoQffzy3dvNYtVO/Y9Ye5m0CN9+cMwSqUYOd59O77sp+//t8yIuMO8SIGfSrP/lJPhlYfN9xh5tqMpIivk/rbn3/5JM567cEp8vFPciF8irIXCJQZPd5qaOnRQqMw9yDvjZINQMxPObeiNR+7nzeZ5985/M//iNvJH9/+EMu4AvQq2hm7PiJJ3K+b/Oz4sgzj6l4jBgDpSFlAUq8IjxyHXBAvnMbhRoy+pbfuG8LZzedaPiAg7mDHwxtynaFYE+c8zHhYNgQcu4555zj9KDdVCr4Bl2iSdbWAELvPjGUZp9nfzjWImpHK8KErrslFk1FG0OOWZCq3W0STiHg5uRxyqIZlS3ZIr+OKZM1hX3XY489NuzE2REyEOQNyZGCxgUN1FcDLR7ymaHKtoL5MsMHo1WMqm+zTW4KcfLJueEyqwpSGjeOcU8izcwxx2T33pvzd1K8T3bgrM6nT89Zh7lhs83yHTVHmjD9nXbKRzqwBvuIuXelD4zD3KMMbB3LLj04LLYeNi3pU7z6lLThseepwfwVH7xYsmJ8qQi9Khh6KkJ6rD9BBs204W+KPxh0cBPadhpqtms01Ngi99kYEMOboaNP1IiETvXB0X/sIvAIbe8Xxw+huFuV4tikpbUL3By7ZwQZanRowEekp4SSeAqcolqMzB4qnVLKwX+1W0Zxiv9St2LiJHQiGqZsNU8/Y219+OFjLMK5ln/7t9zYwfPpT2ebbppzcwzk4ovzGBIbo4ljj8123XVMy/qNb+R63YpHmRwCjWvsyVWRM88+elqiQO3dkmoQGKu/4hPcOeJLv6VPchUTJCApWcSU0hRfhT0pfXwSk9IEhCn7i7Pg70RI6gKKAi6wSZThD8uWbFGoHC4SORmEjTo+Q/6lsOZiAf7VbLSTSqFPS2p3ZeHa2HRo2GNaLaHkVRpqsdVWW80mQdw+wU7ctoE7SDvBtv95Y7H+9rePGVPQqBDIXObB+I2NHN0pBan9sNDZQq+y4zOGJgs6XP6RR/LXgGOpTXNLfielPftsbuIcAhwV62235boaTP/cc/P0Mdjz0OhplwJNSe6Ao3X1UzMykpU+lV4TqGJ8MSxB6bUmWOy9krIWcqmMqREI/m67Ly7ti0qTE5lCDiN/j+oQezfYYAMW/fhvEoFLnLTD5nWk3qZoS/ydpI+nKxcm9ZCJeA7dnAJ1Ryj9GJtLm67OEg/XXBsHeDHxLbfMlausGKhTGDJQrXhsxZHif/WrXMxylN0TNg6xYXbYYbme3TYbU7qPfMTl7LnZNC28LBbc0l933djWmtUAvQ29PMX96OkWBcYsLroFrp9w0iBJgX6WPphlBdMJ3PAXu6yOUM6cOXNISRTVCUZZT/vRYUMwbXRRZzg86RBUKXuiOcndeQX6n+QYq5RyMF/xawLW736X/dd/5RueSR3qUCG5+01vys2gMXE2bH/5S2ZBwjD6oYcyxmxEezthkjkjRSt7+eUZMyK7a6T4++/PpwF6GIcicXy8XkbpWdfcfntueG3/jL6eCB+lDyZlAisd0jRPCzrlLuvodavEyGFBbNvKhlsaSL0ud1jgB0HsRroix0HEoaYP5JG9nozcYYtcc801ND+9YO4QK2E+dK1Q5LA4L15fcz1daoJirtKnmq/V6atjamac2MjBZ+7N6twnlo7Vpcew4Q2D+YGv8VqdbBQzCSiArfeIs/eaOIG5zhnPoNUCD42/enTAyiXA1v1Smgdn9xp/xPZSwKunmCtlF58yRrL4VEwPoD/x1VOISH/xFMNjUaP/alGgWZ17rbwTH0dVGtrSQRs2E0+aCgZ4CvPBAUFmMNHoA30GtnMmHlqTn0Z7SZOSRUxsjabWlDfFJP5bzJWyp2TVkIvpE+RiIIAE/ASwmGAUrqbAsEruURPMqxSoruHUjAmGwhSSR8mpSYEma81hVsgHTaafHMli3DBxOfHEXDmOXYY0nWo3e2CliBcC8enPf85tZuSSl3dqSnbQhH1NeYvhF/JXhSI9II6721n1FCF4VYqDTjZgwff33e+OmU5WQRpFzEGB4Wbuc1Rl9FJFATt46TznmGogjZuqxFMzgqlMS3buk4NK0Qt49WADE6dJq8XqejXFXj1qAPaNAABAAElEQVQMFjmMspXqueKK/IRqnFIM/pvHVvQzkThe/dbsfZHG3ODgK8ObyBhZ4pNSbNtyEBuPTdo11sgNdTw1AY6lm/L/DbdaJjXfwK58E4YTEmAKyRRv+vTpOHuRRKXXCcFtQArlm6wNU/c+IB+r0mKrdbHQYOXEZO78+HClujv77OzKKzN+LZmvYLLsWBwuxWrZrTujZGNr770z5o8sW5iik9O/8IWcoX/uc5lDco6qelZbLf/EgSun3I4ssXvhRtCpVAeUxLCQYRZ52mm5JYyHmynOYkVyQiAlp4SgMXuPA8i8BB5/fGZxwErHCVgeTTxnnZUXxLzSKVkP6xqWOaOnAQUmCXMfcatSGwdBMHfMC3PHI1zLwHeuozdua/I6olhQzPXirdq5l0jd3dfE04Ot98IAlLRLIsbQGSnGcVD2jvyC8ezkVTzO6wa0H/wgV5LgsNITnDFuxulcJ+DvHP999avZhRdmLnl0HtW5U+z4wAPzM6sicXy+/3BtiZm0k7tND/Q/nMvGeXUUo2lR3FZbZdtum08nzrsCSPEiAXtKXJ5/Aq5sQPCp4nY+j4SkOSAeFvEj5t64700S5t4jAacx7Qb/K7KEkR8v5AceeOAaa6xx2mmn8XK1zTbbOO404u9asJ5jtf43bmLrUTQXaRzpcLfQI0ywbGruOCDqaNI3v5nbs/Pe5RQwJkvrQtwOrgqB//mfXHzG3PkEFCZfO7PKr8AHPpDvpjp85MFqifm4vIfkTrr3cC8jl+cTnxjjy9i6LGYXj7JWWCFn65JBhqMRjgpC38JfnPtjOJJyuElebgksEZZeOs8FvXe+c+y0VP4+eupQYJIw9xGfqtm+yELtTmbfeuutXTFh85DbGQcmndzhX2xcogW7ATlSDtEMGpgPF8KBrZuenHg69dRTXUjNqdmqq67K6YIZetzGqtkBGkTisBy7EtIr7ZuzZu5aXarD/SrXYNwM8PaFucc2KZGZmpuTL6obLgREyo6Pc/jFx0CcYn3ggZznumTNgzVTuVDK80wQ7J6NowdnD7aev2S5dO/IkgSmBwsC/F0CAQ92bwqxxbrffrmXQAeguC3D1ulwQPjlL8e2CvKko6cOBSYJc69Tu6keHRzBUQBet3B2a3yH+F2r7SIhbk/w/QYso/gp+E4xZpApG6dLAsNxcXYIbsLrEkg6ccYtMNUZ/+/cpbluhSNM7oWZPH384x8ftyLN1wJzJLaTkcPNi4x0L5gsHQgeShVORubbi46FOoUwjoPzHECBTgZne8V/gLyhz/FqN9VxUzK1P+p1nsJwXsI4TY68ZgX8uvqBgIcnA54g7cTyNoOD0/jDhLsC5ZLWPVT2HJNR08OHAsd1EVRJEPC85z357+hpQIFJwtyHSEZr0Bhd/BQEwRdo2DE7XqsAD7MQW6wuEmp8JjNYCZHfHcpEyJkzZw6Lph7mUU2ckTt4dGjMFrlKnlhTyECPwP61r32N9j8uwv2sjc6MzmRevoWPOeYYlyaalRtXpKXOg7di8ZTddkpxTDwUh41pDkfGu/Fr6hH6dxI63sq/I8ldPG/eImnGCezME2URptuhPCHR06sI24klYoOPX8tu/xPwZJMTbD2wBRYfl5E/SPE6KccGSjElYO5iSPGhOLJ/y08ZaGLOOCNfXkBg9DSmwCRh7l3s943pNVxfKdY9HOdiEMcff7zrm7kU32KLLciGuF5Rwi3WK4j54IMPbrLJJq7I4PTKZX7uG3IrRTHZAIYDc+eWzz333CeeeIIZDAeZ06uMhYqYMxUtvk5UmJcIx6lozNzY5+a/hIbms7bo+vICl8Q6ed9lDRlqkDBiiXJ9wppx+fRguMm3TIpMWaRPWwPBkQNmpMTxk9fulBcC9DZ0LMk/vxLD6TcIppDkANyrB9NPCLg/2dxn5vBJrtFTjwJz1fswXPEjyb1mez377LP3338/BkEAxDvIhm4CcjHQ29/+dnywnn13EBN/3HbbbSnr3YVkMnBBKwdYIQjXLGvCI81V0HPdoDmMOx1XasyYMcP8ZP3RAG3WMl1nnW2QwlQa3oCtkEzAV111lQbi981Fg64+t7Ma81YbkOtlwRYxR3oVmneB4l9wzBQDQgpHIGCmyAAVr8WwmJQ3svgN4CYD2h6K/mqAJQheizEg0OOblmQMUAnyKFCiwEhyLxFkkrwGL7Ajx6WtezsXWGCB7bbbjqaCk7XGDhsio5QPP/zw5ptvjhx4H3UBN/GEyg9ZwA/qE3PV5Zdfjq3bUYDm+uuvT36nWeI0uB7WJr9BsHPnqJlzY/4pkZrCnXJGe2k+pk2ucKqHfIfxmGPscNbkkhGpP2DI2LuyYtYX8/zzuWRQzFUvXMk1G80CIwfqpS8tS90JSArMzjkHH2+Ac0o/CqDAJGHuo7asSQFDKHTrIdXSQUtWTxtThCClW/q4M8UlTQZ4/bXXXrvOOusU0wxUOOYkKPFfb10iYE6C+fTp0+0xNEDVrnKDr337hKfTyVCCbbXVVtRK1liMZBaqPHBItescnxIo6pEGT0qc2LrEwvHaIGONT1iywgpsOxe9c3A10jaOaoxz47xT6mvDth0eSrTT24andp1ganzKXhmP+daip542JkqREvcXpq3eYYcdKGQY27gRicIdAwpQkXKgfhPabAcPOuggsxHOTkWzzz77zLT4r/DHmggjSM34vkXCPHAgobv51sapSdS12ssuuyzentBLgbYRA8ETxQk0A0diXrUlRk/76l49rGkRtpnsY2miLCxZv3LftmuwH3xQgFqoDc7eQrlTPukkYe5NdtYp2NzBqaPiMTjHJQLuj55vfetbqThcRHD11VfbTd2YKVx9FjkuzD4kUDulvOtd7yLzupPvqKOO2nLLLWFOiy0+vlajUaRP9df+xMAtOrDpc9111333u99tvRU7AYG2X08nnVzeBCQFGtcuKGMZ8eijj7KdvddF15XHsee99trLXoW3cVDC1v2FtG6X2JlUbcHikskk2/jmJpjGSI6+NqDAJFHL6K8NKjkFPwVBbKUy9Wuj+rIbt3jNZi6on/0Eg5j9NnD/B85mps997nPk99/85je02K+rHFdvgLk5LDYhJrY+0V6JVwrAyg72FVdcgY1afFDKNz6X0AD/qD4Z/IYbbrjpppvo8QEc98K/QGnxxRd/5plnqLYQShFAyejMhL2csLKtKN+rRl8w7hiVjrQ6EMWY0eMgLJurGTMaYDv61C0KjCT3blFy4OAYh9iBrdQY263iZ2wnqVagPSCtFtph+uDvgJiW7P2Oy9mlXHDBBRvrqTpEqaXs8I8qQIn7gfXWW4+Y7ASTe88PP/xwrRBfW4IZDcduyj6tjRPLGnvI1jSNjYgUEWVh5QsvvLA9eQq6iCTL24wJ2x4zUCRTyhhWAmnHk1PgCy7Ij6vi7FzPkP35JAvOntK3VJlR4lYoMHySe3Sj4m8r9Z1CaY06Q5p6dLHFFosR3mrlg+vJOzjsb9wqqLU00T0EvEZMvYyMykmggyC8JwyD2j/60Y9YK2244YbiqZgomu6555444pRSNhOIpmdHT9VzwAEHyLLUUksddthh11xzTWM7nMjI8Zz5Dxrbb7+9+UZfgpgNGLK8eCZV//Iv/xJnBfL0oKO/v2efzW68MfcewJEYhn7KKfkBVubrnqqd1Txy9PSAAkMmuUeHM1xjNFI7BE0aD+Ae0G3QQSIUFNnSPfLIIx3iOoy0hXM849adeiEtUMZN3IcE0XBm5fvuu8/lrkp0eFU/d9qAyNwqAqCZKtiDEvzDHjRunnLk9Ze//GWMpiixGnLEc3RDxnek+dvf/vZHPvIR+70UfQ48s+dxnuCss86ifz/uuOP++swzCE6vn2vSf/GL3IkB3bqzTxxLHnRQ7twAZ8fWfbWzOnr6QoFhInT0RRv3ernH6pLldXD5eh20LzQc3EKMt8ZuBgYX9X5hNiCmkKm6OYucNYvfiGWWWYaMLJ7fSuzV0TP2MylZM4EYL2R2m+FWJz/84Q/NGdEfzj///BVWWCHK8tsAmvQxxKBEFeNMwJNPPmmb2iu/N3vvvbdp41d3333hRRflQLjrJa0T0gnsvEq6XwOL56AgsfWGZTVAY/SpDQoMn1qGqMViTN8izpAgduPnf/TUp8Bo2qtPm/zLwNKHqI57/vnPf2Y8Qy1DhRJmP42rk74GZ7coOeWUU/BiR3b33Xdf540///nPX3LJJcCKSYkbBIr0sRA0K/BoxscZVQwMZXQs7su77XbIoYeuOWvWK775zVk33zztyCNzZ768A3tCtz6S1huQuGefhom5h4hhr99mvT6Hv994442EkZ4RZzIALg7OyVCfbtdhoHQyUbkQqB0iowkhvrCW4YRAn/c1WHbzNLDjQu42PchCDLLSZSpKl2Kr1oKgGWjSeKJEoF7+8pfb4+XR7G/GXWjPs+xvzz8/9zHHzE1m33HH/FYOnn9DPyPbSFRvvrW6nXKY1DJRdzpEMjvO7tVv6nndpsxww4uJEH3Cgq3x0nu4q9oZ9u94xztC7dAZmHLuCksc+yl/a+I9+Dse6oSwM6saMWKq27FxQfY8ST9hok4BRdzmb5LBDM4etjcNcImy7KDGhSHSI5RrALbbdttnn3nmyaee+s555/3Fjv3vf7/LXnut+qpXveyKK54/4IBpfAEHZ/c74uwN6Nv7T8PH3NFEhw6BK4ld1Z2+96Qb9BJQicKUACgw6LhOHH7MJbtuC4TgOmR62qO/7DLGo58LiCnRKSJrFiRSLgx9o402cuSVp3h2kBwE8bdD+vZp3FoHAv/6r/8aIlSkX3655XbfY48jvvvdfz777K0bbLDXeuvt+6Y3bbzooh9278aqq07j/jHU61WoljAfvfaBAsOklknkiG6XXgVqdv1igqkWDoI4Kc5Y7c1vfvOIPvU6APtC53S6eNleIrU9/z/+8Y/2RQng9UpvHK+fR4IUKKYft6Bgx5xKOmnsIcKfccYZViqAjMvZpQn4lELkA8I7eQo20+aaa/XVVltprrn+b7/9FnzDGx5feOGXX3/9q5ZZJkcsTCFH6vWcFgPxDCVzr6Zczd5fnWyqxbB7Y5uMuU+1ijdfX6aiNA/Np2+cMhginw3f+MY3OOx1HTlHNx4bRYkXN4bQ5NfmC5JSBduoYxTBEZvJKdfMBNf+/e+fP++8eXfYYV73VX/rWwtVjGHyhSHWP2LrTTZev5JNEube3ZHTL+L3vBxzXhumfogZmAk0I+L1vBq9LCAdlehiIUxKqDKYCVoQvP/97999993PwxDnnbfrvbSZgvSBpIRJgaYqW1k3zPPiF4/1ATuoP/tZtu++c91wwyz2MOuum8U9J5VzsyPr9aZI2t9EQ6lz7y+Jhru0xKmbrEYwIBzBM+k5O5q0Sp8GZAzSEdtvv/12h0vDHIU5OS/tYhpkbPVTqwWldkyBpkqszPH/oPonkj/8cLbPPvmNedOnu/l02nbbTXv96+0J5H++zlYfNQV2lKhfFJgkkjtO1C+KDVk5rTIvlOTc1eYbizdciWJhyCrcIrqE2RZzjJPcGU4Pn1+8+iCm86U0P7YlZYu2SH01ydEpMA7oOT83KGjOhG29zd6/feXzz7/4tNMyjmW4Ezj77OwjHxm7Um+2HWRb0EeZ+kGBSSK5t8rC+kHaCS0jOIjxT9sLkcRQGiAVNHQq3fEWnJ1NBd9brjGSZVjIC89WUbXh2S1TSETGpunBHPTnTfPOO++ksP76179OYR1W6gRnaRKSSY6OQEuY1ysoLF9TK6eyUsz4AQI7xg1RAtPtty95yimv2WWX7AMfmMbtlwutKd/DHmakYR+flBOcYiS5T3AD9K54A5tmYFzProGAxAYzlvGd73znpJNOIrOLX2KJJWwGOvaC0UeC3mHbOeQk/0IVtJw3NfHE7VRNJGwqSbDpD3zgAzZUTzvtNNZKJg8nhgIZm9tuQw2zceDclRpGLIzZGbE0g3CxasLVBQEbLeXXE/gkyoxfB6RDN39PPplddNGszTaba8UVs0sumTVz5jReBCqEHanXxyfjYKSYJMxdP25mbAwGzfuBRRCEJ25e/bgSbJI+DjQiIzUxFGVxXx0rCzyo68YeXScBbIORMfizmRn4N9MlrFSI1d31wKNcsyNPLJh7sHLut0yZdDXsl6yHGJvzq+5XpImTx0d+uJwPatxM6WuxjqWCIk38QkNxyNLU0gTj9kceJ5jffHN22GGzLrhg2jHH/Hr69Pk/8IFXv+xluSnkSFrvesftJcBJwtx7SaIhhk3hS4HevJ/YONDIQJu8iTVw4+PKizdWnIQ0wygnilLBy1hk841Fwc2ZotM6XNEmbtgAMWw3TL9bEG8bgJv9CTT6GY8IrcB14vLLL7/zzjtze+euVMRE5B/84AdWRRKwpWFRQxtmJqiHc8Tz78gzjO1Z5q2UP06curApCpIAKJAjpfif/exn7vpgDsSb43LLLdeoBUOBTmD//e9hkzvpXXXVWVdeOW2VVZ68/fZX/ulPGVP95lZCswkw+n/iKTBJdO4TT8iBxMB4blImlTL4kQONXLk60Ig1EC058m7AcQah0tCGPM7OtRaWx+04DyquTsVSxQfLq4lnfGKhyM1hSLg1k7UXSV4GH26yw4fLXB67lOUWEY5iPFx3xUXekpk+HaQylUpcE2GR6uIqJa7EWOO429bUpWksBUjlSokE0iRszz333KOPPvozn/lM7jBgu+1weZ8Cn5QmDySB/R//yK6/Ptt005yzs3Q844xslVV8fzHZP/ywz5Ft9DIEFJgkknuxWw8B1fuIYk1mUbP8UGs40HjZZZeFLpjjqmBAPSJvEbf2igAh0Caz27rEyFSNgTn2x9VtyMU1Kxvc0DkjUjPllZ0JFx5RYbeHRs0iEii703a2UxrsmJIdK7/llltI65Lh/nRfcc4o5UrpU4ATsaWXXhqnFjN9+nQ+GrFs7FuWlCvqhelrxBNOOCHuonKR06GHHqqs8t5JCOzAuQkPN99992z99bObbsqWXz5fAlS+mlUSAqPAcFFgkjD36NPDRfr+YIsyrRaUH2csHNrsEW1LYEuvLeGMe9LGrL322nIR2G0j04E8+OCD9Zh7KuuQQw5h68ndOeUVydouKBU28TYmjJZwaJAYR8Zbf/zjH1OPENgPPPDANdZYgzmNsojwxPkvf/nLHPOWOW8VRKuT8O8YdXShEphS4cOpRpGJrslqIDi7GMsFs4sFiiLGoEavoEMnsDuatN9+2TXXZMcdlzP31742T2M1AHJlJQH4WK7Rf0NFgZFaZqiaq2lkQ5QzmOOGhyTZNQMgLd7Ter+ZXC2lCWZEz3D11VdfeumlNNEtYZjKCr5GrUzPzjoFWJzdtvDxxx/vRumUrGaA1pvkTsZnkE7tbply0UUXEYdDo1IzS6uRCT2ziJs3+FXfZZddlLX66qvTw1Cd47nWDYjgICvg9YgQ7NXC4sgjj3Rxhzqaz9Rx5syZcmmmUkbqKT6FSPqBMCleT3jhyAKRnDzuzy1dBx+cq1+cNb3ttmzrrXPO7ituXrHalN2GTRjpl4oIyKPfQabAJJHcRz2vZiejAWB7F5y0ZoKakUluTYGaydqODHzimmYyLNF1zz33JLp2YpNjB5X9yY477khmx/XwUOIqDBt0DF698Dt7EoHP/PPPz7jFE7ugbdeulBEC4M+YMcNddFzv2sCwCyqNSJOK7Y1S+pqvUQtWPbz12hShbbetiu3GBJbqCKbseL0q2LzddNNN2eGYQUNFkxeaXAX8/e/ZT3+a7bFHdsst+QWnn/hE9prX5EVX2HoeqJAOQK0jLJBKqXwc/QwDBTTbMD6MAaB96623XnXVVQLxOowV6RHOIXRTAtxxxx2KiNceldUeWPYhzEUi7/XXX7/JJpuQRttDNWpnU1R/uOCCC6hoAmy9WifiuEvIlCCxvPvttx/DxPYQiOIa/BYxEY5XnTbCzfTeyKII2nn7BNT0kSvi09fAIV6th8wBlgW6gfjnK0MmT/DQQ7MOOMA8MOuzn511222RxRDSS8bClf8CiPUNfY6IUhHFlFMzHPQfZBY0cJK7jhJz4khS6Fw20P+M8M7hdBGC9tWy+C91BLE9IFOqsM9xJTSVRSRoqUQA5aKsoGRPevYGcCI9mdQRLap24jNNDpnaaaOWym0+cZQY6YUjkBZGKaYBwIDg12V7nkgZdUw1pZRHWGas6iKBXWJa/rGUYaX+3HO5wL7TTtk992Snn56tuaZEeYKCwB7pK3F5SzHOCbVMih8FhoUCA8Tco4+mjp667LCQcgDxREwsbwARwy+cxMGJqJ6hx7qD9Qgre+HUAVpCWy4dJmXx6kmv1YH4ShHkZlFKDOqOJZdcUrLe9brG+FRjWB0DQrGOEkSMX4seah8Hsuyyshqi3KfEH0tMhz733Pn5I86/MPQ998w22SQ788wsnLAn/XtVeYEwzV4Eqr6PIgadAoMy8mNQ2eXnxZSWkDDFYCONtFKfRtQUEwG/EYiOGGG/8VqKlF1MRFpspiaKyBxQFZsYxkjVSWirZtQ31T19iuqHFFmMDGr42vVIyJCamaWzb7GNaVPRGR9SM+uOaA4ldtgWUc0i5jUrrhQ7jaxWUjXFBK0Exs1eE2ZLka2SPfD064Gh36AVm0jqGvwdMW0/UMrbpqbTz5XsrNRDYN9ll+fvuis79dT89upXv1r1cmMY9vixgzobZqo4yDi7xV9qFDGVVPmPZCnl0EW2SvZiT4iKq3JQo0iTRIcBCQwKcw9y2N0icTh/8eijjxat8RC0RC/dToz0sf0VrylNpC/lqhmZlsbFvKWM2k/MMEYiS3S+En1q1ggFqqvZi8igOZ2MrUUaYfoZJ4+CwxaboyaSXY9EGWIve5tU92jorheEkjVhdkjhoNjNN9/M7Adnx4jtu7KF/8Xtt69O60VgdzaKwP61r2VbbDEX545LLKHE/KmMKeOq5FSghKQN+XB5X2yaAFBKOVyRFQLkbR5op9/UDVJMvZQxpoI4xcSDEx4U5o6m+oqDfB43nwXRo/f4tWvx2GOPhWFD0E4kstotZPBgJoi9OIx+4YUX1r/FkDgCpsiFFlrIKwgRKQH3IyJto0kZpYg0NkQyhuPgKVpUJMkuDuVLGf1bpB7PuAJXstSISJApOl1I9vTTT1MypEj6B66pKC7tSqVIdaQPpQ33JJgiQWDCwdYtRQL4yle+Ul4QIhK2Ih1QdBJdZPQwkfAhDrPXhoBIMaog0qEkvgltqaWUSIR0qkMxAmakREYKHBVHyYj0y+AEDaVEKAEV1wSygywyjoCKrCa7SEWMS3bo2dKUcpFFFlEEy/Soo+zVZEdhtW6S7GiO8s2QnV4IAqW2aJvsKIOeOoy+pG9Yg/aU7CisRFaPtO16HUdvQcCHHnjgn5VKverWW6d95SvP3Xrri0477R9rrGEAPP/AA/iZndNmertGB5AFEXoOcm9viewqpWOP29u1ozQNervBYjigvLEMgQF8BoW5I02wD50J0zG8E7FQGcPCyzCR4EQ+CXg1Jq3lDaFg7tiNeI/uiFkAhSPoxJFe75QgIqVJkcqKov2K9ApgCsfgjEh5xQOiUaUEXMqIVFwU5Gsx0jQgpa/FSEyqGBmgMPGITIxYobEzJrtIXa1SuVnRmUxCYKZI5cpeipReAvQspgRWyoiEvLAnCJJbAv71ryK9phlCTHB89UXzSCwyTMJFegIxkYnsUYr4BmRXKWVFswIiZWOyR+lSFonZJNnRJ1E4sqsIUBGpLl0kO7CAI1qvyR5VQGTnsHbbffdDDj548Te96YKLLnrw//5v3bnm+vMaa7yKC7Att3z++OOzd71rlp55333YOobNciaRGpIpXLO3R3V6Qfbo2KnQDnt7f8iuI0Vv110NLr/ddSyqTbv15PJyt2B1C84555wzY8YMNrxwi25XDzLJ3Zh0rrpegq7E10Sjw0i8LzHWhGSHMKuz47ZM2ZIBSeOC0tcBCVRXB2Jdj9SFGIzHbF2seNcLqod8sdBOwrfcfPP3LrjgTy960Vte+cr1X/nKBbD1yy7LDjwwW2edses1moNeqrjjCOSnEEdKAEop4+uwRJbq0vYrm1Qr41VWWaXmiG4bbFcyDorkHn2CEPHrX//6mmuu4ajW0rhk8lWscJDSXE0+Ei8Q00BwzBAbU/rqSIk9CvWkZJ1GxlUMGFDsUIVOc86CYBIzf3CTIp6dlj5nQSqlrJCMivQRrllQkKhEkGq6BVi/Rcybj6xZ9IRERrurIG1GhIs16jVKSlREolvnZNeVl1t++WWXX/5Pt932mquvzrbd9vmNNpp22WXTKle15Nuqeru/woJ43DrCikxNuURFhrkX6QPzcbNLE88ApuxKb8dz0McKWAVn13Ww/h8U5h5UQS/ql3XWWQcHpGhOzL0B+eKT1iqmicYrUbo6UpZirkjffqTF+KWXTltooWkVP675Me7ZSo+AabTY+GLGYELiOsppcp0jjfNOS6/kT8gDK8JrrHlL9IlPvkah6TdlTzEC1XTrMLJmKf2MLOKPc0UFq6vZC5QUDWyUldhlzYKq8SmiLTz2cJ2mHWla/va3ua+55jVHHDGLwH7qqXM5dFqxdrfYiS1TjR2B2Tnz/2sWHZHRhUghgUmDlEWAjWEOfspmyV4hXVS2VKnBeR0U5q7r6EwUoLheG9Qpscg2IHSUBSc1wJ54Ir9E+NZbs+9+Nz8eUtGhG1o+GcY6DXu1PfbY49hjj6UmduDeBi+Xfh2V20TmxEGaSDslkkRXsUbkesUCEX14LFDzPnShVETo99NukNKj/0eghWZIAoS96DPOmMUkZpNNpv3iF1lFYM/FC92yagpvEn5giz4CTWYZJRsoCgwKc0cU/dtvkRnVnEUHinxjyMT4WWCB7PzzczvijTbK/WJvv3229NJqZS2sIn955pnvf//7Z555ZhzbOfHEE13aYCaj0ExjvhdVs+fTC7BDCjNIbXXIMbrzPq6wYGhPOHVONdhrYrJRweiTXalsFG0X5MILLzSvaBeKWh7E0h51lNVsZwiGa2n47LPZVVflPr8eeWTaWWdlH/1oEtjTwrE9/AMfeA7NMGyvnpM318CN/OHuSdOnZ1/5Suaauh13zL7zncy18Q6MVFbHf3ziCfaXyTMfns4pK4WmQC96V4xMtjr4F/hdZFK9wLbPMHlc4fAgHKPbbWZq4uq7RRddFBol3lp67RxPV9Ta4ubjl2pup512on7kR/7KK6+kr3NcdubMmUyhxi80Cez33593s/33z77wheyLX8yWWirHML62K7CnOkafMQXGkBx1oUSZYQmMXP52taWMK8aCDo/Qexpyznm714aiJsvesMgiL59nnp9cemmUd8MNNzh8zzVrV4uvAWw0JhNRgmnaAbvtttvcUSfehjM7Nuc5/+u//strJKCx6dARcSoxBQIyy2jGOfy5m+Od0fvWt77FX6PDRzrDWmutxS5lyy23dMpBk0mf8s4REO+PwP7Xv7rAOnO2Vjc7++zs8MPHOHt8nSNPRy+j/tMR+SY08yRh7oPSBY26GH7uHd111+zyy7Nf/nLacsvNOumk7E9/+sKOOx574omHHnywUb39Djtwyhom3r1APrgDI1zcRAeryywmtPP1ufCgs/UTNzL4qdIpZPD6cJ/rlYiKw/KLwNM6XzeUZry1iO8W9RyqclQtmRVatDmvR1TnkNKFHvoD81+mYkqs/SQd+n335SdOLQrXWsslftmnP505OeGrp2OBPRUdtb777rudJhHZLSIk+KNArykwcGqZ9iqs5/WCRbaDTIwuI81BJ5vD3FGdc860LbZgw7DoV7964fnn/+cvfvG3p5666oorXl3xoN1TtFkfkUPVIkZmT8tqh1Z9z2NHBwenCeEV3cElOgdX0LlKMLyGQefkk0/edttt8XdhLioPP/xwuyPdmoOVglGaS1wHCBNXA1577bX8fCnLGsJMs/LKK7swhBczLTVHlyYx6FdEhz//OZcYttgie/LJ/CZrTh+dkvPV42tXn0DAJgHdUVcBj4D1iQJd7hB9wnrwi0ki/BvekO28Mz+r0/jUXnbZec86a+W3ve0jH/sYzl40Ou5RhdhBOlsPOI4W/KJHBQ0LWHTAs5w+558OZZil8mfAs414Vah2REx/whGxTzE7tl3NIL5SaNtPPfVUrigFLAsuvvhiswv9O84OOEftK6ywwhycHeMOgd1nQrrl4LrrZp//fAYrDopx9iTOt41cw4zRcxomGX0cUApMEsl9EKmbRHg+zmbOJMIzZpi15ZbZuedme+2VrbjiNOM5ZK7uLaVLdKBzwD6Ih7yO2DNsarOuBGLSvQbrpBIJO9Sf/exnYa+iol13RFwkXpQ7Y8YM3JyuTKFUMeYMKqCtttrKSoJHe4sJO70v5AqBXfd46qnMdamssGbMyH7wg2z11TO3ofZGYH+h9EpoZApZIsgQvY4k9x43VhLhOSvfccdpN944bb75pn3wg9MOOST3r23c+iN8xUBtDhccIZ56A89XrARn33///amY+YBl0D3+Zl1zpU+CVIiTSMfUT1il/PK85gCd/dVbbrnlzjvv3GKLLbiuNA0EPTuvePB3Kwa6dVdqeCUX77bbbux2HMymjYn7svPiKgiN9Q2bvdttl3P2vffOnD6lMsLZeyywKx96fmEb5+A6r/4IQp8pUH9fvs+ItFicoWhgMHKwSUVT2a3h1yIWrSQPKUyOP/4x43mV2pQV/AEHZCuvnL30pTmglKAh1Oqa1ouxZ8ik+hvf+EbAoz5m7UebXJ2+YYGT/CNlN/4ejExVEQdnpxYnRNc7RdwhRRQREILXp6IjMm8doQpjzf7wh/zkBBtH12e7ZINtDFusyB4JOkSliewU7gaap4m0UytJiQXF60CRYJKoZYaAYRmNhqW/f/3XbPPNM6cijz02+9jHci3qZptlbCIlGE8ci2qylrvuuut49+UDnUVdTR6hk1Hpxi1r42zWDVR/7DsyidVGyYjpwCrjd2M19OBd71pFbh5t90IRYRegJ7jA+uc/zyzvLrkkO/TQbIMNsoqn5byH9JfPlujT9/YZFdg+BUYTcvu0azmnQRtaGjmdNznssOyCC7ITTsgtas44I2Nw5muw+FqggwVwem797s5PvrwpEBhXSFvkFymrtf8ZZ5zRaLMuJZ3CAYu/kjUItk4RgbMLvMB2e0YibUcuJq1bROe+X3SABx7Il3T2aeadN7vppvzKU5w9JAMJ+vUEW3fkyh0Dyhxx+X4Rvmvl9FZy1yGq+4Te7OlaDYYOkLrHQGWbzPIBl3fI8LOfzf+23TZ797tfmADmpFIQzTVVbPXWX3999XamkSZ9xRVXrKkX9pWrgx133NGdhTU264aObr1BmKlfCTBWG522f7oI/UFb+wtLx112yfn7t7+dW7K/9rU5en0X2JWJCLqcnRsGtSUSjV6HggI9EQRC5FF/ncMIKT3BpHKur09PzccwJoIFi19ssfxACvcgrn96z3uyI47Ifve7saFuSM8mUdCKlbRrd1ZddVVkM+SY9Nks5VHaa5GYKOyVKpkHFYdgnceZY7NuzjljarZAqnXN3UIE9KQ0PQxEH1CWtr7ttgxbN9/j6XffnSvrcPboA30U2EuVRZ8+kaJU8Oi1Ywp0WXIPFoObB2K0B66hco4mxTvtzSyPzVn0GNNAPow6HkidQ+iYkq0DiFobvUzRbau+5S25lRvh3c30vEuuskpuFOEx/mfTB/W4uadJsNdn1OH1zBwZeEhVkwIaggbZTXuBnFaomSy+Ts3fkk6mSITotGIS0VJMMbKYpbWwpo+R8thjuYKOp7l3vCM3eaSQSU0/eyi1Brl7qckQxVp3D/AIUs8p0E3mjlMHW+d1j6kGdTBOxF82azzeTXURXJ4K+OyzzzZa6ArY+cYtdD6l8dNejTuH0F65Xchl9Ib45j5Mvv1WXDHXwjtWzikN15J8t+Ls6FOx1UPeT33qU0jnwDqx/aCDDlp77bUFoFGPgLEr2K1JtAv1HTAQemA16YKdFeNrxhQTtFatYOua/plnsmuvzQ4+OP+1B+NcklNvHgm0++xJvTXgXUodtTNyay5uulTICEwPKdAdU8jU9Wkwnf07/fTTOWaaOXOmi4+rLxjkx5yigP/be++9lz8NydQvTQxN1jXSJ1PIVrM3WUpfkyUJneKVgxHeJe+8MzvqqHydPttSIp8Dp02zHrr88std7kU/w64Dx683t4knedHPtFqR1KCtZuxz+s7xJLmXNA+JmC5povKybxHTp6qRTpw5su5861vf6jWlbKHWWtlTmbDZM2WnnJI3sVncim2ZZeptt7QAv9tJR6aQ9Sg6+Cxo7r333rse9i3FYzq//e1veTHFSvi946vaHfBkdnZ4+gcW40EOj2twjRaMadlllz366KMx6He/+91SNj9U0pB+9NFHLQVmzJjRfN6WKtXXxDHgDX5amiWWyB1zE8lZStx4Yzb//Hn4JS9BZE4LENARmPe///2vf/3r85j66x6fEL9J5i5xPGoNrEdAe4mMmL5SY7zCElbwhGRgO16mGt/Zs6NPMXuErTtdqOL2mOOPP57/NQTH6DfffHMrIT4jLUxNqy112nx95kFVf/Qw7KOszx5/PN843WabzNFT8SHRVyhfA9eJiDJ+SQ+eiSh8oMvUA3UVourgsqAYz538xvjX3RdeeOHrr78+QKkwKd5Wu0DpEekxqKT0ibkeP0q8oXo1ATTGJMpKaRzjvuqqq5rJmLIMQQA/rbBU5Jh1222zttoKV8h/b7551t//PlbZCqFivqxZoyDU008/fdNNN0lQolspS004pSxeayYrgerPa8JNH4sSU0w9BCSomUa/ja4YGaMHElMYknI1I9J1j/+/vTsBl62o7gXeyHN433Men8aEc1UcAlEjghqJXDEOCaioQAAnRFQwTiAgijLI4AwICMYBQYNBHEABEYWgiAMGjChOYABxCIpPEQ3RxOS+3+7/vXU3u4fTp0/3Od2Hru98fWrXXrVq1aqqVatWVa29884762YOJqV7k3fMYu9973u97YqzSYPWLB37179ec8YZa7bYomrTd7xjzQ9/uBYYQBq9mXnZnlM17pHdqEDEQDVdNmKXoeB0lUsuuWRiRdCCF+yNyVSTm9XVkE8M/kv5vdP1JZrTes320YzAEPE8bPCqwXmTDyaceuqpjvQFYaOU8igvNcpGosZkDWSgcGXc2+AsYNMdieJG0aMuWaq7YrrtttXV83e/u/WmN7V23PFW7c9K0ASrj2f21fJwCZP7cAOAt2kpMs6hZtYel35ZJKj89FYtgsOO3Ji5S8P1atk+BY3wFZpRYt7iDJ1o5tvLWSCf201614JKp0p9672lwZ+84nf3oIMOsr40gBlhOPmyP+T7iDo5DDR9KvwhhxyCUVZRfcqtiMHhNJN7SRwJcP7MFON+8gknVI3rVTT6yVONUy+9Ave6cnWWOOEcWJRw1/zGuYndYWqLVpKdJq7C9cHTq/5ghCz6fGyMNfPAAw887rjjGEB7jZaks9SffPLJ9ml5vXBRk4M9RfTK0qv0KUjPsDfyef5zkZUgOPPM1h57tHiIfec7K1+vbDXtmle/vUV8n92wIvKI8gsuuODMM8/0cShcXbVq1UMe8hAijAC98soriTD7KGTcDjvssMkmm0jH7XaZS3JYsKre+pCGNvGQrfZCOXQ0IfGpwNEC+V5qVDIEXi+l45PUnRv4XflD23BZDJK8pcLvvvvu+rnumg1qcT0wH0EtZTUjkdppGk4c4zDOsSiXTrkT0KxC7DDNnBP0jAPG6QQRNCNlcA7o/cMFA0lGvzZFDX5xSlDDAjPIo1xR9vfbbz8uT4OzD0lUCffvKe+GK5HEAAo4S6Q+uab4FT6XBft3v7vmDW+oVvRPeMKas85aY42f0LGoT+uQy5RQIHmsMyEcIyW1Hcflxx9/vIVX3UBRBybLrD2f//znuz/lbGtedeKsZxlTPIVaKfqAUSnCtPQOJo52qFOVuEoBoH849f/hD3/Yyg9gAfOJu3qtk653Pe5xj3NfzLkv6wMGd9cLePWizvsyIr8OPl4YxnbvePUmY9s5/viqyfyddNKa665bS3YdZm3SZP1L1Zj1VLnOscmicvmoCX8m2Swz/D4JrppC6M6UbmdjVHXwGaUOSS8gYvzSwmjuepJ4kNfBSpzqZC3Me63trPiwLa9WZoTe5C9qIEcFr399y1eEHJhjq3EymgcSqyWLejAdy2dqV3TVBmeIMMqsvSCODx3/4Cdrzz33tPDC+c75mOxjnOGdzYcsfOaCmkxWQti/mRoljvaRWu38Ppx6jl9nVyjXWTXWC0ov8k2MfIKD9sCM4yumdRimJxUpKamUfmV1ePXVV1tNymJbiPEHrxhqrBS94o6N9JeraaHSTP7SZL6n4fS6XVP7pdwJXHFF9dlFX1Gvw5SCJy8StligWKtNHnUzigbgwHAzX1F8qO0+5Q4JPbpTLgyeQn+HxMDz4RuR7grROlqVPvnT5jpiR/efrkdDT7jxxjXnnLPmqU+t9MF99llz6aXZa61e1rR4jCL+1mZZ9y+sI7kopARfkrWUFuy19pIuBJXZ9wUveAFNP32g9IR16Mf7P8UR5VtuuaUdF4VJoVBn7VgnJnGLPN7SszUK2FKGubxklKJS9VyhvqRwq9JIgRCvkniz33rrWFF9+tNrnv70qnX23pvL9vWtA2yqQlf+TFUNxkXs5IugITV3DDNxWMgz15IR6llXfwaYU7qDGLGWOUYghShFdIXrLKszpWvG6U6kD9LQo/fxS+Mz3LbmPvzh1ic/2dpss8oW7866tzUtHg+ZvOq1Jrais9uEPProo32X2egluMFI78VG6QJIcu1e97qXrUV+caMCS6/jH3c8xdGgX/3qV++0006nnHIKe8tvf/tbbhi6Fu2VpZ4Ng7y1jvEVUx2sAFuXlHiJKCXdL7c0MC0pEq0anQKQUoArnntM67iUdOGFlaruJKs2cjWJzs63M+U3WZaWXeuJHDam/xjdw+ae5VtODgwp3DPG7G36vg/zyEiEu27Ega3xc9VVV2FJRteAvFkQ8IA4JxSMdPAXEX/3u1fOYH3A4T3vqfx9b7pp6+ijq+U/drRPX9z029+yuhRmtpNvRUa//vWvZ15gWCDatF3TttCj5hpdMBPYSDQxfPzjHyfiwd5M0vXIO8LktDXrkKvO+t7znvc8nyH11WnpyCsFJe4qAJsSyKQzQLGnM0B5DECnV8hAegthQvgjpSSu5VhaQaG4bYJkIuPAmdf13/ymddZZlUtnphvO+on1TLqFuGmIqDsy7VfjmEgep4HwGY1rOTCMNU0z6+WEgv1Ma16Yog8uhqkZNjDwZehksYiUxSBc4rydXX+89Ic5hp+I+00cxPMmxi2JT/b4ZKvjNPT6Bz5wzW1vu1ZzD2SbKQ6W0L5p7lowTbkgXpFr5DtTtQ1GnxBy05h6OwSeBRVaB05X8Ut/F/KqKwFJZIdht3F03Zzk+0pvfetbVaHAd9Xcg7NrC65NxE9/7Rm0Eut8fvkAy5FHVpL9E5+ofrNWACMELEin5zcs0n+WePKeHg5NOqXDCPfUiQLIi0COmY+kljoTPD4QTL1ywbXr0BpJQSNEgmaBsOikNq+kd74aGQF1Ee+KoyvsRLyTdvzSCE5Sb76503xVnDhjW7jVrVjMTzjhBP4hpGnB4WhTXzJx0003fdaznmVzle5cFbGEIWTjcCmza0UkgnFT2g4Bsc6m5MS6s54SC3zXo5AFbZdICsV5f4wwXHI640is8wJ06qmt1aurLVOhgHVBMR1JYdHsKOR0tFY3KocX7uZz5svyceFuyBeWlrFKDXS2mlKZ89RlEC4M1/ihQy3yQqEjQ+RdEsk+SiIhklcFclxERcRb+9MQGRx81GmbbTZgFthzT14l/5wXWVokx8K+x93iy+ArDBqMFagNecNRlUpxSMnwbREw/12e4Yrpm2sQ+sEglYRyCynIPNYzmuH6FrLuJWHtLzJdGv8/tHWHYY49ttLTyXe/K0Ws1xmV5d06Lsz+TxMHhhfuakmyE2SjrW6kxkJx1ofrQvMuFD4UpkTnoBlt+U5wJNT5EyZgcx55wW2OwG9a3OYoYvGWq3noTENExJPvvNNsu+2G5557B1q877QdeOAGe+31n3e4w8knnvh2LuNHQY8FO6XYKVjHpfI9v3koXKbXke+l8EZXceqxkVIg10Yi1rE3kygDtIumJ51UeWZ2F8k3TrfcsuXr58L0a+v1uocttqBzb6v+ahafCg4sSrizvZrYR1tPXWqICaOhjo2WpDq2UhCfZfwlcG5jE9h5IfuTTgRnPIAh9B37OfvssxkEiD+HUtiv6rNCHeco42RQEUYR8U99auszn6m+xvnKV1597bWc6fs+n6MeG1DktZ3JoGijC6FDTTW9YU8j5nFlkoW7aqVdutZP2/Xsb0VYR6zz9mXL1PEkVnX72H4Jd3vaQoHsWsZ0JoZp7ion0oeH01m/lU/18MLdkHAKuM9+1EKZl97jMmTuuMs+af2pSHbHw9/+9re78ci7OhNHZ00ZrPhjAc/EdM455/gqHunPjyDIgqQz12hSIqzb4saG6e/ue9//s+eea7bddoO73vWbF1xwvwc9yDTz+y99aQPK5p/8SXWWg12izNCRYguhQ/WtVJizG7bsgiNTWh4nrUFRlcM/NyMsktq7cAN/fvCD6lAjRxc//Wm1d+140iMe0brTndbWEfzC+bY278T/07Km8Nk9polvqC4EDi/cNblZ/cYbb4T1ZmOjSykDJQWJC4G5fDh2O8ZARK0HilBmW/eJDOd5XGR3a9HrYmpfD7ouZv6jKQu+hbTvvvvyT7LLLruo5tjluymk3SiOQn7zssseu+WWa9qk/vr//b/bE0mklcPX551XbQM6q2cn1olsKjwR7y9zw7oq9PmvIpT3+93vflzQMEyJdNZrkJQUAVJkJB2pD82dryywfIS2sjxEpvstlsYbbmjxCeMaAX9twkEHVS59bJz+7/9dPQZ+YHZVWaYqpO2+/e1vsy5yttPZlFNVm1siscNYzCOeSC4HpdmasW3xY1LXgZBAd3a+8/sey94y6dkkOxlNpnOT4JdSI6T6ONAZVIdiSPpzRXL66aezTf+9ryy12QXh0lSKE/2qoPa24QYbbnhH32/j+cuheCeynZv0eW4Kqd1XjsVBUuSLYWcAClWQws747nZrZ3XCNHq9bYmPfexj7oWCwaVG3T0K4R4A8U5U40up7IqlRJJa9V37+uEPK5P6y17m8FblT58/ziuvbB1wQPWRW5IdvL+VK9bD7TSEJl7iFhlfW9/SMA8j3PEo7c3y4PSFS4DFU+DQ7IMQElde/fr2DTxG++DYFgQ8ONpAoi346ewPe9jD+PX2SGr7Ffpg89aMJTtg50k4JMEuB8P7ZBn5KwTAiY7qFz0hmJDio8aXnmwMmp7Z5R//+BanKy4lOd5Hjb3NbapLlZFiRfZ1I07tEhovJSqOUr///vvzzWKG4xWdOStkFOCAgaT7uy9DlIhLLADjiqRqzohiiPoKIi5Y4MZhh7Xm5lrPeU7FBNsVLkC95CVrjxuZ/2QE6W+lBw3R5or/y1bZda200nk9nvoNaZaJyLCXSIG9+OKLHUtfJHlBeOGFF1oN2Jk0yJMyINrIiAGBhwPzaR57DDzNoo2uOjh51eBYd7HTDRoHB50QZ6tZaB2HIBtbctQv4lKJppkKjwWH8+9utNp0dd3pG9+onJH5gqvApuxUH7dcXAqz4RhetH6/5Fo3oaZqWNGLG1wqOm5x8MEHQ7zVVls5N2njwc2jtFd+af08Gdia9sVdHHYUfdVYP60VgdGe7VD1exEy/ec/b51/fmVMP+OMlu+JO+DIYOX8aPlQtVyqvy6XjCs+pHWsbNJ5Rl7ftEPQdutZ1Zvlm1ZGXt1lQDik5o7SNDkf3yeeeGI8eAzdCQgdpyrdIeQqJOcuiIxlYEa3ItPFnY2hd7/2ta91YpoSOgR5xB/BynbpYicRD4mUoTnWjdIuaZZBcasSgj3GrUqlyBtbBL3fe9yjxTHL/vu3vve96hqOTRRKq5OUzDVuXTI6M1OAZ7Gp6/IytiT8r3g2d8XfY2FLmMZmZQeFo2CvzDG2Xt1npgo0CHVjls5ug/rwww93sojvxnB4ZMyJFMlvm8q1Mtoa5RvfePh5523oE6abbNI69NCWr6D4eq1aM8iwrZPsyRWxPjF9ssHAMT2mNeNLZ+RF4GuYqmf5E6+3UmkrXS+dtPE29NQTpTQeR07z1CEcXrinqk5zc7hqd5Go0huGGJCykOwGP+npmvgS32UfsMGcenQ2Jnb2XlrqvKjwRzV9+9TZ6uxVDMGueUsJQEamNRB3DlLyODc3R7grtJpXpEbEG0AUeaYJWryPcdsVIH99MOiyy1rbb99avbr6jitzyne/23LEm6XCH2DfVGmj5d5dKZVwX2e8KhQyx+MYwS3FNOD3a1/7GhoCgAxUUQuYqmjrcb3rg4ucy9PiA7Oo34z1suAgP/wJlHT2KD7Xnvtcn0C557vedSskEehf/WrrLW+pVi3OERU5UXItipSpzJw+49BE9sDyOJKa4C6+csDjHtjXvta65JJq7RRO13+VpVl23dV3yZtvvQqSAt94HAmd045kSLOMamvsjE8ORnwkz5h06oDOlcQB+UJnN+zJGl+ktCp/4hOfOGDGpQFLXRxaJ26celxkoThGuKuvY++f+cxnVq9ebR2wIHYtlABrasuF4iKCoOfQMd81zFZwNWgSCEE6EnHvs4VsMo76McQ7+ccGbfyR8sJuu7Ue+Uje0yu9/va3r07Kt4D81LlPkaoiGWHtvhGjExuUC7Fe0QD4PHAoxaZFhWpdwAFhLTFtJKw0w1x7VrSQ3zLipYhLtN9rZjJdWYg4JsRDgwNCu+/uZulvHvSg29///hvku0jBAB4fZqHNAc0x2qOQuKtNNIhNn2OOqVxmHH9867TTqi7mdFL6I0PgHe9YqRB6or5GneDH0yumRBm9kuKR0PcH7M53rh7lAqYjUyQYFGdtuKhOTFoZw3Qua2r2GT4CDUvCS6Lx3H90ABBc6QRvw+0LX/jC6173OlkkDqEjDJGlP3l5ixgRhz3sLiz+yj5U6CRwHZ7xNR9biFJSRIob4W/Q+uoQ4gtaJhp3CBxuKynrIwZHRoPTI6S8IcLm7sq+wccNGeXK5R2vOLOly9/nPmv23ffWv/jFv//+96eecsrfcG8ryO4PHn8WB6r2P//j03dnnH76Fd///rHHHLPpJptYmWnuNHE6Dz8NNmz22WcfZ2kcRmLiY3anKKwnrDOmURp/RT0vNMhlOeJ8ulUIRzrUPy7GfK2Q9cltg89+trpl6mLXjjtectNNf7gFG9Y7uVtS0oX45Ikjv9F2VEKZZHd12nFc8jpKneNIjuw+85nVzbD2sbJKrzjiiEro2+R2EdiukCXiySdXNGpbPo0sNR/72Oq0l8AZhIysgA4HyCLMJ4QqmBUchtfcw5Rqgb9mjfMtPle26667Wl8zmxLZVNRsxRjDQuEgYEGKQU5lc0yeLmlpz5sVBTPqXgEePBKcg8MPCBnKSWH3GGUZSSnqyF5h3xhaJ4jrzBmQqgWBFfzhrUXDUUcdxTSE+RqovF2PM9LZc3F0TgsiEGnchLiz3uaGyy/nb/JW9773t77+9fvc+973c7qJ0cZc9ZCHVKZ5stJ5wTZqc+P9H/CAvV/96t//53/elrrVlvhVb2gPu0Se/KQn/e6mmw47+GCawT3uec9DDj4YbZWbs3Vg/q8Noa3Wndani1nnm5bsGdg8oKH/67+2zjmndfXVFQzLEkMTwzo9kM7epiR5NyBaqHxRBZM0+21zIL1dM7ZbcsRMsVKyx8HvEantLJJFlF5GsAbeYwAAQABJREFUeeAGyRlU7k2lWCqbtcl3nYXObulF/dOABx5oUq6mbOfOXBnm18fXrhxetRdOsnOKSn/PfD1ioqcN3WKFu/pqe/2Aj2wOAnnWZnDweSbinvj2lpQnVgpbLPFis2bAce77sMMOs2wn38m7ASW7smCr/xbko42kc1Mn2cfdLx0JcrxSTUx41KMe5WgQQ9Y4Rk6d1II/EZYZ5i8fnvVRcsK9DtmMFxkKjPijFBuRJKOjLE9+8m023JDafviBBx7ypjdtyFPNSSfdiiIsmAaoYcSoYXrXu25wr3v9z93vzo/abW99a/IakhzKTFmZ8299m9tsv+OOT9x2W/b3P2p/9VsD18GahMHjTzfgvYtLgF/8otLTrruuxXO9A+kJ1vPUf6qgOYmy568+3OX1p0YKIjZKTZslzZ5HzwHMxns6AMlOFpuCKdra8H3vq1rVstCWR1Zuv/xlZWBxAVxDaWrHuLjF22ijyhTj0a/gnKp5mUlHJ3XVjKBn5LGLdJ/7tO5//9ETP10YRyDcVTgyy66aTVEqvC9P3uc+99l+++05lmLNoMgXptjQ8+lOn+NggeVV3LmRGGEHl+wRUpQ7OE0JBfOYIiYhHsHsGY4Kf6YlH5fwIdBR4eyFR1km17xNG5lx7ZHYtyTfOZlhkc9c2wtDlW44Rvy1UcF5qw03lItBZqsnPOERD3+4D/vdilt/Ro/rr2/50IqdSZ+FSpibu9XGG/O6a4zyv966970r14mUNIZSA9eoZaWx+Ntggzvd7nZ30prXX1/NqUZ/JLghmz9F08oNd0Lcn1WCK1G2BC66aG1B/hn9FvMpwrXbu9yl0veK4IazhFKjFkFwsy9VFZBZJBygAdSVs8WzRTtgvx1UW9q6DHO5EAmh/a2vXvzi1umnV4kEtK7kTxYtbzNIINat0HScubnq0caQvPbs/TLUcPaTFaZF5ky4j0a447LRHgFNJXzsYx/LVOdLPWy+ToZYbkciAyBN7E865X3wwQczZJM1EXbzi5h1VpGf/exnDk1CaM5w+sJOXdXIYwvIU1DoH2EhEI4cZyd52EtPL+mYrDr8BJhTHeu0YGIK0yKDEtNeopHsVh7nfe5zH/zQh/Kl7GqoEab+BLKYYYT6ZAiava691umUDShmP/pR9f05q+hG4G1t44038B0lCtiGG9qkrdhCjlPMrK5ZexrBgsBmL/3N2HUVyx6AUW7aMLj9WVg0gklCgNNft+Bw6hI0RLeSJz0tbHFUZhwqlLZiD3v1q6tG47fU0VNBExH3TOc6y7nnVo1pgnaTmhpgI59KIFDkKRJ0A1q/XZX3v78S/WQ6YMKd5m7t59CT1cAsVBaVEXIBNqFIamovQUxVjwWAlJ+bm9too43KcBpQYQ+FMMtoP/Css86CSp9zaNo36c0lC8IzYH1TnP09V28chbQb6VBHoXxAJJ1gSDVb+PqdA0J8RnYCjDwlFQnaEle6I0Du3NoPp72iCkCf2skIIPM0rf/Zz342q9qqVavWct7bdCSCvjN4RdYT1vQugps1PweYJfpz3twwlUg9jwg2mg16ihxtzdkIv+IGtAnAEop1iL4XBy+dZalIkeMl0gk2SxmAA6W3lMgAmYYHoYZr23WfRBwez9LkTM93YIE1Yuutt147EJam7MFKGZnmnuJIByGCQIQsoFl3KtcABABlGhiEWvDAnPeAECtZZliucytnkOzDwaCQZQO1w2XvlWtpuoI51eKJCaiQkdbx6+NzLGPPeMYzjjnmGCwFQMRnDg6fkyUVl2IRgOHM4r5HaqpzOH1ubm59LTRNJGkYld+k5BUZ7a9rII7B5y8AyWKeCIauuZLYWVzX2aU3Blv6+FOvcm/YW9abjFAtTouyVhtr5TWjpnb0RevpDn7TsH3avz9AEIZm8Tz2wTbW2i0X8m561rC0hIlyGyoZLfqHQASU4DEAhGZghihNxswKQ2MYvFBn9RyVYUoaPEt/yNDsYmc2G8KQ/lmGeBu0doNzFLJeCgLy6PN4RxxxhANOvnbt6A7xbUkhZNMbh0nzpBjeFmE2lp2RJw25x5mrS/Y6fQaQP6PTX+J5m85h4Nb/2p2hgmQcp62TIPkTL+ZyMI0sQRW0vYqrk9Q3zrJXtiX6At7iXqaTXH755eM4CtngpmYUHFh1ulF3EOp9p3ruCP0BgjCZxNMZ03HS6TrwrcCERWnuBl0JXXkdQTZyEazbCUVIFRpGGwl+co07FI5heUlbPH5kE5oUZOf6WXsgTEUWj7krBlUgsjtfpWp+LX1cMuCx0i6rz248+clP5grGZni+T0Sg+0zur371q2uvvdYJdHsk7iIM6ZA5o60+5gpZfUZbelXXXCX74iJd+bM4lCskt+6hJib4KFJLUKt0hHprd6YMToa8ULH5ccVvR9/wLacivMrbelmDY54WyC4jf3DSM8cWeAfSiHs7XuFdSQeWlBIJT8Pf/AIWEbyal+ORTQX/+CKRvE6j+6ZS5LIlSDr90IWSJsTl97//fUeJhkYyeEYEdwUOD1XKjtluu+3ma6h0/I985CP2V5kpiHijWpxbR4GTCffUWNglygLhKAf8vO3dtQIjSlxka46IiklEk86/lJQ1OkJdMjReDU6VpaCd2+OOq7ZpHKRyisZmvE2cIFREShka/+CULD3k8MLd7pdTSg412AyzPeasBMeCzke84x1dBDTehX0loqolJdXOo3hp1MHZMaYhGrS+g2rn0zeVHPLJ2ZLBCeuEhJPa/uhHPzrCfZRSsqMwZfWxlnorRFhT1d0UFTy6LGolLmLVYmIj6AtiU8VYCS4FLVnE6mTJyprGghr3VJasChECjs1Qt7m3GEomVLkId1de/V1xRXX26j3vqTzzuwPlvp1Dk/bpI3ZAJhQptGQ1HV9Bwwj3MNqZNxsgvDC5Y+bwGwnAd6yjEAJlUavQ05kEiH5fc6PUOyshAsC9E0fXIJHXmQh5PToH4Y4ZnE7uOf+UIgav9pi0jMg+dmfXbn0tj3An2oYuS0ai1vTArfkrnf8axVeqe7EI5V45nk/pFsljV+C8QlvAPPL2JdSBvRW8WmGSXR3ZoPowp86EW1o8bHF5Rf9f4roTIKSHs+38DXB+0fZdNAwJRXCLuNrqz6e0bJ/F9adLEW5L8YjqQH3OWaYMpYNP3mFKnZg8wwj3EK/y5Iab564BJria7uK3o6Z8CJoqHT51U10LWRa5B86PrGNvJk+XB11LozCZPDnNdvqZE0AHoF0C9YqN7KSTqtOsC5XvY2WpW/uc5zhzSYtfjPJOOJ522mmM1/FnMG5ZCT/tuw9n2iI9XbmaDPLY3ghYK+slGuQJffBM76ucFJpe+sdHuUY3o+urisjUPr6yGpgjWGnZVGz3GRYpCoINEn+USKJ8l12qP1KIFu9QvERelNyt9mu4mFfaVV5L1PRK+eFPy+CUI3a+aoAp6s/jngnWHE835xLIrQQfseHSQ/C2zP3Z3sM+yyXhta+tOO66mssohLvLaXz2cS6RXNW/5Q66OFuEyz6HHnqogyVOXlJkehmy+xBreJCz/N+++93v5tYcpJQ+8KN61b8UTVPvu+seKw1dWMEyvbCXAWqI1izZV3AkAv2GG24YyfWOwRkVxZmN12fBFu2JdX2x+jaxY8zlzwvTBmODi7Kc1bDIk1dPf3plt+HGghqasZDRgaT6YK3H1xcwebHhhbtqk+N8Yrsr7M45TlG6HWWmpxPW+YhN21NIxSbcEdw7yaxYUnwdQYgLN23JzzbfQJCwzwgTwkRiTkd3ZuaFL3zhAQccwAlq5Ht/uVlVoB2ACST7j370I6cPjz32WLdGCRSicx3IGP/3KQV7OWMK81Fg48QizBordBXmJ1J/LPEx0r1UqN0my+n+pSpwasrRadHqm8b2/0XyOG7qCQoiQoG+8ssfJD06sn5U5erb+VO5iGzFMQtT5Lkg5vyAzYCDIuKeBw0Kq1t3Ahi5ksWj+GipGlXtGniGF+4QnXnmWpO63VQ2d99Y5oyPxZznqFe9qvXRj1ZfLhMwIn4hWGw4bhbI7ojvOPZou1ys7g37HDHm2uhwyhkrMXHA0EeEDYhhELBddtmFN9qXvvSlTqmT7zk6Uknu9jBoYEi6X3b26OzPetazjjzySJOERBNGA34pH0Mv5js84Hp3Am6zpM3NrX8s6SKlLURKfC3oNP+bHYXs1XoZU0t8FDLD4l3vqqy4Di/qqGMaKPpwEdlKIaPIHDtN/B+wxb/iFdU3KHm53m67ysOBb6TTXJPF90O4UJI3EqwX9yYhfXibu+oxv9CyIyn8crjcvupYOYuguVMJs01hT9X3bZxGYpG3p2pOpsKbk4mVAJgbvvnNSu77iAL7ly2OhQbicqzyHfIU4evYtph8g8LX8jjOJRrofdRwAUAhGzzx7a0ITf+jH/0oawy3xpHsYyW10DBIhHGsDB7kU1VMw/zBUJpMsbZMmNE4ANHp7Yvo5ebvxzymcuuRA68rQMpPTlsM0l5LCZMOv5T80QP1KJLUyZaic4y7yunDfpUeAsRJJH8EkS1Dn6uxiajzk2nbbltZ6n0OgAvU+h7suIkcDv8wwj3sMOxf/vL1hUp0eCaBzz5SQ+Utcw45pDrM5NFXHxrBVoYQhtq2jp/PApNSyuOyR/TydHdHwn3hmnB36IW/YlusFPPOE4eEvvWsU4/A7Er5vjZrTDAse10KAeUeqBSaiE9Z2M12/p7yEj+P3H34XrTNFaurffetTi9svXUl8etNX7BNY6R8BGoaiV8Cmh0VpbgsQUHkAD2DMKVMsINT8hRbNI8lIIDAKTIngp7U4sOUP2F/vgvgj98bZmffUTc6jj66egtyYsMwwr1UJhVrcER7EOvxB8XB25OeVEn2BguSRWJhaFeAUtCERCLfEeNMJDXcdXznI0l5X95w1dPdn1jnDQZ2G2LdTSXn2Z16zNkY6ctrjelkY1ajSddMdBOLqmx6+4SC6db5AUfH4nyB1734YnVolUknzVpavxP5VKTMzc1NWqNMCN/0dpQ4KjpCf9e9qhZR4C17t1MV/LZLWUrJ3iAscqkulKLLM8GT7wZC3As7BjLJ/X9Rwr1RsXAEm3jhrTviLS3XycGS0kBV0ictkh5PTPOJ5srP6tWreWURfHnjmmuuyVvCgt8Y3gVcUxJSBTr7BAoRApr1zIUDgaDXZTVW+jTViQSnp7itxoYmsIHymGBlKlFGYVparaK1RzBP93hzS0+OKjPX3oQZ94ozIsJ5aEcqfEppQkLp3hkRzO70HqtbXweUsjLNMvOyXs3DDpAYVHg0b8ahASJVh86+0IzEtO4u2G5yh1PwTaVeSKKwLzGFvYipp6eDOnias6exm2mstB1Zn7Zzy8y9bWZHS1Fjz00Fl5AFYEvQsnWCxxG/7rrruHSfwHl3HJVdEE7dW6e9/vrrXVHmPi+PC8IwILCOREl3Qobc9D0mx6aX2CAzL53p58zLDiBMUViU5t6rnhEKvd6OI318Pa8Xtfq9oNwULV6HTLoUUmMCBUeIpZvbJnKw16MBRiuxQWJoSXcewFY59ZwyxS7vFeO7szS0eOMw/ghuXuN67acp7vMAd7vb3SawjZadienYvm+8atUqwn1M9BQVgUFmt92qS6SR9WMqbpFo0eavhGU0HBUa+kTGItz7lLcCXpXWJd3aEv5mYj0V7JW+ZNVHZES2EuuROgHS85GzemLi5fNNDrYKwZZ4J3DXlHBJERMerL0mnMLlJQ9/GorLaOlJ13Ii5etfX7uCHC3+0WLTn0uXtryY8DAT7gtuoNK6C865hBlCZCG1RBokRAQ3EgEX0VwiYDIOG8Dl0dsA1Ivun6XkXcbIWCXXMtZr8UWHM2Plj+5B+eV1yu1056qX/oTM4rk0yRiW8yrNJPOlF226o4NATo/UnQlK9JfQiEssr3rhHHm6El0SZkJxhZiBxRlHW6COqIdmGgeA/BLEkcWF7CKaRZIYYPBSbLHCDG3qJTF4wHhroPqVokRgfj1OeJgdhezVQMwyXo3vKGT6jCLcgHHRnacpKRNu6OjFq8lMXyHCfaz6RVqu3dUrKbn77q173GPtlx4JMoEIixTzWOJJL78V3PhDiHQNhF0FqV/7WnXv11aVz8M7tpNTMRHB+UVRxpjHpARDIz1vJTrqC7MVtKCmJZe4Oe9Tn2pdd12V6Nra6tWts8+uwArC6mHywsYbbzwzuHdtlowphwXqPp+7Qg6XmI6REzIj9CEzHDErMtdUCvfoFPX26Eypvx1h3GFBN2lJLveziDDS06UeIo9vSyf6iTbnpVzO0lmdE3fDU7jootYLX9jaeefq4q7rXcKY5B20mWM+9KGKBjePoqpTt3n+MYoYzV0S+fGPK3WeO6C2y5Aqi3WxekkxH3iEJ6g463ekncrvlao1glzS/TlOI3Duz+8S1zTg7cpyEerEGAKCsJF3ch7tFs7M7l2bg3A3rO573/sS7iKj1Z+oQZQAPXCffSpHLiP3IdO1Rre0xKkU7vpZtK2lH5aEF8F9/PHVl0lIds5wXLhw+tsxwWc8o9KOjzqqOtHlJqfTJuYA3ddVfnYMVzq53Mn9oDF1sswZnAc4eIAwgWVGMHJo7i6asiahny8Bpx6Je1cwSHPu9X27ki8gXpqZPiPfsyLhKWhurpqZADsNaQ7Lgfccp7GCke7vRS+qJowzzqjKMqWpvnLdfrJLxuGEEMKq2OQF3txmjsO6NksEuqOivsQbQd8VbLhEU77gIrRO6E6MHkLWz8JoOTB9HP2v//ovfnfjidTvaBWKXsyNJks4Eutcm/30pxWgbzMKnBuT8rqmg1yEOK2ZD2TehbiKBk/UcmtM2HGj5gMmxOK4Q/zYxcdyhlCIV67HHGk7+ODKp9upp1aK+ec+V8ll4p6I5wnv8svXE5ibSrzlmQAE81kQqoV1gOvHxL0JwFKGl9T210cqU8wHPlBVM5DF5eR6pBMWu+KKK1xEmDCiJoKcrIavueaa36ZLjY6oWC/j1HeHHUaHd4bp5hyYptMyUSW+9a1vnXzyya5EuyN60UUXvZG2Of4Q+UgPJawZKE4+udLKeUDjQovVRSAleaJ3x4GLNI6hOaNw5YGzHTMBV1wg2T2o9hRh34Ip0nYchEeqKkJI3G+JmGY237z6xEqUepYltnKBuwyOMiwvaO4lBImPG+SarVf2SAXYZBSkB8Y0ZgUjlOOSdQKqF5Maln7xN6mc6E7XyI9CFoOMQXHCCWsNMjO1vTv3F5c6TcI9SvqDH/zg/fbbj6B3sWKLLbagyC+OA/PnJqd0PtKQU624AKUXs6dzCsryfuihrUsvrbRy9/JpsrrsNddUvyzRgN1R5mDIp8Ie+tDKm2i8MkTUzl/wUBC5FR0ZHRFsOIVJOTbDb75IXklnPxEQxmGndGaWRrDmyHfOuNfIIJTXLCVgSLS6Rz6ymswEXlIFjzH3l/PyVepEhqVZ+U1k1echKpwZLX8ylBS8BE5956neLeD1NAl3zUGm09mFNI3dHl/SGXczRRa77GKXkqUiFg/S0OYkEcZazf8t2W2XktGDns4mE8s1SPBs0GB0a2/d7RQZk3CP5KVo885hGWFtQV4rmpGEkOXTEdt8HcU+J0g0v+Y11aYrQcyWwsTELi9vbp+GpUgVALO9MLb4JiJm+6AHGHo6x6dKUZdzz61cjJlCuBWzauGfAE52G+uYOG4ZU31H0u6zD2T3YmMWypSnEZqt0vmX2Klvrwqu+PRqQ3zqKolmHc6C8ZJLLrnxxhu33nrr+G9ZmoqEYXWBlS6b0uvxTnr6v+2EX2hK8HPLbheUc/x8CWsIJPCQ6VYkxDSDUqc63x+nYzbPfnb1kUVGqnFXuT8l87699tpr/+iP/mhmnOlkVIT7v/3bv93xjnf0mck8doINnpKeQCWyxuXUl34QE83gGCYKMjLn0ksvtQW4xCJoQD5MmeaeWlkqZrWY3wGrungwvVMoYj2PSekab7yq5xUfRwhtvrNhJ8CiQciIKpQ3IgBkKcTnsVTQ3OA8Q76iZRxKbwBXBbRDshQ81ih2a+ubuusAJ+6/c9wTR9NkEGRwEej3dkyqvWJe5FjTN9JJJsSp72TweLxUTN9pmfHyoy/2SLcCksd02a7xxqs8luxjjRCscZpSp0GJobNE6m/Lq7w1Gh2a5Fw7u6YU+U7gZEl6HSfgSHaJEx5++MMfzo5Cdm2jqOo//elPnZaJoO8KNmBiJv5cWXJ0eBaWgAMz4b4ETF6GIooSbYgOVzyRLSuF3W8R34OjGrbYwUsYDeSVV145QpvyaGiaDCzpOcxWzrkvkiKdwXzvzodjwfE8moXgItHOsvfnwFSaZfpXafYWB4o4js413JoakoJnoVwdOuNCC1ok/OwD2f0ZuPijkEU5YJB5wQsm3alvf25M19uZ5j5d7bUwannFYnZY/Jp6YaXOoGccqHEgazjXld1022WX2otZdMwcmAn3MTN4mdBnTf273/3ODcxlImE6il2CexLTwYgeVP7hD39YjNkqBpk49WWQcSp3ZpDpwenRJ8+E++h5OgkYY4dxz2uTTTaZBHomloaHPOQhM6+QXVsnXWjVqlW+/N4VYN7EYpA59tiZU995uTV6gJlwHz1PJwcjDw2+Xp9jD5ND1URR4h7c7JB71xaJNc8X3oc+5B6DjBMyHBbNnPp2ZfJYE2fCfazsXWbkbO4cP81s7n2a4eqrr54dhezKn+gEP/7xj4c7Csn8khMyrkbz/8yf6Mwg05XP40ucCffx8XY5McfmTrgTXstJx8SX7QPQi7EpT3z9hicwXYhL5OG8Qua4lEtw3F/PvrI0fDMsIudMuC+CeROflc5+61xUnXhSl4vAGX96cT42d0dFh9iTiJLOqe8ll7RmTn17cXjc6bNz7uPm8Az/RHMg+ulEk7hMxMUss9DC2dlzQsaVJZ9Y8v2DGGSYaGZhiTkwE+4jYHgREI3xEN1nBAUMiwI9jrINm/sWkW9mcO/fzPhTund/yLwtF9849eU87kEPWivrB8k7gxktB2bz6fD81OljriXEEyxg10Wr/1Avlz03pd/udrd7kOE1C7054PMAs9MyXdmTLjT4UcicjfnWtyq/0PyJOiFDuM/CMnJgprkPw3xiXYgolz9f/uOlJFtPd7/73TfeeOPb3va27LmxVwLOUBmmsGHzKNRRSF79lqX0Yale6nz8/S51kVNSnh6r59zLB7oG8wqZHdRTTmk94hEtHtsPP3xmkFnmlp444V5U3SG2cZaGl5GVuj6Lh2/+nXfeeRdccMEf//EfP+ABD+D52tuLL774e9/73m9+85tnPvOZj33sY6VnnCBvKUW8stxQ5Y+b8jWT7736htMyc3NzM+W9kz/pMxyH3eUud3GPacAuxBvofvu19tmn+vaLuKmTRh+531nELGWsHJgs4a4DTaxMTzOYe0LhF77whY985CPOGu6yyy477rijj0Pd9a53jYzwcZ9f/OIXXn3lK1953eteR7g///nPj3mkZB9ro0KeoYgS59wJ93EXN734r7rqKi7dZ8K9swXThX7yk59Y/817STUS3K9vcfie8DnnVF8MvvOdO7HOUpaOAxMk3NOZvvOd71B73RvcfPPNo/AWtbfOFcAe85v0erwOOZJ4NO6IZh/2e9e73oXIvfba68///M/jVlDpFHlBcaS/e6EipOrTn/5008CLXvSi3Xfffeedd2aoCZKxUluvciGvnjiLhwOaVYukLZasRaaL+fpPOn9//kS48yHD5u6QDO+P+cpuzkS2B+t01XslUDspwj0ij8Q89NBDX/ziF5966qm26R/zmMeUQdhgdlQtOkUiS6Dvh0JOFsnol7zkJQcccECKlp5+7zFkGAw5gyHi6vbf/M3fqMhb3/rW17zmNYcffjh/L0HVqNE4HkmuJePPOOhfApyaDJcUFBG2BCVOSxFhiP4T/aD/EIvhhap+xhnVR+FLWMEnIMOfMKfUd6IikyLcw5Rvf/vb22yzzeMf/3h7kn//939PJuIg0ekOtG+l1ruXREdBvv/972Pur371K8blxQzOjHBGjK7qiUTL0tvf/vbsj9tuuy21/XGPexz9PdeyS7nAEGMw1L+5HIQsNkccccR73vOel73sZccddxz5fsMNN/zHf/yHcruWCKd5a5HfJkYJuz/m/PKXv2QjKnQO0f9Cj3XJIg8O9ufzggjDH3NklkoLylgHxiIN4WNDGq5rQ9SB+8czQyzSx+So+IzUxdODIYaYfu4XwkGqRsSbKH/+89Z//3fTzo7DWr8+NPrzs9db7Y6wQYjphSHpmbR6Dfn+efMWGQbyz372M1UbBH7pYSaFLA2v8jfddFO+aamXp3dKNIa/9KUv/cu//AstWDw8wlk8veyyy+zmy1XSh+CgZib+vvrVr2611VZM552opJDpwHbbbbe3v/3tJLs72Z/5zGfqjYoeBNud88omapGkIgQiymGg7xMlMLzhDW/QJ774xS8aNjI2aMYKNWLMefSjH21WGFqeIs+k+M///M/XX3+9eGdBjXJ7PaqCsYSeTTfd1NmSoeXpvHzuRUAjHT3qctFFF7Hd2c8Ymp7w+ZxzzjFnL4bPyIMKn3UeLBq6vUbFZ/Rg9eWXX64XsW129ucGP3s9hs/OC9zvfvd74AMfqA9I6QVc0mOHaQDqfj/4wQ/0xi233DJoC/yCIiPhsxLxx4yORYa8YTv00JD385//vK9jwzkIcxZU2cUDT4pw1wW1nOODxF+4TxlP9bTE9ttv/wwbNLWgPQB/8pOfpD4/e9HnaR0pYW/Zaaed+mwcHXPMMQzoT37yk/VyC4sXMCvWAnq09IUXXmgT9bnPfa661HuMOBnk91WvehURD8wM0ecEOo2bH/ZnPetZ+TxxrZyFRZm5wh+0LSznzaFV2caj+cmp8Ju/WdjTIHweEOPPf/5zk6j5b0D4rmD4bD5ePJ8hJ9P1Cia4rgUNmDgqPivu05/+tF39xQ8NSCygF8ln9FCeqGiGxoCs6AU2Ej5Dbmj8+te/fs5znrPIoXGnO91JV4RwAoX7ZF1iorafccYZRMBnP/vZJzzhCVgWEWnmJ8rrgc6Lm101317domt68PvNMr+UWIADYJJH0vOe9zzp5iHzjd9G8ApJSE26XlgAIJGFbUQV9t9/fyYaa4XOskqKjFl+lhSRBYVSLyTBJm9SFoSk5ILBGCg4F4qk4IGhF58HxFlowOdkWWS9FsmfQrbpHKpS05I+YCS1WDyfCwGIQVJ5HJCMAlb4XDAMx+eSXUST1dGWshYUWSSfCz0o0aUXPzTgCZ8XVIulAZ4U4R4GbbHFFtSok08+2dFaemJhAQ42QlqlLIHztsAvNAIbDReSRsaS8g//8A977723WbqXcT+Q1HOW9JKrgU0d2fgov+atf/qnf/K2F6R09KSODSTL9egryYsZCSG7F5+HqBQ+xyDTi4cD4lx89mAwc9O7Byy0D9hI+Aw/YoqBe5F1DLVDI0nGDI0+Fe//CpLgGRWfdcXFf/i7P83L/nZSzDJhBPFHptfFerSh/HYyq6SXSCfMICk2RlgnKZWdwDCzSFC0nXrUvXoVJN3bu93tbmS3WvSCjHz867/+6xNOOMESnpW2KyRK0IOqTnqWJcWyQ/Vd0VJ6Lw4MQlgfPg+SvcCgwReUcHuR9BSEQ0fS7rKvWsQXi0rpo+IzhAx6jgAE82KarNA2NJJk1FiaLPEhUMlipCBmJHyGR2fWpTG8VHDlRSZLuONvhF0acohOsNAWShH20xxwTEvXCw0xbDI27iwm+pw5kYuuxIxu66kPDcCsNsDYz7nuuutsVaWIkiWlE/royWqmTk8BW7JISreg3mGHHRZDT/D04vPg1SncoAEshp7BS5wXMiStXr06kIXCeTPWAZJr8XyGM6g222yzxdBTp22R8dBD6emzyTRIEcGzSD4rKHjsxuvSnUN+EEqmBWZSzDKFX2G930RK+kgimTOgEilxj8pKM9cTpUcH972LRz3qUXUC2rnXavH1LMFTkb7uuIC3iRcwwp2xz4lPvmhSdDAXgDyipyCpF73Q+EiQKDT0ILJB54LoQUz4nFx1bAtFu7z8aVDrUVdJb2m8mpc/DfhGvcpbkRLvxNn5NvR0Qi40Zej+06AWnvBnoQQ08DTqVd6WSC/8DYBGV+yVa6rTJ064L4ibGqzRZn2yg0xPJV5FEi/wMeCWRMAxWbJ9OwXYUDqAUbKCp2wTQSVdYsyCIYwcl+JVwACwzPj13WpHIUuWREpdEGMdIEhP8CopMeysS57nv1wpfR64AV4rN/VFfMCHoEdGVcPYUAWVUOKl+g1yOtNlSen1V0kMtgaGPo8L4ic84AVk13F6RImqVfVZ96pe0zpwoRmAdPAlJWB1xgabSlV412FuYOt8i8I6ksADw/kUWsfQPw5Vg7x54Uu96pBKh6dUQbyTwjo8AHjqWfIWPWohr1dSIBQREqljSNyrTnqkpHRvS5b+9BSwRqQqu4ak8XZ5HyfOLLMgdlBzBFnwt/SbrhgC4OTvmWee6TSORZlzjSQvYFtzH/3oR3UaB+Oe+MQnWj9ygXD22WfPzc39xV/8Bducc+KBLJipD851OdpMZMPjkI8O5ySMc5COfEGOGCZ1JmZOxKTIyIzAtgMsSABDK/71r3+d37F73OMejnuyxkjR8z73uc+5PKJQt7r+7u/+Drb3v//9JhjbuTZjHe2ft74pBXMg6c+ZQAYhDnzqU59yNcyK9c/+7M9KKSh0NNP4ZFD6q7/6K2fIbHr7dLLqOCSnXgUyESfHnVJFrfNFhVqvIFcv1cQxvFVTJ/ZsaTDXpPoNPDAAcMUht3y9Ra3qfPOb33TFQdNoAodTnSt929ve5iSivYqHPvShD3vYwwqe1K7XL1T4ozV7AZT0IDz//PPxQaK2yOnmpKPwy1/+sja15e7MLoT4g/noYXlzTKDQk4jLEE6FOXer16m4iojIpX+ecsop0gkamy66IlZjmi0feHQhBAdDfr/WDsrFZGtBJQaPc700EjZ31j+v/vZv//bjH/84zt/5zne+5z3vWSwbpXa9IorTwzPEesEkvdTLoTIp6oIPihPXbVRWRWxganT2ItX/8Ic/zHNqZ38OHuqRAZgsqHV7IPVyftH9EgPTmH3qU5+qgt/97nc1io70pCc96U//9E+TXaGJOMd51llnyYuf2223XemKLklgkdsnLK5Oi9qfcDMRh/VnFK5aiKM9zAl/StFhyET8omkagwZDtkPxuuwg9AeepHjve9+rCV0WJbCSUQ9jIdHz/B588MESyWinFXN+Bn7iI6WAFKAivF7xilcYOQbXm970Jnl1RxkNoQ9+8IM6pfu0wNxUcrBdNzL4DzvsMAh1shynkUJqy0JOEamfaAePoRM2EXKEkwOJpO1+++2Xi7gFRmTeoCyW/eDsDxwYwsWhXfLF1RXwJSPvY9LRyTmEg+Eq+NKXvtSdlNSljjlZtAuHU65rubribbQ2v0cdddQll1wiFz5IN/PxyqCy+IYB9RKD0yvlGp9m3/pb2TUEPA4daQWvDHLkaVkBDSEjSPr8Egpmeln6wNRfaUpTsoZ485vfbE7yKlVDA24g6X3vex/BId3ZKtOPlAAUJCEMBrY+taNqEHwFD77xUaF3aYhkxBlyEJ53vvOdZjKQwZBfTFa07nfsscd+4xvfKG/VC3K/xx9/vAWidN2PuIdHosfBQ9odfH+W5q0mUDXAyD7ttNNSihLTZ7Da9b0MtH333bf0505itK9ypet4er4sgcFbF7w9puOpDsd8hi2OGbkGHbA6f7CRfJeo7lgRJH61OPaiB3Kj0jjdc889PUJYYOaNpKAigvrzZ15s4wCYX2eZiCmog4ioMBQlSh++dLxvJoCXpMewnlPWbJRHBZOX4kP3pE5StE3mwGhS0g0qIxBwelIwSodKj6EemvBpcPqo/mH21roUcIPtAx/4QPQFAx4YLZUKBokZAlio9Qsezo022ogC8vCHP1wf9Rg6aXwiKHzkIx8p0SMl6GMf+9iJJ56oLK+CJCT1+gXjHgBtJTh7gSU9OMGrgno1siBSOjoBIIY2R82hQ9F31BeGQk/waBeu0zRNo1BrGgJdLusVrwwnij+EjeqXXJivXO6Ui3IdviFAqyGGpwoLCJMNbU4LghfQIGSwFVSdEaiAyS5L59uuKZrS+kD30I4IAAMDPDjm7q4UhOWMk46hpiSyVSCwBn+0JoLDycCnONkVce655xJh1FuJ5mZ3tWCm8AZVIFMuJitaxfEHN/LKL/IgJwRltwKTor1oqdCaITwWekqWzgiYdGntLq7ETpiSEnpAiigip8u8lRExSse0DDGPqqyHmADSnwNWUMmCDzoPnYYqQHOXUSIAfDOOnEv+x3/8R9KZUI6rbb+WO/WuGHoUhC2mPQPZVaxSkBbHMVO1ZjLkAWM7zc8ZtqynU1whqWtELulFBOWxK+RyJU6rWQb3CzdF6o+drCxvRcpILvJCDxYnec3tu+66q+z6Io+P1AfpsugfEcRepVAzfzocrcQoCn5xotxY0n2tDC699NL0Y2+9Eoek0Aw5DBAGs18d2qMQbDoxy88rX/lKKcbwy1/+cj3VsCdSLeTbgP1+gqRANB5Lej2CtlCINtSWV8nr1UknnWSWIqCNK/ds0UM55eLNIgbxpYjgwTq1lghPau3XGVD8x2oqvHEljnsA6tUv5YoEJ24n0SO08FBLzYUu+pplvRWkZCSbDIgDs3WEL8yy1HEWVPAI9cdOsHpKiPFLPWco0ChJAZOIGR0Z9AYpHEEjgGZtGWRqJHoKsEJDFSFoktPTwIcSVWDI8sv+QH5ZHmmI9NjkqtNT4nRkIgY/S0rwW1Yyo3ml6Kc97WnwUDP1TPOKKa3QU3LVI3lb+CPSH77kxQHqjulWL0piiDHTmOqY17BFG1nRGlZ9+rPsNPHoQ6URWXIQDwPmUMaN0zKlZXwVMkpE31BrJBV6UhE42XM46wZpzuD0CdtZUE8//XSOCwesb+HJgPCFqqWJTKVwD081POUIW83JmqcwupNxhfX6t9mehLJ+zOD3StCNdBdeeVe1zW3pMRpbDyDIOMSgg+uRMCvFLzXkqquuktGjXktCZRqguUSU0OOsEoxzsji5In1KN6U15Eo3zIi3HiwyKBVh0KCP0Ltlh18Q0bnpFyKK9tsrBIO1MGWNjZXSJ3sSe2VJetDiTIR7HvPLgEBJJJ1BequmIve///05tTd+yswkUUGpCzzhZMGThVFWBgYbkUc/tZYyk6XEkNH4LeMWWgsXMp040zrMZRgCG/mlLK9gM5JN0hqUMwlSXonogTA0BHPhD2OOFDKCubZRaOOxcM/6CbyNBwAFpwiLgULJBemAwx+SyCPC1FQkwVsVoYbrvawT+mTpFdKTUT+kh3qFfusbdSQuVXMdjup/Src9g/kRUoVIeMS1PmGaLOG8zoASLCLc66ga8eABZnrQuLSQrB4K/gZ8HkOPIpi/dV2WtAMPPFCiAInxZYKh/QBud+ee/Rk8GD3HroNA7OohOIBLJSP+UMala3EdCaOM6LAu2WFIxAlm3cCQZz59xCMekb7klYxymXdBiggiuhNDH2oz3KT0CeGGcW2aoUzoFf350wfVmF5tyFY1JtRjQhsOaoBDDjlEy+n09rI0czp0adrO0r0iAmzUaA+GSBspVCdtbEXG4uaShR5pRJGnFFLrQeLVgs4GHfXQClE/I+iDn2Shc9HLDOm//Mu/NOqY2plQoLUFSu1iUrfhYwkPjEGQEd8NDn1LR9S9VIHq6jtNAHR6a1hKBGFUIBFPTTaiTBLi7DM6EDIINTd45Zq3G6GTbosYmojBVheynZyREoTI820pE5KRo2j6DpnOZkKC00Cf8pSnqDLpQFrZLzWroce+oiFR6ElEo2CgeQgMPLhhpjGQGNbhVFlI8M0Q4rdLUxpRRn5nvYxnVdAQtrlkQRtbtplgjz32cA+A+mx2IU1ILszRAQww4sOes8NIGvpDH/oQ1TWGqUJhqo8/djvQqd3f/e53a+X++oFcsjAIMCbgJz4QJdhlIa/diWku+zkqsagHRtqypJP1fnWqzOLSIYkcx16bwNwTMQoLaCAKAehXWIS9fm3DqgWyNYG5XxGaPjIaJDx+7V6yYus5JgDiSSurCz4D02ONC4s8YJZQuIE2fMYlM5Pf1Cjc6PyVC/1GBzGqV1NBLEkldkImJew1YylUE1vE2MBElenBksJWjQaCIUqS6tvxopx19ufgIanV2q+9HwzUiDao9UMdwJjFfBV3kEHLMsqbw6RrPj0KMSEyeKhQOhs86KEKGL/6WyYY7ai3EPqyoEqfV1+DUSfHwGTvVdmSriwVyZZ+fTu3ACxvZPqEO37hKQVce9hvpB3blKNcZ/nZq/8lnfjQoqQJkUR50cXp40YUGWHuNYRIXjDmAOOWNDG6/ILXmZh3jR+DSsMbRdrSmCHXjG3IlQ6VUa0DGfbGf2QKDFKMENMPMNlJNGMG8U6kKNrUoizCK1qecW7Ggpn1A1VRKKJuQI4GieFAn36jIETCgDYiDPJ5hXtwIs9MYywJ6MQKpk8kYYiZBoy6eFRB+D3Cb8YKJeFw8OCYoaLKeAI4lTL8MFwRqkz+qhremvMIaxTif/IGW/klkoxAihtJbRuTMsj5FLSKkxE2wWxtXjSG0zSoxXxFkAv0PnUnu8OTEJm4RtE6RrK+hLfhfwBK6fWIV4QmSa0UfMAZKq01nNlFAxEKylVxPUFNAYPBRj0z03nBnIijL/LqcvijxRGJ22Es/OSggkDqpdgFlXNcCvKqjgcPI6l1GIXiJwqBSQepdRShCtgugMEQPV/L1vHU65i4IgAgBv1Yjc+0eLK1E7KeIlc6qrI0vVaToukRBglWY05SdHs1QmTX/gwGBr9aVh+md+NzqZeM+Iwb6qJ0wxCwKpssNWK9XjCEHhH8jNqudZAEDM/1PaggKQ2kH9IYpMhSr1pnHG3KpbpRoUwzWDqBwr1S2aYrYCuCKXSUXy2txzCnMJJI9Ni/LskbmHq8fy5vX/jCF2pIER2dKDEmDZXk8kg6i4sUnN6CEfLKW3QmRdw+Em/1InWCS94SASD0fwxM529ykbBOX9CkOvF0ZhlVSoPgXmiBDQgJw9FHH03PTUUKJzE8QUpKgVAKPmumJFIPtZ0t3AJQ6EkLWpz5CKIVhvT+9PR/W9B2RhoZG4/zllsQNjI2HgtYHWFXmK6J9ewFA72YNYOktg4oiQ3I8thA23gsYI3IgGCNXB5lbORd0GMQtnFU8mRBIQVZiziro5tZddl5gqE+nBeEcEzAXfaaOqepCUyhVjgJYPI0/1PZBqTQhIyPaZvEPcqbNs6vx8AELAC0RYYXDVm0gyK+wWtUAkUEQCS4t/ALeSUx2GgK9ESrdUs58ABKWSUu4lXgGzCA81b6IEFxAhYNAhyYMCG/oU16I7Ge0om5VKQggUeo5/IIrA7ZiUdKcuE84zhLOh0wnEzekgVY2I7/Er3VMZQukX5tH8/mNotKgRfxlr7G3mWD0Rl5umFIqsM04tB25QMwecur0Fx/lLGOymMDPimdGZMrqLydFw94wIH0m0gdSXlbp6dP3LKGE1MbyCbXdGk4e8E36tW1UiEAkl6VKsgDEHiJIn4bGesl1isbJPW3spfHvA1miSVdipC3g/zqPMYyyc78aERb8up1ffgzCM7Rwvyv0aJbMmwGLeYywJGeFmWW4YrWTvMS0G7NtWAFXqvUM9Zh0lrMeeyDNvdZ0pWYskr2Al8iBVtJgcfEIJ3OzhJat+t14gFWJ6kgKWjnjcjCmEvzsgFw1VVXWV+T8vPmapTrMbTViQmSzpQ68l4Ed+bqBQmbkQaeOZVwcZGH4YKw7sTQi55glsWKnvjWcCx4jAPQehXMFtQ2SEl2mj5bQb0KXeOdpSelsxadkHWEnfBSelWkD6pOPAW4IOyFtk5PIx5B6UQA4cUoZM8DDwvmBnD9sUFPoaEzb3lVz16PN7LksYEffGdKHUnjbf2xjr+eXs/eKw7eK3aeubk5mpP9JIOLROoFv1zp02dzx1mdDzcZUs8//3zGVucXCff0yJHzUXGRMvZh2H+YOM0ljC0KShsPUmJo0w9M8ranrOaojQvCMEgpBSbFEevZj7J/xXSr842JRaXcEUaQavgRza562fO3t9FHsvcpVxtpLMZotlSXqpz2KRZn2+bZd7HpB0CzThF/+lR58a/CB7sddjVpBnRSJ1+zHzB4n188GROOga6m22TNt2rVKnsAERSTQ3YlKCeHmqEpGfewTLM5CeAYssNn2pLIkIjg/t0dYQKxTprbWDcPOWAzgf1gaM6PKSOmYawzHmzits3D7f6s7kUJVOYJTeBgCW3LtXgNB9Vw2HqVssLSw/8VVqnRVgeLIEzvSmTSetTNzBGjrfy4sWFrCeNmK+mgLJvpTLSO1bPhEhZWD8olKbzqrKzETAk5qeJIohtJ5PtSSvbCn07yJjwFY5m/GDSZU5AqPnQTBxUkjhL64qUd1yzJw5wJ58NykRdup2PPGNW1FbBIiGTAIvGuYMuYOK02dyxbem5qQifJaO4O5Ik4au34Gkpy7qKMgarN28ewYnthFTnyyCNNBjIyH0XiL02TI2NpChptKWGR40mO0DlRl628xRSBD5A4rMaObB/CyWuNFRFfR5sW7JoOrA8zZewPUC9liuKpcp+KT1FdxkfqxPJnijX38bVWV8xpQsPYmVlnrsHQBLmRYdr2iuxmzKXLCyIeWRIYc53Bd7fF2Zh3vOMdSyzZu9ZiihJdgXHFHzO7qu1lwRSJ3L9eGgg8VC6OuVEFuHNAwiOxq2SXLvQqIhkBiPSCmaXPOLD0HJj1yAXzvKjezmLaIGUUJsedtXASw6alt6SSq3pGO4MMBT8XrBRTMi64yFtShshKv8ccc4zzLS6nMKQ0ZKtH0ydlXDCbeiwwMgphWFkyi2C+5nC8yi1EC6kCJq/g0a/T7m4GuDDVeCtRE5cd6cDXS8n92AJwS2quWV0nlwNTbJZZLqZGZBjhzlrstttuTtFZ6ZMLThe4ZeOtm2/uc9pJdxvWIzojCBJfLrKnq1z8tH3NEXmDbJx0SoG0Na06+kKemlyd2HOKiYLvLVNYjpzKSOKLSyl2dvK9nIXXggW5jB4drnWg2013caG85UrBRXa3qJIY4DqAvQGnJlyGyquScRaZcWAZOTAT7sMwvwxymenspHkvLEa7V3VB0Atyll7nAEWbfO+cDnGSEDdxmkrdHHFQ3blSx9hBUq6Jco5ZGMrMuKZetnU6NVckrs6bD4h457UZZxRExHPM4HglsHg+kGgacDddhLMR0hxOLevmlCzyOjqpaOszawUZuTTxKy8M5gyhTv8sPuPAsnNgZnMfvgkIGoH4JokEkYQ8JiUww5cxy9nBAUzGVXcOCG4nU51BInAJa4nEMS8oXPeIONXO7wfRzJeWuwVmAjvbxHQ0d5Z3icDc0KmXoNU8gjRVuELhxplHuRyjdOLbLXMrBimuPnGAAZV5BSRxn4x1VLP4jAPLy4GZcF8s/yNTiInI8fKYlMViv6Xmxz23ZrpKTBwmT73lVYqo5fkkYNJp1u4i2YaVQge380Eu8x7K4zy92044N5AR7oz1YHiP4oKqzmMzh8ccp4HBIsABG5jdpXJA3l18JULLcO8kD23dBEDK2wBIxjqqWXzGgeXlwC1XuFPR1m28jaAJoOqKsFe6IsG31cQupfd5VaAHgSnAUxchu90q4K+qk3JCmVT1irxmIucWIvOodGYZ3pWp1Zz/kfJxOkTsipDUZDRTD8sMnDZFttpqK35f6eYyepWCYl3JF6Yivll44M+ZV1MFMCkKsu/K5+Lhhx/u7iv7jJROUmcpMw4sIwdWuHAnW/MXFtcf7XSuG9FD8r9gFoEqCMVL6JUOwCvw7d3WAr4+0udVARoEpgBPUYScJW0RvGrVKpfFGpST1MSoC/FvfOMb+UymULvx62oS3TmQ3EASu4S7dOo5QcxywoGo06j0elvf5gyQ5gAWG/LdZmmKk2hB4KSTR79K55yHSUeJgi9h2bm1ceqOK2nOmy7jD8XfL0s94c7W3yB1Eh5RvlAy2tW9Wa7OlODslb7QEkcLP2+VA1CInxd+tOQtJbbp8y0zOHciW4ndIsQT98t7oK948uTI2w9JAjJ/kHtbHkWSUmDy6NerYEuKD15edlnLlSa6XYD9kr+/+EXr29/25aYWt10cjiVL8l59devaa1s28LiZafsiW4tTRh8I+uUvq1eFAKUUGkLhv/6rT8JW9HtcYcF4I+Kp2w7McPlNetaVa8KdjHbRl5gm04laEra4g7e9STTbEWWuYYsn32XfZptt2HAId9+J9gE8WjyrOsWflcaBnOJVRim0dU7WuHUzr9gq9x0MR56Y1FevXm0LFwbGGdu57kOxxth0tU8rrgiXGJiD2p1hjO2ReSjrjEilsubo2gf6v+3MEs7LVUfuUegE7kxPdpD17J0ZS0oBK5Hyqn+kFNQJ1pXUOv4AFOK7wneincoU1V6RIRucvkS/995rTjnFnmf1d+aZa/bZZ80553DLvubgg9d8+tNdqp6M9RedKe1Dd2t+/OM1r3nNmvZX2tdceOGa3XZbG6/n/exnzQ+8z69PCyWeDzqoenXDDetfJcY5uU/B7LTT+vROAjiTf/nLXZflRL4C6wRYn3kKY0QYqklSrnjsfIpTwJ1XSaAmE9kSPYoDSzyPtG+PCV7lUXYp5LXdV1nWvV/7P8XlV1KJNMDKYy+AXukl42IideTinY/1xMTVnRkqkH5xI/FCRnlVIl5ZggiBkS5AYqMi8ZJXBFfDzPqrejwlJqWeXpA3Ig34QnDylseSq45ZXHqq3AlQUiBJ7agOYY7HUm7Aym/BL6XEG5ECPIGRFWsojHZ81VWtI4+sJl2fPr/LXVptPyW+h9vyCcytt/bh6davf926+OJK/xWhaG+2WaVl33hj65JLql+a+OabV0r3V75SKdFgfDrUx7xA0qxPOaX1lrdUaH2ocm6utcMOjkVWZX3rW61rrqkWB0ppf2q0xcxLy77ggoqMP/mTSgenCcko0PQR6ZP0jtL5RuajH+2LjlURHr/85aoU31v2rT2qvZuVP/xhRR67AoT0+o03XoFqO55QpgwVlm5qte/5OchYV969JdwN45jaRZIlvwaqt8EQpSzKu7eMKu6U5WRLAJIlYElJuRmoSclbKeWxQCaCDG8LDSIjDynd7GW5YMlieaGIq6++mmzNB4/qJQZYilUF25RPPqEzQWJ5Ky6x/JZ0x41sLeCS1c+cbt1q8b2qCZQrHrD8smhZxPCWGjw4b0WVL4XJy+pl40SWepCxPMrFhiaXlZPPWyo0Gxt1APFCWEqRosWt1ayoCmSJQGi1Z3UlpcCLqxReWdX55T4aAOFu2ad0H95j3wtwKSsIC4ZGeiluwiMr3OZeDh9fdFHr3HNbT3pS1RxkKIPM4x7XuvDCymzisxnk8sc/Xon7z3++Ajj44NYTntCShZBtOxpovfnNtuBan/hEJV4T/v3fWwwj3MiT+z/7WWXk8e1odlci+KEPrXJ98pPrgb/xjZb+pri6z2ciXrAPR7h/85sVtsc/ngCqrDT+3ve+1hlnVLORTy6bJ3xn2zSj9MMPr6ar//iPKuPvf7+WmJX6j02cpdtwbRxHMeqI1NRaXCgcEI/Qz29eye7D9iRIzsZUGdpggWnk9Zi35bdECnw9JfBSCp4xRWjKvq3KpwX8ZixSyc4BuUNgEXbO7ZD+IYbkcrrfr0kxxDjzYzKgq6JTFonkmjt3IrYWRKTnKoB7YfYSYPMlSFm8Jeipt26KEZElu4y4oUQHUiH3yBrmU6XOFykFt10G9grNbF8sWsR9Jl0YBPACZ/0KFcmdA2WRzuoSBTw1AmzdoDpmDtYMRXEAAA3/SURBVJgBQ+XMknOukKsj/FJSl7oURhUMmBP8vkKsCghm1lN3dbQfTg336Ko5/EpRVpgji0jse4iRjgMKCldlR6RKYUh0C/ATGFa4cI8AJbjf//7WTju19tuv0rJvuqlSvaP/Zh/uuONaRx1Vtc6Pf6yPVvFTT229/e2tQw5pvfWtlcLuw6XPf37rve9tPec5Wr3So+kxe+1ViXXANPQYzQn3k0+uJLLP/nzwg5WUj/zdbruWE3fvelelyMu+rm9XJf7hD5VivskmaxV5Wr8s/nbZpSraVOFc9Xnntb7whQr4nvds3fe+rQMPbF13XaW8y7tSg+Fk4LF6O47iS4HGvHMsUhZaX1lkJGWchoQHQimQLxTPJMATN9Rk4omMI4/sHNg6VhdSTCCJbCyDIYYIWXKZZk20EcFu3hKj5CAB5zfVJ2qJb9jsPfgAugrK7q3FgbOeHqHCt5wclR1C00mmAa8AEIuAyVxfGCZeMVaKvW7kmVSgEsD71gowpcAvl40K+NGgaOTNzc0BQ6QPqTtgakpwDooLVXfEfH7LBwlkIUNJVZh94FuuLMVCm4nf2s5brueBmcXTScwW7jH4jAbayGKJpHAWCoq2SsAcRegbxLQJCTzy0jdSO/MTGKQqFA1gfCNeNdUOZvDI4yM2802yAJuosMKFe9Q7lg1fOX/Uo1q+8Usg5tBaBnh+KdRUHGCkR8R0o5HkeuADK7ksyJJc1GehJFYP7ZC39TihfPnl1UzQCFtuWSW+6lXVXBKq/CqLeec21aG7ZvDKIsOsc9v2V5XKuqQJtyKeDXhjxnblnnvuuddeexlFhqIUYZD6ATNWZZFxv/3222effaCSCO0g2ScQRnU4OVi1apWLV1YhDDIRW6wNDDU0bomEKVFuQ5hHI1vNpC1pSEixkNBVSbdc2sIH+jh7iCmBrJRXhNRzysgvFtkf9g2mzTffnHUFA30Yxwe7mU1It8IZct8+toNDGEtkk84QbrHFFn4hlAWppC0MiPEBcTOQiYdgDQZ6NBqiOINRrsaCjScJJc7NzTngRO5T5yE0jaGf7kwZR5gUnrdRS2QzGdk832yzzQhr9TKvYIsZYvXq1Xbj1UUWlDDjoNPsHl0bYYoOH1SNKwuThwkDbShRqEkLJb50b22BcqSqrILQj1e26OVSzcKNCYxMa0cfkJWUdEF3Ys047bTK2v7Zz1IEKon8pS9VVhTiUrDaI9apydR29szXvKZS8/fZp3XQQZWyz4zDJk5ZTiiyJRL22c+ujOMR6BRzCv6nPlUp+CLU8ASyG5L/+3+r4zEgg4E9neXHI1EuPR+CderGW2ScdFJFhvnmKU+pVgaMSAIarriiglQjs4JDNYWYtSWtxH/OtzgY86IXvcjYM8Yi9A3LXnX1ihwERljIsvfee8u+44479oKfonRii1GbukqIE6bklGrSdmmRRBLJRRcWSD2V8osDRLCQTwniQ0zV4R4pSQPFUl4WREhYIk8RcJL4hcMAZIdQpM4rYCwbUuRKFmyXXYpfcRG/YIhRMtcEQ2gS04SsVxYfqiBC73aWScQVBAQr11ylRHnVSLp1Qz5Pn+qEthTkrRWMX6JfxWVRlldEcC40YIJ0KaU6SAWPXYJEGVMv5GGUVwLGIkBx4vYVTJCAzSge2YKCWa0hL2irbBMWVuyGaqQt2wtRe4c7VPuQ+gBRbp2XA4sWW7qWqffMMyu9nuZ+/vmV9NeBDzigss4zBjKnsHQLlOVslooHs4gdHWL9Jz+p8EOlIMKdOGZAt6Fqn+/e967KOv301hZbVIsGFqFI8GDYfvvKps+8c+yxlckeErKe5k5wv+ENrde+trIdUe0hlMKgz9ZKbSLT5uaqqYIKz/6zzqZaEbnyQoaf3z322IOM2G677bhQJqHU1DA2FL1q1NpgM7AzgAnBF7/4xQcddJAdM2BedcI3sk/4Iy2SrKGTkmjEJVmpUhR22iuBSMHEFjufF198MeWdTDS3kUTUcPUi1pmJMafUkeLJgu+4J2BerOOmjSAj7Mg1Vg7KLJhYQuQqkWAgAaWIi2gL9BB8shDfslNvlagh2D0EhNG7zR9oIG1JcxFnVYldenoEtOwR2VLAwyzFL+nvmKmZwNYuyU58x+BjJaFQ56mgJf1p1h69UkcwLCoUdksKKxiJFgrohF/pcCIYDPLYW6655hpVRjkyLG6UjoeqZg1EfKMTb01FcgnK0gpWAzivXkpM+gT+rthz7kY9OUigP+hBlbxud5VKFJLINGiRVauqt+Zm9hainySVQhzLBV6cxHeyhbSVIuJVkSSJeEU000KMHbOCggwcwB7FOROj7hDZ8Eg3N4Bsz/0VHmDIYMoXJ6nBKFEpNBi0QbvRRtUjPGgDjDzzB5z+UALGLzDpQiFsAnvYIkkq8p3zACvxt7zlLYwMDBFGHbXO+BQMMCFxvyQCTdbl1c9//vN+iUI0TLtkxwdyjXgi5ghrIjuilvaNFfFiRjbluD3xxC5BDEkhRmWx/cgATdaTvFFUIaR74gwJGA3UAX/aK+5RWokzZUHiFZZSb6N3m2LFw0xTi0TSn7jEf5hBMq8rlyAmGZGhjSwyiFT2HBYbwCKKUDSRTYVnylcRy5FIeaR6xXoDGxktIoXKjH7Ew6zpc6iG7FY7EwYBbXpDM8sMkY1sohkf1JfUJtk9QkVqk8XqpcrIQzPiVUd29ICUXUGoIuUBgFR9j9LFUQJe3aFSrtopS0ZMi4I/gXrD+t1hdV55gVj0R/YV8RcpTyaKJLEAlFfJFW4kb3lVZ1EB64oHZD3dYykoSArOgifpoS1xvyGgF0yEewFeqRHSpM2Kyhhqp+vEE080DokGo84vkeEtIULGGcPRWHno5WPAwCt5p5o59clpQTWqZ5yXA32Ay6sSCbbGY6MICq9d3OK6uQDTfOnmc3NzpCS5bAYqrxoY+j/aemUHNwH0BxvwbaGhRJKxPCZihUSU+6VDPO1pTyPuC8CABS0N2AoX7kvDxFkpS8MB4oCepaw//OG/v/Odb1uJk/XEBA3R6KJYUWNJCp/4oK/RJUGWLEtD4bhLaQiRPPpVLnFT3namNwAKnfW8BaZEoo3W0eZVsnfNW7IEkgWDbm7VpeHqVBU8BbmUEm9EPAa+HklBFgp0fLN7aejk7YRMeimlDlCQF+JF6gDlMZDUfJWywohiUTB7O1FhJtwnqjluEcSUJYva1uODVL495JjO29aodgby3bpeOiWdZC9IyuAsKbPIEnNgyaTekhWEgY2yGo9LzOH+xc2Ee3/+zN6OkQMUsliu6mW0tbS1CcWu5Vk8r9qJxlQ1zCTztVyySxHoWW2YKr1gC6oaZBUtib3ACvwsMhwHNEebz+vbaDg8vXKNG3/XclNoXqWrdQVb9sT1GtCykzIj4JbAAQeWnPt04pPOTrY60OmCbtuDwNraSyx/kbl5FE/E1zUe/OANLrusOo7dluzER/XXHnJVoms6z33uBl/8YoWwgerKK6tzRxwJF5z1IkLB975XnWty5FTIwiLps98hONCeaMcl2dEzbvxdq5xCl6XorvT0SpwJ916cmaWPmAMRo44YcaXgIBAZ6ta6I0PvfnclaoUAkP7Oqvlz5li6R8fhHJ4Wl+LP7unxx1d+gQQn8X73O3cdXWetxlrB4IawawRCUPmNmHazQek5kBr8KTpgBeacc6przLMw48BUc2Am3Ke6+aaJeGI0wnfXXVsveUl1lv9tb6ukvGtiJH7Rkd2Ed1zVwfTnPa9S6oljd7j4cuAh2RFVN9h5g9h//9b111crAB/QBkncf/WrFSuCP/KaewYwrpg9/emV1yBTiBBvE9xIbLppa/fdqzsKgttt225b+YdADwxKEdrbsVVkFmYcmFIOrNhLTFPaHiubbGKXEHfq/9Wvrq4XCO4Ju+cl0SmYiGZil7RlqCGRxV//+sprmwvDJP4ee1SXy9zLdWGYZu1LHryzwQCbU/9CxHoVazvtcclgzz2r2wxMNC97WWubbdbeRFu9ukp3O4yntkc+spohuGkzzUDOyY+CZmHGgRXAgZlwXwGNOE1ViPyNyoxuurkLp5HsXjGzcJHGf6c7XEIUbQA06/e8p3XYYVVinP8AdkGXZ7e47eQ7sxHkdanwhBOqe2Tte5RrbTvACHTekmn0vGzmlRLNMa6MISxFN7DNHmccmDoOzMwyU9dkU0wwDZ1QZk6hMvOmyVvnc59bKeBCzDIMKa98ZeWtYeedq8RstHIHdOKJrWc+s3XEEVVKJD5bPNM5WwoLD+cNAAj9+pUuph7emHlphoqbh4QsDij+PptF6yfHeXIW/FoWvPGNVdGZfgK5Ntvs34wDU8iBmeY+hY02nSQTl4SvbUw+0ZhcOFbjd4Eof+c7K+86bVdXlecGm6X+OHdjJPEYuzlDPAHtUydnn115cRD4jaD1myScfuHUgR2flTzmHdKZtu6XyKaeU/kf8IAqS9YH/EAw0JPjnLspglMHbt0o+DZa7dwyx2dlYG6YhRkHppoDs3PuU91800c80ckSQvsuCjhlnBWeaCb9SWQCGgDZmkc1pKTb5CSaQQZYiuyZKjJnwFCClGCAxFwSAOUGRor0qPmhQUanZQQIwXiV9cFsT7WwdBaZRg7MhPs0ttoKobmI71KfzpRBXhWYRqQPtkACEGKHaeSdPc44MO0cmAn3aW/B6aO/LlLr8VKTJOaR5PUY+VuAGykgGwK6E6DABElBnkhJLAU1EAZs9jvjwBRxYCbcp6ixZqTOODDjwIwDg3JgdlpmUE7N4GYcmHFgxoEp4sD/B9UJ+SvpzXhPAAAAAElFTkSuQmCC;" vertex="1" parent="1">
                    <mxGeometry x="94" y="100" width="640" height="640" as="geometry"/>
                </mxCell>
            </root>
        </mxGraphModel>
    </diagram>
</mxfile>
